<svg width="155" height="77" viewBox="0 0 155 77" fill="none" xmlns="http://www.w3.org/2000/svg">
<g clip-path="url(#clip0_7477_886)">
<mask id="mask0_7477_886" style="mask-type:luminance" maskUnits="userSpaceOnUse" x="0" y="0" width="155" height="77">
<path d="M155 0H0V76.8699H155V0Z" fill="white"/>
</mask>
<g mask="url(#mask0_7477_886)">
<path fill-rule="evenodd" clip-rule="evenodd" d="M46.3778 45.2135C45.0627 42.939 46.9323 38.0057 45.5256 35.5346C44.2746 33.3333 40.3246 32.4867 37.9189 34.1571C36.9017 34.8618 35.9623 36.6924 37.0254 37.8685C37.8823 38.8112 40.1963 38.4497 40.0085 36.6877C39.871 35.3881 39.0874 36.0516 39.0691 34.903C39.0554 34.0335 39.8894 33.7955 40.6408 33.7773C42.5104 33.7406 42.8403 34.8527 42.8403 36.6695C42.8403 39.4519 41.7727 38.9485 39.2524 39.6761C32.9654 41.493 36.8742 47.8862 41.3602 45.7581C42.4508 45.241 42.4737 44.8337 43.0694 44.3165C43.8255 45.241 44.1693 46.1609 45.9334 46.1334C47.0423 46.1151 48.7515 44.9893 47.9222 44.0511C47.2943 44.9618 47.7663 45.2639 46.3778 45.2135ZM42.7808 38.9485C42.8999 39.9919 42.9366 42.6371 42.68 43.5477C42.405 44.5408 41.0119 46.2661 39.8802 45.1587C39.179 44.4721 39.2661 41.7813 39.7335 40.8111C40.1414 39.9736 41.8918 39.3924 42.7808 38.9485Z" fill="#333333"/>
<path fill-rule="evenodd" clip-rule="evenodd" d="M49.4608 37.8998C50.2077 36.9113 49.7357 36.1105 51.1013 34.9937C52.1918 34.1014 53.3007 34.2478 54.9 34.3028L48.6084 45.6338L58.6208 45.5835C58.7354 44.4714 58.9324 41.5288 58.5017 40.6867L58.0755 41.7302C57.2782 44.5171 55.1611 45.1899 52.2469 45.1395L58.5476 33.8176L49.2637 33.8405C49.1905 34.916 48.9063 37.1767 49.4608 37.8998Z" fill="#333333"/>
<path fill-rule="evenodd" clip-rule="evenodd" d="M60.5281 37.9227C61.6003 34.9252 61.7194 34.1517 65.7748 34.2661C65.2982 35.6893 60.7021 43.1991 59.5107 45.6292L69.6194 45.5423L69.5231 40.7097C68.9045 41.0255 69.3215 40.5907 69.0145 41.6569C68.2492 44.3387 66.1827 45.4461 63.195 45.1121L69.5002 33.8223L60.2164 33.8176C60.1478 34.5681 60.1615 35.2592 60.1523 36.0098C60.1202 38.3071 60.2531 37.6801 60.5281 37.9227Z" fill="#333333"/>
<path fill-rule="evenodd" clip-rule="evenodd" d="M71.6078 22.0157C71.6445 19.2699 69.9261 15.2107 68.6934 13.252C63.5429 5.06033 54.4196 2.06738 44.0589 2.06738L10.5942 2.07197L10.5713 3.92082L21.4497 3.94828L21.4634 22.3772L35.9757 22.2628L36.0765 3.92539C41.8135 3.87962 48.9711 3.54555 51.8855 7.12885C54.9694 10.918 55.808 15.9246 56.1883 22.0249C57.2835 22.304 69.9032 22.1759 71.6078 22.0157Z" fill="#333333"/>
<path fill-rule="evenodd" clip-rule="evenodd" d="M79.582 53.1079C79.6554 54.8743 83.2937 60.7229 84.2285 62.0637C89.5944 69.7749 100.4 76.8454 110.976 76.7448C121.455 76.6441 132.206 69.4821 137.407 61.7617C138.777 59.7298 141.352 55.4646 142.03 52.6685L126.331 52.8928C125.117 63.2308 123.128 74.8318 110.751 74.8684C97.6685 74.905 96.6329 62.6084 94.997 53.0072L79.582 53.1079Z" fill="#333333"/>
<path fill-rule="evenodd" clip-rule="evenodd" d="M95.226 21.8188C96.8849 11.5495 99.1119 1.93914 110.522 1.85676C122.065 1.77438 124.585 11.2978 126.069 21.6587L140.903 21.5809C140.816 19.732 137.136 14.5561 136.128 13.2793C130.501 6.13566 120.649 -0.16599 110.307 0.00333577C96.17 0.232153 83.9856 11.7875 80.1914 21.9745L95.226 21.8188Z" fill="#333333"/>
<path fill-rule="evenodd" clip-rule="evenodd" d="M10.5752 74.6483L47.889 74.566L47.857 72.7994L35.9888 72.7856L35.9613 53.3958L21.4627 53.5102L21.4307 72.7902L10.5981 72.7994L10.5752 74.6483Z" fill="#333333"/>
<path fill-rule="evenodd" clip-rule="evenodd" d="M114.126 38.2027C114.557 42.3901 118.438 46.8291 123.181 46.0375C127.548 45.3052 130.669 41.0034 130.165 35.7818C129.752 31.5259 125.898 26.9082 120.931 27.8739C116.656 28.7022 113.59 33.0268 114.126 38.2027ZM118.31 39.5252C118.127 36.5003 118.03 30.5145 120.097 28.8212C121.431 27.7275 123.795 28.1301 124.689 29.3383C126.554 31.8507 126.796 43.2139 124.075 45.1359C122.64 46.1473 120.505 45.7308 119.62 44.5319C118.768 43.3878 118.415 41.246 118.31 39.5252Z" fill="#333333"/>
<path fill-rule="evenodd" clip-rule="evenodd" d="M0.027494 28.2497C0.449068 28.5928 -0.65069 28.6203 1.16849 28.7119C1.865 28.7439 1.85584 28.6248 2.62109 28.8125L2.58902 45.1593L0 45.1868L0.0962288 45.6353C1.85125 45.6306 7.74413 45.9739 8.90345 45.4751C8.33524 45.0174 6.96971 45.2188 6.09907 45.141L6.14031 38.7479C8.96761 38.7799 11.0938 39.1322 12.9864 37.4389C14.526 36.0661 15.3324 33.5583 14.0952 31.2518C11.9186 27.1833 5.45296 28.2497 0.027494 28.2497ZM6.10823 28.7667C8.75223 28.3915 10.2094 28.9361 10.7364 31.3066C11.1213 33.0365 11.0984 36.3223 10.0445 37.5855C9.45791 38.2856 8.35815 38.5877 7.12093 38.4549C5.67291 38.2994 6.07616 37.4573 6.08991 36.002C6.1174 33.5948 6.05324 31.1739 6.10823 28.7667Z" fill="#333333"/>
<path fill-rule="evenodd" clip-rule="evenodd" d="M98.4327 28.5087C99.065 28.8428 99.8302 28.6094 100.742 28.797L100.705 34.7829C97.5024 31.012 93.4928 35.2679 93.2867 39.2952C92.9797 45.3268 99.0375 47.8667 100.284 44.8875L100.568 45.2032C101.604 46.1643 105.485 45.6471 105.916 45.4687L105.017 45.1712C104.797 45.1437 104.211 45.1758 103.872 45.1712L103.854 28.3165C103.102 28.2249 99.0787 28.0099 98.4327 28.5087ZM96.7463 39.7437C96.7418 38.0276 96.7096 34.6227 98.0569 34.0644C100.087 33.2269 100.742 36.078 100.742 37.7621C100.742 39.5011 101.329 46.718 98.0844 45.3818C96.7051 44.8143 96.7555 41.4507 96.7463 39.7437Z" fill="#333333"/>
<path fill-rule="evenodd" clip-rule="evenodd" d="M25.8759 45.2081C24.6065 43.3043 26.3157 37.7715 25.0235 35.5337C23.8 33.4148 19.9051 32.4584 17.4169 34.1517C16.3813 34.8563 15.4693 36.7006 16.5233 37.8631C17.371 38.8058 19.6988 38.4351 19.5064 36.6778C19.3689 35.4101 18.5716 36.0279 18.5761 34.8975C18.5808 34.1104 19.346 33.7855 20.1479 33.7672C22.3107 33.7169 22.3429 35.2408 22.3429 37.0988C22.3429 40.9521 15.726 38.1513 15.5427 42.8329C15.474 44.6498 16.7661 45.8946 18.4158 46.0868C20.8811 46.3751 21.5134 45.3133 22.5765 44.2379C23.3647 45.1853 23.5022 46.1463 25.4359 46.1188C26.5998 46.1051 28.1852 44.9152 27.4246 44.032C26.8152 44.9335 27.2276 45.2585 25.8759 45.2081ZM22.2741 38.9385C22.4024 40.1192 22.4666 42.6819 22.1228 43.7071C21.7976 44.6726 20.3129 46.3339 19.2589 45.0342C18.6587 44.2974 18.7915 41.6523 19.2177 40.8057C19.6164 40.0231 20.8352 39.6753 22.2741 38.9385Z" fill="#333333"/>
<path fill-rule="evenodd" clip-rule="evenodd" d="M70.9926 41.0678C71.5975 43.983 74.4386 46.7791 78.2328 46.0011C85.6791 44.4772 83.8965 31.5948 75.5842 33.462C72.789 34.0935 70.2412 37.4388 70.9926 41.0678ZM76.0286 34.0752C80.446 31.3752 80.4781 44.253 77.8937 45.4703C75.0756 46.7974 74.434 43.0265 74.3607 40.8527C74.2783 38.3586 74.1041 35.2513 76.0286 34.0752Z" fill="#333333"/>
<path fill-rule="evenodd" clip-rule="evenodd" d="M154.7 41.5062C155.9 37.836 153.297 34.3991 150.653 33.5708C146.887 32.3946 143.88 35.0627 143.07 37.8863C140.866 45.5883 151.922 50.009 154.7 41.5062ZM148.041 33.9964C152.527 31.8776 152.367 44.4716 149.797 45.506C146.932 46.6591 146.383 43.1491 146.286 40.8471C146.19 38.4996 146.061 34.9346 148.041 33.9964Z" fill="#333333"/>
<path fill-rule="evenodd" clip-rule="evenodd" d="M28.0348 28.5098C28.6718 28.8026 29.1804 28.6745 30.051 28.7294L29.9914 45.1677C29.1712 45.1998 28.461 45.0029 27.9844 45.4743C28.5388 45.7672 34.7112 45.7535 35.2657 45.4743C34.7525 44.9938 34.1476 45.2135 33.19 45.1493L33.167 28.2672L29.1667 28.2305C28.9101 28.2443 28.8001 28.2489 28.548 28.2992C28.0761 28.3999 28.2639 28.3542 28.0348 28.5098Z" fill="#333333"/>
<path fill-rule="evenodd" clip-rule="evenodd" d="M136.626 45.1492C136.361 42.6872 135.788 32.4407 139.317 34.0608C139.055 34.8342 137.341 36.024 139.06 37.2184C140.351 38.1154 141.836 37.2459 141.987 35.9553C142.303 33.2096 138.601 32.0655 136.658 35.0218C136.379 33.841 136.988 34.1568 136.095 33.8182C135 33.8182 132.095 33.5299 131.356 34.0196C131.847 34.3994 132.636 34.2392 133.409 34.285L133.373 45.163C132.53 45.2042 131.843 45.0028 131.356 45.4742C131.907 45.7625 138.313 45.7579 138.849 45.4742C138.354 44.9891 137.511 45.2134 136.626 45.1492Z" fill="#333333"/>
<path fill-rule="evenodd" clip-rule="evenodd" d="M108.329 34.2394C110.488 35.0447 113.416 29.9741 111.079 28.1848C108.215 25.9881 104.829 31.7453 110.373 31.5301C110.346 33.8641 108.806 33.0998 108.329 34.2394Z" fill="#333333"/>
</g>
</g>
<defs>
<clipPath id="clip0_7477_886">
<rect width="155" height="77" fill="white"/>
</clipPath>
</defs>
</svg>
