<svg width="180" height="39" viewBox="0 0 180 39" fill="none" xmlns="http://www.w3.org/2000/svg">
<g clip-path="url(#clip0_7477_907)">
<path d="M16.6192 0.756348L92.2178 0.881304L75.5985 26.4974L0 26.4349L16.6192 0.756348Z" fill="#646E73"/>
<path d="M81.7844 9.81564V12.0023H85.8453V14.6265H81.7844V17.6254H87.4075V20.312H78.7229V7.12906H87.4075V9.81564H81.7844ZM93.8429 17.563H99.4661V20.2495H90.8436V7.12906H93.8429V17.563ZM105.589 9.81564V12.0023H109.65V14.6265H105.589V17.6254H111.211V20.312H102.528V7.12906H111.274V9.81564H105.589ZM122.208 17.3755V15.4387H120.459V12.8146H125.207V18.9375L125.082 19.0624C124.457 19.5622 123.708 19.9371 122.895 20.1245C122.083 20.3745 121.208 20.4994 120.271 20.4994C118.459 20.4994 116.898 19.9371 115.71 18.625C114.46 17.2505 114.086 15.5012 114.086 13.7518C114.086 11.9399 114.585 10.253 115.897 8.81598C117.147 7.50393 118.834 6.87915 120.771 6.87915C122.208 6.87915 123.457 7.31649 124.52 8.19118L124.707 8.37864L123.395 10.8778L123.02 10.5029C122.708 10.253 122.27 10.0655 121.895 9.87813C121.52 9.75315 121.083 9.56569 120.646 9.56569C119.584 9.56569 118.709 9.87813 118.084 10.6903C117.334 11.565 117.085 12.6896 117.085 13.8142C117.085 14.8763 117.334 15.9385 118.022 16.7507C118.646 17.5005 119.521 17.8128 120.521 17.8128C121.208 17.8128 121.708 17.6879 122.208 17.3755ZM135.016 17.7503H131.33L130.455 20.2495H127.144L132.392 6.94162H133.954L139.264 20.2495H135.953L135.016 17.7503ZM144.637 13.3769V20.312H141.701V7.12906H143.388L148.636 13.8767V7.12906H151.572V20.437H150.073L144.637 13.3769ZM161.319 9.81564V20.312H158.32V9.81564H154.384V7.12906H165.506V9.81564H161.319ZM133.141 12.3772L132.204 15.3137H134.141L133.141 12.3772Z" fill="#333333"/>
<path d="M74.5367 5.12979L72.912 8.00379C72.0373 7.25405 70.6003 6.87918 68.601 6.87918C66.7267 6.87918 65.1648 7.56644 63.9776 8.94094C62.7906 10.3154 62.1658 12.0649 62.1658 14.1266C62.1658 16.1884 62.7281 17.8754 63.8527 19.1249C64.9773 20.3744 66.4768 20.9993 68.2886 20.9993C70.4129 20.9993 72.0373 20.312 73.287 18.9999L75.1609 21.8114C73.5365 23.3109 71.1626 24.1232 67.9763 24.1232C64.8523 24.1232 62.4156 23.2484 60.6663 21.4366C58.9169 19.6247 58.0422 17.1881 58.0422 14.0642C58.0422 11.1277 58.9794 8.75354 60.9162 6.75422C62.8531 4.8174 65.2897 3.81775 68.3511 3.81775C70.9128 3.75527 72.9745 4.19262 74.5367 5.12979Z" fill="white"/>
<path d="M55.0434 23.7481H51.4822L49.2954 13.1269L45.1719 23.9981H43.8599L39.7363 13.1269L37.4871 23.7481H33.9258L38.1119 4.0675H40.0487L44.5471 17.3129L48.8581 4.0675H50.7949L55.0434 23.7481Z" fill="white"/>
<path d="M19.493 7.19141V11.7524H26.803V14.7513H19.493V20.6242H29.7395V23.7481H15.5569V4.0675H29.7395V7.19141H19.493Z" fill="white"/>
<path d="M166.755 5.87971V0.943927H167.879V5.06749H170.628V5.94219H166.755V5.87971ZM172.002 5.87971V1.69367H170.378V0.81897H174.689V1.69367H173.127V5.87971H172.002ZM175.439 0.881449H177.438C177.876 0.881449 178.25 0.881448 178.501 1.0064C178.813 1.06888 179.063 1.25632 179.313 1.44375C179.562 1.69367 179.688 1.94357 179.813 2.25597C179.938 2.56836 180 2.94323 180 3.44305C180 3.8804 179.938 4.19279 179.813 4.50519C179.688 4.88005 179.5 5.19244 179.25 5.37988C179.063 5.56732 178.813 5.69227 178.501 5.75475C178.25 5.81723 177.938 5.87971 177.501 5.87971H175.439V0.881449ZM176.564 1.69367V5.00501H177.376C177.689 5.00501 177.876 5.00501 178.063 4.94253C178.25 4.88005 178.376 4.81757 178.501 4.7551C178.625 4.63014 178.688 4.50519 178.813 4.25527C178.875 4.00536 178.938 3.75545 178.938 3.3181C178.938 2.94323 178.875 2.63084 178.813 2.4434C178.75 2.25597 178.625 2.06853 178.501 1.94357C178.376 1.81862 178.188 1.75614 178.001 1.69367C177.876 1.63119 177.563 1.63119 177.126 1.63119H176.564V1.69367Z" fill="#333333"/>
<path d="M21.3052 33.5575H23.5544C23.492 33.2451 23.367 32.9327 23.1795 32.7453C22.9921 32.5578 22.7422 32.433 22.4298 32.433C22.1174 32.433 21.8675 32.5578 21.6801 32.7453C21.4926 32.9327 21.3677 33.1826 21.3052 33.5575ZM22.6173 36.6814C21.805 36.6814 21.1803 36.4316 20.6804 35.9318C20.1806 35.4319 19.9307 34.7446 19.9307 33.9949C19.9307 33.2452 20.1806 32.6204 20.6804 32.0581C21.1803 31.5583 21.805 31.2458 22.5548 31.2458C23.367 31.2458 23.9918 31.4958 24.4291 32.0581C24.8665 32.6204 25.0539 33.2452 25.0539 34.0574C25.0539 34.1199 25.0539 34.2448 25.0539 34.4323H21.4302C21.4926 34.7446 21.6176 34.9945 21.8675 35.1819C22.1174 35.3693 22.3673 35.4319 22.6798 35.4319C23.1171 35.4319 23.5544 35.2444 23.9293 34.8695L24.804 35.6194C24.1792 36.3691 23.492 36.6814 22.6173 36.6814Z" fill="#333333"/>
<path d="M27.1782 36.5565V31.3083H28.6776V32.0581C29.115 31.4958 29.6148 31.2458 30.2396 31.2458C30.9269 31.2458 31.4267 31.4958 31.7391 32.0581C32.2389 31.4958 32.8012 31.2458 33.426 31.2458C33.9883 31.2458 34.4256 31.4333 34.7381 31.7457C35.0504 32.0581 35.1754 32.5579 35.1754 33.1827V36.5565H33.6759V33.62C33.6759 32.9327 33.3636 32.5578 32.8012 32.5578C32.5513 32.5578 32.3014 32.6204 32.114 32.8078C31.9266 32.9953 31.8641 33.2451 31.8641 33.62V36.5565H30.3646V33.62C30.3646 32.9327 30.0521 32.5578 29.4899 32.5578C29.24 32.5578 28.9901 32.6204 28.8026 32.8078C28.6152 32.9953 28.5527 33.2451 28.5527 33.62V36.5565H27.1782Z" fill="#333333"/>
<path d="M39.2994 34.9945C39.5494 35.2444 39.8617 35.3694 40.1741 35.3694C40.549 35.3694 40.8615 35.2444 41.0489 34.9945C41.2988 34.7445 41.4237 34.3698 41.4237 33.9324C41.4237 33.4951 41.2988 33.1827 41.0489 32.8703C40.799 32.6204 40.4865 32.4953 40.1741 32.4953C39.7992 32.4953 39.4869 32.6204 39.2994 32.8703C39.0495 33.1203 38.9245 33.4951 38.9245 33.9324C38.9245 34.3698 39.0495 34.7445 39.2994 34.9945ZM37.4875 38.1185V31.3708H38.987V32.1206C39.4244 31.5583 39.9242 31.2458 40.6115 31.2458C41.2362 31.2458 41.7986 31.4958 42.2985 31.9956C42.7983 32.4954 42.9857 33.1203 42.9857 33.9949C42.9857 34.8071 42.7358 35.4944 42.2985 35.9943C41.8611 36.4941 41.2987 36.7439 40.6115 36.7439C39.9867 36.7439 39.4244 36.4941 38.987 35.9943V38.2434H37.4875V38.1185Z" fill="#333333"/>
<path d="M45.172 31.3708H46.6715V36.619H45.172V31.3708ZM45.1096 29.434H46.6715V30.7461H45.1096V29.434Z" fill="#333333"/>
<path d="M49.1079 36.5565V31.3084H50.6074V32.3705C50.9198 31.5583 51.4821 31.1835 52.2943 31.246V32.8079H52.2319C51.732 32.8079 51.3571 32.9328 51.0447 33.2452C50.7949 33.5576 50.6074 33.995 50.6074 34.6198V36.5565H49.1079Z" fill="#333333"/>
<path d="M55.4182 33.5575H57.6674C57.6049 33.2451 57.48 32.9327 57.2925 32.7453C57.1052 32.5579 56.8552 32.4329 56.5428 32.4329C56.2304 32.4329 55.9805 32.5579 55.7931 32.7453C55.6057 32.9327 55.4807 33.1826 55.4182 33.5575ZM56.6677 36.6814C55.8555 36.6814 55.2307 36.4316 54.731 35.9318C54.2312 35.432 53.9812 34.7446 53.9812 33.9949C53.9812 33.2451 54.2312 32.6204 54.731 32.0581C55.2307 31.5582 55.8555 31.2458 56.6053 31.2458C57.4175 31.2458 58.0423 31.4957 58.4797 32.0581C58.917 32.6204 59.1044 33.2451 59.1044 34.0574C59.1044 34.1198 59.1044 34.2449 59.1044 34.4323H55.4807C55.5432 34.7447 55.6682 34.9945 55.918 35.1819C56.168 35.3694 56.4179 35.4319 56.7302 35.4319C57.1676 35.4319 57.6049 35.2444 57.9798 34.8696L58.8545 35.6194C58.2922 36.3692 57.605 36.6814 56.6677 36.6814Z" fill="#333333"/>
<path d="M67.7891 35.3696C68.2264 35.3696 68.5388 35.2446 68.7887 34.9322C69.0386 34.6823 69.1636 34.3074 69.1636 33.9326C69.1636 33.5576 69.0386 33.1828 68.7887 32.9329C68.5388 32.6205 68.2264 32.4956 67.7891 32.4956C67.3517 32.4956 67.0393 32.6205 66.7894 32.9329C66.5395 33.1828 66.4145 33.5576 66.4145 33.9326C66.4145 34.3074 66.5395 34.6823 66.7894 34.9322C67.1018 35.2446 67.4142 35.3696 67.7891 35.3696ZM69.7884 35.8694C69.2261 36.3692 68.6012 36.6816 67.7891 36.6816C66.9769 36.6816 66.2896 36.4316 65.7897 35.8694C65.2274 35.3696 64.9775 34.6823 64.9775 33.9326C64.9775 33.1828 65.2274 32.5581 65.7897 31.9957C66.3521 31.4959 66.9769 31.1835 67.7891 31.1835C68.6012 31.1835 69.2885 31.4334 69.7884 31.9957C70.3507 32.4956 70.6006 33.1828 70.6006 33.9326C70.6006 34.7448 70.3507 35.3696 69.7884 35.8694Z" fill="#333333"/>
<path d="M73.0372 36.5565V32.6204H72.4124V31.4333H73.0372V31.1209C73.0372 30.5586 73.1621 30.1213 73.4744 29.8714C73.7246 29.6214 74.1614 29.434 74.6619 29.434C75.0365 29.434 75.4112 29.4964 75.7236 29.5589V30.8085C75.4741 30.7461 75.2861 30.6836 75.0365 30.6836C74.6619 30.6836 74.4739 30.871 74.4739 31.2459V31.4333H75.6614V32.6204H74.4739V36.5565H73.0372Z" fill="#333333"/>
<path d="M81.5342 36.5565V31.3083H83.0334V32.0581C83.471 31.4957 83.9708 31.2458 84.5956 31.2458C85.2827 31.2458 85.7825 31.4957 86.0949 32.0581C86.5954 31.4957 87.1573 31.2458 87.7822 31.2458C88.3442 31.2458 88.7817 31.4333 89.0942 31.7456C89.4066 32.0581 89.5317 32.5579 89.5317 33.1826V36.5565H88.0317V33.62C88.0317 32.9327 87.7193 32.5579 87.1573 32.5579C86.9071 32.5579 86.6576 32.6204 86.4703 32.8078C86.283 32.9952 86.22 33.2451 86.22 33.62V36.5565H84.7208V33.62C84.7208 32.9327 84.4083 32.5579 83.8464 32.5579C83.5961 32.5579 83.3459 32.6204 83.1586 32.8078C82.9713 32.9952 82.9091 33.2451 82.9091 33.62V36.5565H81.5342Z" fill="#333333"/>
<path d="M94.405 35.3696C94.8418 35.3696 95.1542 35.2446 95.4045 34.9322C95.654 34.6823 95.7791 34.3074 95.7791 33.9326C95.7791 33.5576 95.654 33.1828 95.4045 32.9329C95.1542 32.6205 94.8418 32.4956 94.405 32.4956C93.9674 32.4956 93.655 32.6205 93.4047 32.9329C93.1552 33.1828 93.0301 33.5576 93.0301 33.9326C93.0301 34.3074 93.1552 34.6823 93.4047 34.9322C93.655 35.2446 94.0296 35.3696 94.405 35.3696ZM96.404 35.8694C95.842 36.3692 95.2172 36.6816 94.405 36.6816C93.5928 36.6816 92.905 36.4316 92.4052 35.8694C91.8433 35.3696 91.593 34.6823 91.593 33.9326C91.593 33.1828 91.8433 32.5581 92.4052 31.9957C92.9679 31.4959 93.5928 31.1835 94.405 31.1835C95.2172 31.1835 95.9042 31.4334 96.404 31.9957C96.9667 32.4956 97.2162 33.1828 97.2162 33.9326C97.2162 34.7448 96.9667 35.3696 96.404 35.8694Z" fill="#333333"/>
<path d="M101.09 36.619C100.59 36.619 100.215 36.494 99.9651 36.2442C99.7156 35.9942 99.5904 35.6194 99.5904 35.057V32.558H98.9656V31.3084H99.5904V29.9963H101.09V31.3084H102.339V32.558H101.09V34.8072C101.09 35.1195 101.277 35.307 101.589 35.307C101.84 35.307 102.089 35.2445 102.339 35.1195V36.3067C101.964 36.5565 101.589 36.619 101.09 36.619Z" fill="#333333"/>
<path d="M107.025 35.3696C107.462 35.3696 107.775 35.2446 108.025 34.9322C108.274 34.6823 108.399 34.3074 108.399 33.9326C108.399 33.5576 108.274 33.1828 108.025 32.9329C107.775 32.6205 107.462 32.4956 107.025 32.4956C106.588 32.4956 106.275 32.6205 106.026 32.9329C105.776 33.1828 105.65 33.5576 105.65 33.9326C105.65 34.3074 105.776 34.6823 106.026 34.9322C106.275 35.2446 106.65 35.3696 107.025 35.3696ZM109.024 35.8694C108.462 36.3692 107.838 36.6816 107.025 36.6816C106.213 36.6816 105.525 36.4316 105.026 35.8694C104.464 35.3696 104.213 34.6823 104.213 33.9326C104.213 33.1828 104.464 32.5581 105.026 31.9957C105.588 31.4959 106.213 31.1835 107.025 31.1835C107.838 31.1835 108.525 31.4334 109.024 31.9957C109.587 32.4956 109.837 33.1828 109.837 33.9326C109.837 34.7448 109.587 35.3696 109.024 35.8694Z" fill="#333333"/>
<path d="M111.961 36.5565V31.3084H113.461V32.3705C113.773 31.5583 114.335 31.1835 115.147 31.246V32.8079H115.022C114.522 32.8079 114.148 32.9328 113.835 33.2452C113.585 33.5576 113.398 33.995 113.398 34.6198V36.5565H111.961Z" fill="#333333"/>
<path d="M123.582 36.6816C122.832 36.6816 122.145 36.4316 121.646 35.8694C121.145 35.3696 120.896 34.6823 120.896 33.9326C120.896 33.1828 121.145 32.5581 121.646 31.9957C122.145 31.4959 122.832 31.1835 123.582 31.1835C124.395 31.1835 125.082 31.4959 125.644 32.1206L124.769 32.9954C124.395 32.6205 124.019 32.4956 123.582 32.4956C123.207 32.4956 122.895 32.6205 122.645 32.9329C122.395 33.1828 122.27 33.5576 122.27 33.9326C122.27 34.3699 122.395 34.6823 122.645 34.9322C122.895 35.1821 123.207 35.3696 123.582 35.3696C124.019 35.3696 124.395 35.1821 124.769 34.8073L125.644 35.6819C125.331 35.9943 125.082 36.2443 124.706 36.3692C124.457 36.6191 124.019 36.6816 123.582 36.6816Z" fill="#333333"/>
<path d="M130.267 35.3696C130.704 35.3696 131.017 35.2446 131.267 34.9322C131.516 34.6823 131.641 34.3074 131.641 33.9326C131.641 33.5576 131.516 33.1828 131.267 32.9329C131.017 32.6205 130.704 32.4956 130.267 32.4956C129.83 32.4956 129.517 32.6205 129.267 32.9329C129.018 33.1828 128.892 33.5576 128.892 33.9326C128.892 34.3074 129.018 34.6823 129.267 34.9322C129.579 35.2446 129.892 35.3696 130.267 35.3696ZM132.266 35.8694C131.704 36.3692 131.079 36.6816 130.267 36.6816C129.455 36.6816 128.767 36.4316 128.268 35.8694C127.768 35.3071 127.455 34.6823 127.455 33.9326C127.455 33.1828 127.706 32.5581 128.268 31.9957C128.83 31.4959 129.455 31.1835 130.267 31.1835C131.079 31.1835 131.767 31.4334 132.266 31.9957C132.828 32.4956 133.078 33.1828 133.078 33.9326C133.078 34.7448 132.828 35.3696 132.266 35.8694Z" fill="#333333"/>
<path d="M136.827 36.6188L134.765 31.3706H136.327L137.514 34.8069L138.702 31.3706H140.201L138.139 36.6188H136.827Z" fill="#333333"/>
<path d="M143.325 33.5573H145.575C145.512 33.245 145.387 32.9325 145.199 32.7452C145.012 32.5577 144.762 32.4328 144.45 32.4328C144.138 32.4328 143.887 32.5577 143.7 32.7452C143.513 32.9325 143.388 33.1825 143.325 33.5573ZM144.637 36.6813C143.825 36.6813 143.2 36.4314 142.7 35.9315C142.201 35.4317 141.95 34.7445 141.95 33.9947C141.95 33.245 142.201 32.6202 142.7 32.0579C143.2 31.558 143.825 31.2457 144.575 31.2457C145.387 31.2457 146.011 31.4956 146.449 32.0579C146.887 32.6202 147.074 33.245 147.074 34.0572C147.074 34.1197 147.074 34.2446 147.074 34.432H143.45C143.513 34.7445 143.638 34.9944 143.887 35.1818C144.138 35.3692 144.387 35.4317 144.699 35.4317C145.137 35.4317 145.575 35.2443 145.949 34.8694L146.824 35.6192C146.199 36.3689 145.512 36.6813 144.637 36.6813Z" fill="#333333"/>
<path d="M149.198 36.5565V31.3084H150.697V32.3705C151.01 31.5583 151.572 31.1835 152.384 31.246V32.8079H152.322C151.822 32.8079 151.447 32.9328 151.135 33.2452C150.885 33.5576 150.697 33.995 150.697 34.6198V36.5565H149.198Z" fill="#333333"/>
<path d="M156.133 36.6813C155.321 36.6813 154.571 36.4314 153.884 35.869L154.509 34.8694C155.071 35.3068 155.633 35.4942 156.133 35.4942C156.57 35.4942 156.758 35.3692 156.758 35.0568C156.758 34.9944 156.758 34.9944 156.758 34.9319C156.758 34.8694 156.758 34.8694 156.695 34.8694L156.633 34.807C156.633 34.807 156.57 34.7445 156.508 34.7445C156.445 34.7445 156.446 34.682 156.383 34.682C156.32 34.682 156.32 34.6195 156.258 34.6195C156.195 34.6195 156.133 34.557 156.07 34.557C156.008 34.557 155.946 34.557 155.883 34.4945C155.821 34.4945 155.758 34.432 155.695 34.432C155.446 34.3696 155.258 34.3071 155.134 34.2446C155.008 34.1822 154.821 34.0572 154.633 33.9322C154.446 33.8073 154.321 33.6823 154.258 33.4949C154.196 33.3075 154.133 33.12 154.133 32.8701C154.133 32.3703 154.321 31.933 154.696 31.683C155.071 31.3706 155.508 31.2457 156.07 31.2457C156.758 31.2457 157.445 31.4331 158.007 31.8705L157.445 32.8701C156.882 32.5577 156.445 32.3703 156.008 32.3703C155.633 32.3703 155.446 32.4952 155.446 32.7452C155.446 32.9325 155.758 33.12 156.32 33.3075C156.383 33.3075 156.445 33.37 156.508 33.37C156.695 33.4324 156.82 33.4949 156.945 33.5573C157.07 33.6198 157.195 33.6823 157.383 33.7448C157.507 33.8073 157.632 33.9322 157.757 34.0572C157.82 34.1822 157.945 34.3071 158.007 34.432C158.07 34.557 158.132 34.7445 158.132 34.9319C158.132 35.4942 157.945 35.9315 157.57 36.1815C157.195 36.4938 156.758 36.6813 156.133 36.6813Z" fill="#333333"/>
</g>
<defs>
<clipPath id="clip0_7477_907">
<rect width="180" height="38" fill="white" transform="translate(0 0.5)"/>
</clipPath>
</defs>
</svg>
