<svg width="155" height="79" viewBox="0 0 155 79" fill="none" xmlns="http://www.w3.org/2000/svg">
<mask id="mask0_7477_979" style="mask-type:luminance" maskUnits="userSpaceOnUse" x="0" y="0" width="155" height="79">
<path d="M155 0H0V78.7247H155V0Z" fill="white"/>
</mask>
<g mask="url(#mask0_7477_979)">
<path d="M45.634 0.736694C45.3577 1.36082 45.0714 2.00526 44.7951 2.67001C44.5189 3.33496 44.212 4.10206 43.8847 4.95118C43.5471 5.80012 43.189 6.76184 42.7902 7.85629C42.3911 8.94067 41.9411 10.2195 41.4398 11.6721L29.9009 44.4988H23.1595L11.4671 11.6721C10.9455 10.2398 10.4953 8.97143 10.1067 7.88705C9.71799 6.79261 9.36008 5.82063 9.04298 4.96144C8.71544 4.10206 8.42911 3.33496 8.17335 2.67001C7.90752 2.00507 7.66201 1.36063 7.42676 0.736694H13.8611L26.5152 38.6578L39.1896 0.736694H45.634Z" fill="#333333"/>
<path d="M75.5861 19.4568V24.2443H58.2061V31.4462C58.2061 34.423 58.2265 37.0521 58.2673 39.323C58.3083 41.5939 58.431 43.3225 58.6562 44.499H52.0479C52.2729 43.3022 52.3956 41.5631 52.4366 39.3025C52.4774 37.0316 52.4981 34.4128 52.4981 31.4564V9.72871C52.4981 8.38876 52.4878 7.16101 52.457 6.02556C52.4265 4.90035 52.3751 3.88755 52.314 2.98735C52.2627 2.08714 52.1707 1.34055 52.048 0.736938H78.1335V5.70846H58.2062V19.457L75.5861 19.4568Z" fill="#333333"/>
<path d="M118.571 40.2946C117.691 41.1129 116.658 41.8292 115.482 42.4326C114.305 43.0464 113.068 43.5578 111.779 43.9774C110.49 44.3969 109.191 44.7137 107.871 44.9184C106.551 45.1334 105.324 45.2357 104.188 45.2357C101.15 45.2357 98.4188 44.7242 96.0047 43.6909C93.5802 42.6678 91.524 41.1948 89.8362 39.2922C88.1381 37.379 86.8388 35.0673 85.9283 32.3566C85.0179 29.6353 84.5679 26.5973 84.5679 23.2215C84.5679 19.3649 85.1305 15.979 86.2454 13.0737C87.3606 10.1686 88.8541 7.74409 90.7159 5.81077C92.5778 3.87745 94.7361 2.4249 97.1709 1.45292C99.6055 0.480939 102.142 0.000366211 104.782 0.000366211C105.866 0.000366211 106.961 0.0719491 108.076 0.204861C109.201 0.34822 110.326 0.583476 111.451 0.900569C112.577 1.21766 113.702 1.64716 114.827 2.18964C115.942 2.73174 117.037 3.39669 118.121 4.19454L117.782 10.6479C116.84 9.80896 114.431 8.037 113.447 7.45776C112.467 6.88122 111.493 6.41439 110.511 6.06673C109.528 5.71868 108.557 5.47336 107.585 5.31994C106.613 5.16652 105.682 5.09494 104.782 5.09494C102.685 5.09494 100.762 5.4633 99.0023 6.18958C97.2429 6.91585 95.7288 8.0103 94.4602 9.4733C93.1917 10.9259 92.1996 12.7468 91.4731 14.9154C90.7571 17.0841 90.3992 19.6005 90.3992 22.4853C90.3992 25.1757 90.7573 27.6103 91.4629 29.7686C92.1688 31.9271 93.1508 33.7683 94.3989 35.2824C95.647 36.7963 97.1303 37.9728 98.8488 38.7911C100.567 39.6095 102.45 40.0189 104.485 40.0189C105.621 40.0189 106.777 39.8858 107.943 39.63C109.119 39.364 110.255 38.9854 111.38 38.4946C112.495 38.0035 113.566 37.4142 114.582 36.735C115.601 36.0542 117.686 34.8111 118.525 33.9725L118.572 40.295L118.571 40.2946Z" fill="#333333"/>
<path d="M0 69.455L2.27827 69.0884C2.4046 70.0006 2.76252 70.6988 3.34737 71.1875C3.93203 71.6719 4.75271 71.9165 5.79995 71.9165C6.86054 71.9165 7.64621 71.7025 8.16122 71.2705C8.67178 70.8429 8.92928 70.3366 8.92928 69.756C8.92928 69.2368 8.69809 68.8264 8.23996 68.5296C7.91687 68.3246 7.13139 68.0671 5.88314 67.7484C4.19843 67.3253 3.03337 66.9585 2.37868 66.6488C1.72844 66.3346 1.23529 65.9068 0.899235 65.357C0.563183 64.8114 0.393125 64.2049 0.393125 63.5415C0.393125 62.9348 0.532809 62.376 0.807725 61.861C1.08709 61.3462 1.46242 60.9185 1.93796 60.5781C2.29587 60.3164 2.78477 60.0937 3.39999 59.9105C4.01986 59.7273 4.67881 59.6354 5.38574 59.6354C6.45078 59.6354 7.38464 59.7882 8.18753 60.0982C8.99487 60.4036 9.58843 60.8225 9.97246 61.3464C10.3522 61.8744 10.6184 62.5771 10.7626 63.4587L8.51043 63.7729C8.41021 63.0658 8.11343 62.5117 7.62454 62.1143C7.13584 61.7173 6.44633 61.5207 5.55154 61.5207C4.49985 61.5207 3.74475 61.6954 3.29533 62.0446C2.8459 62.3936 2.61897 62.804 2.61897 63.271C2.61897 63.5678 2.71067 63.8383 2.89833 64.0784C3.08599 64.3227 3.37832 64.5278 3.77977 64.6893C4.01096 64.7766 4.68326 64.9731 5.80924 65.2784C7.43262 65.7104 8.5675 66.0684 9.21329 66.3435C9.85928 66.6184 10.3654 67.0243 10.7322 67.5478C11.1031 68.0758 11.2863 68.7305 11.2863 69.5161C11.2863 70.2799 11.0636 70.9998 10.6142 71.6764C10.1648 72.3529 9.51878 72.8767 8.67662 73.2475C7.82981 73.6184 6.87408 73.8016 5.80924 73.8016C4.04598 73.8016 2.69751 73.4352 1.77216 72.7064C0.846806 71.9732 0.257311 70.8907 0 69.455ZM14.0092 78.7246V59.9235H16.1038V61.7084C16.5972 61.0191 17.1557 60.4996 17.7798 60.1548C18.3995 59.8101 19.1544 59.6354 20.0405 59.6354C21.2013 59.6354 22.2224 59.9322 23.1083 60.5302C23.9944 61.1237 24.6622 61.9661 25.1161 63.0483C25.5655 64.135 25.7925 65.3222 25.7925 66.6184C25.7925 68.0019 25.5437 69.2501 25.0463 70.3627C24.5487 71.4713 23.8243 72.3224 22.8729 72.9157C21.9256 73.505 20.9264 73.8016 19.8789 73.8016C19.1107 73.8016 18.4214 73.6403 17.8147 73.3174C17.2037 72.9943 16.7061 72.5884 16.3133 72.0952V78.7246H14.0092ZM16.1038 66.8014C16.1038 68.5428 16.4575 69.8303 17.1602 70.6638C17.8671 71.4974 18.7224 71.9165 19.7263 71.9165C20.7474 71.9165 21.6203 71.4843 22.3449 70.6203C23.0737 69.756 23.4358 68.4205 23.4358 66.6093C23.4358 64.8811 23.0824 63.5893 22.371 62.7297C21.6596 61.8699 20.813 61.4422 19.8265 61.4422C18.8489 61.4422 17.9849 61.9005 17.2342 62.8125C16.4791 63.7291 16.1038 65.0558 16.1038 66.8014ZM37.4496 71.8114C36.5943 72.5404 35.7694 73.051 34.9793 73.352C34.1893 73.6532 33.3429 73.8014 32.435 73.8014C30.9424 73.8014 29.7945 73.4393 28.9914 72.7105C28.1886 71.9859 27.7869 71.0563 27.7869 69.9259C27.7869 69.2627 27.9398 68.656 28.2408 68.106C28.5465 67.5561 28.9435 67.1199 29.4324 66.7881C29.9255 66.4563 30.4753 66.2034 31.0908 66.033C31.5446 65.9151 32.2299 65.8018 33.1419 65.6884C35.0011 65.4702 36.3759 65.2039 37.2531 64.8983C37.262 64.5843 37.2664 64.3833 37.2664 64.3005C37.2664 63.3666 37.0482 62.7074 36.6117 62.3234C36.0224 61.804 35.1452 61.5466 33.9843 61.5466C32.8975 61.5466 32.0947 61.7386 31.5796 62.1183C31.0602 62.4981 30.6806 63.17 30.432 64.1389L28.1798 63.8247C28.3849 62.8603 28.721 62.0791 29.1925 61.4857C29.6639 60.8921 30.3446 60.4383 31.2349 60.1154C32.1208 59.7967 33.1552 59.6352 34.3249 59.6352C35.4857 59.6352 36.4328 59.7706 37.1616 60.0455C37.8861 60.3204 38.4228 60.661 38.7633 61.0756C39.1038 61.4902 39.3439 62.0139 39.4834 62.6467C39.5575 63.0394 39.5969 63.7464 39.5969 64.7634V67.8185C39.5969 69.9526 39.6449 71.3011 39.7411 71.8728C39.8328 72.4447 40.0245 72.9902 40.3039 73.5138H37.8948C37.6636 73.0293 37.5152 72.4619 37.4496 71.8114ZM37.2664 66.7053C36.4283 67.0456 35.1716 67.3338 33.4957 67.5695C32.5443 67.7047 31.8722 67.8574 31.4794 68.0276C31.0869 68.1979 30.7857 68.4465 30.5719 68.7697C30.3579 69.0971 30.2488 69.4591 30.2488 69.8609C30.2488 70.4676 30.48 70.9782 30.947 71.3841C31.414 71.79 32.095 71.995 32.9894 71.995C33.8753 71.995 34.6654 71.8029 35.3592 71.4144C36.0487 71.0304 36.5595 70.5022 36.8824 69.8344C37.1312 69.3151 37.2533 68.5515 37.2533 67.5432L37.2664 66.7053ZM43.1103 73.5136V59.9233H45.1788V62.005C45.7068 61.0405 46.1955 60.4033 46.6453 60.098C47.0947 59.788 47.5879 59.6352 48.1248 59.6352C48.9015 59.6352 49.6915 59.8797 50.4944 60.3642L49.6739 62.4894C49.1153 62.1752 48.5566 62.0179 47.998 62.0179C47.4962 62.0179 47.0466 62.1708 46.6494 62.4718C46.2524 62.773 45.9686 63.1919 45.7985 63.7288C45.5412 64.5448 45.4145 65.4396 45.4145 66.4127V73.5134L43.1103 73.5136ZM61.126 69.1145L63.5089 69.4285C63.1378 70.8122 62.4439 71.89 61.4314 72.6538C60.4188 73.4176 59.1271 73.8014 57.5516 73.8014C55.5702 73.8014 53.9992 73.1907 52.8384 71.9685C51.6774 70.7508 51.097 69.036 51.097 66.8318C51.097 64.5537 51.6817 62.7817 52.8558 61.525C54.0298 60.2638 55.5529 59.6352 57.4251 59.6352C59.2364 59.6352 60.7158 60.2506 61.8636 61.4859C63.0113 62.7208 63.5874 64.4579 63.5874 66.6967C63.5874 66.832 63.5832 67.0371 63.5743 67.3077H53.4536C53.5411 68.7959 53.9599 69.9394 54.7193 70.7292C55.4744 71.5191 56.4214 71.9163 57.5516 71.9163C58.394 71.9163 59.1141 71.6936 59.7076 71.2484C60.3055 70.8033 60.7767 70.0921 61.126 69.1145ZM53.5844 65.4224H61.1521C61.0517 64.2788 60.7593 63.4235 60.2836 62.8518C59.5546 61.9659 58.6033 61.5205 57.4379 61.5205C56.3818 61.5205 55.4959 61.8742 54.7758 62.5811C54.0601 63.2882 53.663 64.2353 53.5844 65.4224ZM73.6949 78.7244V59.9233H75.7896V61.7082C76.2829 61.0189 76.8415 60.4994 77.4656 60.1546C78.0853 59.8099 78.8402 59.6352 79.7263 59.6352C80.8871 59.6352 81.9082 59.932 82.7941 60.53C83.6802 61.1235 84.348 61.9659 84.8019 63.0481C85.2513 64.1349 85.4782 65.322 85.4782 66.6182C85.4782 68.0017 85.2295 69.2499 84.732 70.3626C84.2345 71.4711 83.5101 72.3222 82.5586 72.9155C81.6114 73.5048 80.6122 73.8014 79.5647 73.8014C78.7965 73.8014 78.1072 73.6401 77.5004 73.3172C76.8895 72.9941 76.3919 72.5882 75.9991 72.0951V78.7244H73.6949ZM75.7896 66.8012C75.7896 68.5426 76.1433 69.8301 76.8459 70.6636C77.5529 71.4972 78.4082 71.9163 79.4121 71.9163C80.4332 71.9163 81.3061 71.4841 82.0307 70.6201C82.7595 69.7558 83.1216 68.4203 83.1216 66.6091C83.1216 64.8809 82.7682 63.5891 82.0568 62.7295C81.3454 61.8697 80.4988 61.442 79.5123 61.442C78.5347 61.442 77.6707 61.9003 76.92 62.8123C76.1649 63.729 75.7896 65.0556 75.7896 66.8012ZM97.1354 71.8112C96.2801 72.5402 95.4552 73.0508 94.665 73.3518C93.8751 73.653 93.0287 73.8012 92.1207 73.8012C90.6281 73.8012 89.4803 73.4391 88.6772 72.7103C87.8743 71.9857 87.4727 71.0561 87.4727 69.9257C87.4727 69.2625 87.6255 68.6558 87.9266 68.1058C88.2322 67.5559 88.6293 67.1197 89.1181 66.7879C89.6113 66.4561 90.1611 66.2032 90.7765 66.0328C91.2304 65.9149 91.9157 65.8016 92.8277 65.6882C94.6869 65.47 96.0617 65.2038 96.9389 64.8981C96.9478 64.5841 96.9522 64.3831 96.9522 64.3003C96.9522 63.3664 96.734 62.7073 96.2975 62.3232C95.7082 61.8038 94.831 61.5465 93.67 61.5465C92.5833 61.5465 91.7804 61.7384 91.2654 62.1181C90.746 62.4979 90.3664 63.1698 90.1178 64.1387L87.8656 63.8245C88.0707 62.8601 88.4068 62.0789 88.8782 61.4855C89.3497 60.892 90.0303 60.4381 90.9207 60.1152C91.8066 59.7965 92.841 59.635 94.0107 59.635C95.1715 59.635 96.1186 59.7704 96.8473 60.0453C97.5719 60.3203 98.1086 60.6608 98.4491 61.0754C98.7896 61.49 99.0297 62.0137 99.1691 62.6465C99.2432 63.0392 99.2827 63.7462 99.2827 64.7632V67.8183C99.2827 69.9524 99.3307 71.3009 99.4268 71.8726C99.5185 72.4445 99.7103 72.99 99.9896 73.5136H97.5806C97.3494 73.0291 97.201 72.4617 97.1354 71.8112ZM96.9522 66.7051C96.1141 67.0454 94.8573 67.3336 93.1815 67.5693C92.2301 67.7045 91.558 67.8572 91.1652 68.0274C90.7727 68.1977 90.4714 68.4463 90.2577 68.7695C90.0437 69.0969 89.9346 69.4589 89.9346 69.8607C89.9346 70.4674 90.1658 70.978 90.6328 71.3839C91.0998 71.7898 91.7808 71.9948 92.6752 71.9948C93.5611 71.9948 94.3512 71.8027 95.045 71.4142C95.7345 71.0302 96.2453 70.502 96.5682 69.8342C96.817 69.3149 96.9391 68.5513 96.9391 67.543L96.9522 66.7051ZM102.796 73.5134V59.9231H104.865V62.0048C105.393 61.0403 105.881 60.4031 106.331 60.0978C106.781 59.7878 107.274 59.635 107.811 59.635C108.587 59.635 109.377 59.8795 110.18 60.364L109.36 62.4892C108.801 62.175 108.242 62.0177 107.684 62.0177C107.182 62.0177 106.732 62.1706 106.335 62.4716C105.938 62.7728 105.654 63.1917 105.484 63.7286C105.227 64.5446 105.1 65.4394 105.1 66.4125V73.5132L102.796 73.5134ZM116.543 71.4578L116.858 73.4915C116.212 73.6269 115.631 73.6966 115.125 73.6966C114.291 73.6966 113.646 73.5658 113.183 73.2996C112.725 73.0334 112.402 72.6886 112.214 72.2566C112.026 71.8244 111.935 70.9168 111.935 69.5334V61.7039H110.233V59.9233H111.935V56.5627L114.239 55.1793V59.9231H116.543V61.7037H114.239V69.6639C114.239 70.3231 114.278 70.7464 114.361 70.9341C114.44 71.1217 114.57 71.2701 114.754 71.3835C114.937 71.4926 115.199 71.5493 115.539 71.5493C115.793 71.5493 116.128 71.5189 116.543 71.4578ZM117.901 69.4546L120.179 69.088C120.305 70.0002 120.663 70.6984 121.248 71.1871C121.833 71.6716 122.654 71.9161 123.701 71.9161C124.761 71.9161 125.547 71.7021 126.062 71.2701C126.573 70.8426 126.83 70.3362 126.83 69.7557C126.83 69.2364 126.599 68.826 126.141 68.5293C125.818 68.3242 125.032 68.0667 123.784 67.748C122.099 67.3249 120.934 66.9581 120.28 66.6484C119.629 66.3342 119.136 65.9064 118.8 65.3566C118.464 64.811 118.294 64.2045 118.294 63.5411C118.294 62.9344 118.434 62.3757 118.709 61.8606C118.988 61.3458 119.363 60.9181 119.839 60.5778C120.197 60.316 120.686 60.0933 121.301 59.9101C121.921 59.7269 122.58 59.635 123.287 59.635C124.352 59.635 125.285 59.7878 126.088 60.0978C126.896 60.4033 127.489 60.8221 127.873 61.346C128.253 61.874 128.519 62.5767 128.663 63.4583L126.411 63.7725C126.311 63.0654 126.014 62.5113 125.525 62.1139C125.037 61.7169 124.347 61.5203 123.452 61.5203C122.401 61.5203 121.646 61.695 121.196 62.0442C120.747 62.3933 120.52 62.8036 120.52 63.2706C120.52 63.5674 120.612 63.8379 120.799 64.078C120.987 64.3223 121.279 64.5274 121.681 64.6889C121.912 64.7762 122.584 64.9728 123.71 65.278C125.333 65.7101 126.468 66.068 127.114 66.3431C127.76 66.618 128.266 67.0239 128.633 67.5474C129.004 68.0754 129.187 68.7301 129.187 69.5157C129.187 70.2796 128.964 70.9995 128.515 71.676C128.066 72.3526 127.42 72.8763 126.577 73.2472C125.731 73.618 124.775 73.8012 123.71 73.8012C121.947 73.8012 120.598 73.4348 119.673 72.706C118.748 71.9728 118.159 70.8903 117.901 69.4546Z" fill="#333333"/>
<path d="M146.039 51.5024C146.871 51.5024 147.623 51.8394 148.168 52.3842C148.713 52.929 149.05 53.6816 149.05 54.5132C149.05 55.3447 148.713 56.0973 148.168 56.6421C147.623 57.1871 146.871 57.5239 146.039 57.5239C145.208 57.5239 144.455 57.1869 143.91 56.6421C143.365 56.0973 143.028 55.3447 143.028 54.5132C143.028 53.6816 143.366 52.929 143.91 52.3842C144.455 51.8392 145.208 51.5024 146.039 51.5024ZM147.459 53.0939C147.096 52.7307 146.594 52.5061 146.039 52.5061C145.485 52.5061 144.983 52.7307 144.62 53.0939C144.257 53.457 144.032 53.9589 144.032 54.5133C144.032 55.0678 144.257 55.5697 144.62 55.9328C144.983 56.296 145.485 56.5208 146.039 56.5208C146.594 56.5208 147.096 56.296 147.459 55.9328C147.822 55.5697 148.046 55.0678 148.046 54.5133C148.046 53.9589 147.822 53.457 147.459 53.0939Z" fill="#333333"/>
<path d="M137.412 57.2622L139.796 55.9345C139.867 56.2417 139.959 56.5406 140.072 56.8292L139.625 57.175L138.207 57.9647L139.069 59.5122L140.49 58.7204L141.051 58.5128C141.248 58.7558 141.463 58.9843 141.692 59.1959C140.877 59.6496 140.062 60.1033 139.247 60.5577C139.09 60.6452 138.913 60.6609 138.754 60.6158C138.627 60.5788 138.511 60.5036 138.425 60.3952L138.403 60.373L137.161 58.1433C137.074 57.9868 137.058 57.8093 137.103 57.6509C137.149 57.4915 137.256 57.3493 137.412 57.2622ZM139.799 53.0831L137.409 51.6534C137.255 51.5613 137.152 51.4153 137.112 51.2549C137.072 51.0955 137.093 50.919 137.185 50.7648L138.456 48.6396C138.549 48.4854 138.695 48.3834 138.855 48.343C139.015 48.303 139.191 48.3242 139.345 48.4163L141.699 49.8246C141.469 50.036 141.254 50.2637 141.057 50.5067L140.527 50.2889L139.134 49.4558L138.225 50.9759L139.62 51.8107L140.076 52.1885C139.962 52.4768 139.87 52.7759 139.799 53.0831ZM144.158 48.4148L144.201 45.6109C144.204 45.4304 144.279 45.2682 144.399 45.1525C144.517 45.0386 144.68 44.9691 144.856 44.9716L147.333 45.0099C147.513 45.0127 147.675 45.0879 147.789 45.2057L147.791 45.2077C147.905 45.3257 147.974 45.4876 147.972 45.6654L147.929 48.4173C147.635 48.3267 147.331 48.2569 147.02 48.2095L146.942 47.6293L146.967 46.0042L145.195 45.9769L145.17 47.6055L145.067 48.2083C144.756 48.2554 144.452 48.3244 144.158 48.4148ZM150.386 49.8308C151.202 49.3771 152.017 48.9236 152.832 48.4689C152.989 48.3813 153.166 48.3658 153.324 48.4109C153.451 48.4479 153.568 48.5231 153.653 48.6315L153.675 48.6535L154.917 50.8834C155.005 51.0403 155.021 51.2173 154.975 51.376C154.929 51.5352 154.823 51.6774 154.666 51.7645L152.282 53.0924C152.212 52.785 152.119 52.4861 152.006 52.1974L152.454 51.8517L153.872 51.062L153.01 49.5144L151.588 50.3063L151.027 50.5141C150.83 50.2709 150.616 50.0426 150.386 49.8308ZM152.28 55.9437L154.67 57.3733C154.824 57.4657 154.926 57.6116 154.966 57.7718C155.006 57.9316 154.986 58.1077 154.893 58.2619L153.622 60.3871C153.53 60.5413 153.384 60.6431 153.223 60.6837C153.064 60.7237 152.887 60.7026 152.733 60.6104L150.379 59.2021C150.609 58.9907 150.824 58.7629 151.021 58.5201L151.551 58.7378L152.944 59.5709L153.854 58.0508L152.458 57.216L152.003 56.8381C152.116 56.5499 152.209 56.2508 152.28 55.9437ZM147.921 60.6121L147.878 63.4158C147.875 63.5965 147.799 63.7587 147.68 63.8742C147.561 63.9881 147.399 64.0576 147.222 64.055L144.746 64.0167C144.565 64.014 144.404 63.9392 144.289 63.821L144.287 63.819C144.173 63.7012 144.104 63.5393 144.106 63.3613L144.149 60.6096C144.444 60.7001 144.747 60.7698 145.058 60.8172L145.137 61.3974L145.112 63.0225L146.883 63.0498L146.908 61.4212L147.011 60.8183C147.322 60.7713 147.626 60.7023 147.921 60.6121Z" fill="#333333"/>
<path d="M146.95 47.6924C148.491 47.8951 149.872 48.605 150.919 49.6481C151.134 49.8623 151.335 50.0906 151.52 50.3313L150.529 50.6985C150.429 50.5806 150.323 50.4671 150.213 50.3578C149.381 49.5284 148.299 48.9456 147.09 48.7294L146.95 47.6924ZM152.019 51.0746C152.056 51.1386 152.093 51.2036 152.128 51.269L152.019 51.0746ZM152.418 51.8792C152.757 52.6908 152.943 53.5805 152.943 54.5134C152.943 55.4564 152.753 56.3554 152.407 57.1742L151.595 56.4998C151.818 55.8793 151.94 55.2105 151.94 54.5132C151.94 53.8125 151.817 53.1406 151.592 52.5178L152.418 51.8792ZM151.503 58.7179C151.322 58.9506 151.128 59.1712 150.919 59.3788C149.866 60.4283 148.474 61.1403 146.923 61.3382L147.1 60.2958C148.306 60.0779 149.383 59.4962 150.213 58.6693C150.326 58.5577 150.433 58.4414 150.536 58.3211L151.503 58.7179ZM145.128 61.3345C143.587 61.1318 142.206 60.4221 141.159 59.3788C140.944 59.1646 140.743 58.9363 140.558 58.6956L141.549 58.3288C141.65 58.4464 141.755 58.56 141.865 58.6693C142.698 59.4987 143.779 60.0814 144.988 60.2977L145.128 61.3345ZM140.059 57.9523C140.022 57.8883 139.986 57.8233 139.95 57.7581L140.059 57.9523ZM139.66 57.1477C139.322 56.3361 139.135 55.4463 139.135 54.5134C139.135 53.5705 139.326 52.6714 139.671 51.8529L140.483 52.5271C140.26 53.1476 140.138 53.8164 140.138 54.5136C140.138 55.2144 140.262 55.8863 140.487 56.5091L139.66 57.1477ZM140.575 50.309C140.756 50.0763 140.951 49.8557 141.159 49.6481C142.212 48.5986 143.604 47.8866 145.156 47.6887L144.978 48.7311C143.773 48.9489 142.695 49.5307 141.865 50.3576C141.753 50.4692 141.645 50.5855 141.542 50.706L140.575 50.309Z" fill="#333333"/>
</g>
</svg>
