<svg width="179" height="88" viewBox="0 0 179 88" fill="none" xmlns="http://www.w3.org/2000/svg">
<path d="M157.635 87.0003H0L21.2924 70.8594H178.928L157.635 87.0003Z" fill="#454D52"/>
<path d="M31.2406 35.9884C29.3082 36.5996 26.2664 40.6258 20.7197 40.6258C18.501 43.6096 15.996 45.5148 11.4154 43.3578C8.44529 41.9559 7.6938 34.0113 13.2764 31.2791C8.66001 24.8444 8.08745 16.8997 15.8887 19.2004C15.5666 14.3833 17.6421 10.0336 22.1869 10.2852C22.9026 1.40592 29.1651 -1.68566 35.7854 3.56283C37.503 4.92888 38.6482 7.87666 38.6482 9.20676C38.6482 10.8963 46.3778 8.66753 50.4574 12.2264C54.9305 16.1089 55.0737 20.8181 51.9603 22.7234C55.1452 27.0013 47.845 31.0994 41.511 31.9981C41.0459 36.7433 37.5388 36.3839 34.6045 34.6942C35.4275 38.1454 31.67 38.3251 31.2406 35.9884Z" fill="#454D52"/>
<path d="M29.4874 82.4347C28.5928 82.4347 27.7339 82.0753 27.0898 81.4641C26.7678 81.1406 26.5531 80.7811 26.3742 80.3857C26.052 79.5229 26.052 78.5522 26.3742 77.6895C26.5531 77.2941 26.7678 76.9346 27.0898 76.6111C27.4119 76.2876 27.7697 76.0718 28.1634 75.8921C28.5928 75.7124 29.058 75.6405 29.4874 75.6405C30.1673 75.6045 30.8115 75.8202 31.3841 76.1796C31.9208 76.5392 32.3145 77.0784 32.5292 77.6895H32.1356C31.9208 77.1863 31.563 76.7548 31.0977 76.4314C30.6326 76.1437 30.06 75.964 29.4874 75.9999C29.0938 75.9999 28.6643 76.0718 28.3065 76.2156C27.5908 76.5032 27.0182 77.0785 26.732 77.8333C26.4457 78.6241 26.4457 79.487 26.732 80.2418C27.0182 80.9608 27.5908 81.536 28.3065 81.8596C28.6643 82.0034 29.0938 82.1112 29.4874 82.0753C30.06 82.0753 30.5968 81.9315 31.0977 81.6438C31.563 81.3203 31.9567 80.8889 32.1714 80.3857H32.565C32.3503 80.9967 31.9208 81.536 31.3841 81.9315C30.8115 82.255 30.1316 82.4706 29.4874 82.4347Z" fill="white" stroke="white" stroke-width="0.25" stroke-miterlimit="10"/>
<path d="M38.8991 76.0704H36.1794V82.3255H35.7858V76.0704H33.1018V75.675H38.8991V76.0704Z" fill="white" stroke="white" stroke-width="0.25" stroke-miterlimit="10"/>
<path d="M43.6941 75.6034C44.1593 75.6034 44.6245 75.6753 45.054 75.855C45.4476 76.0347 45.8055 76.2505 46.0918 76.574C46.378 76.8975 46.6286 77.257 46.7717 77.6524C47.0937 78.5152 47.0937 79.4859 46.7717 80.3486C46.6286 80.744 46.378 81.1036 46.0918 81.427C45.8055 81.7506 45.4476 81.9663 45.054 82.146C44.6245 82.3257 44.1593 82.3976 43.6941 82.3976C43.05 82.3976 42.4416 82.2539 41.9049 81.8944C41.4038 81.5708 40.9744 81.1035 40.7239 80.5643V84.6265H40.3303V75.7112H40.6523L40.7239 77.4368C40.9744 76.8975 41.4038 76.4302 41.9049 76.0707C42.4058 75.7472 43.05 75.5675 43.6941 75.6034ZM43.6583 82.0741C44.0519 82.0741 44.4814 82.0022 44.8392 81.8585C45.1971 81.7146 45.5191 81.4989 45.7696 81.2114C46.0202 80.9237 46.2349 80.6002 46.378 80.2408C46.6643 79.4499 46.6643 78.5872 46.378 77.7963C46.2349 77.4368 46.0202 77.1133 45.7696 76.8256C45.5191 76.5381 45.1971 76.3224 44.8392 76.1786C44.4456 76.0347 44.0519 75.9628 43.6583 75.9628C43.2647 75.9628 42.8353 76.0347 42.4774 76.1786C42.1196 76.3224 41.7974 76.5381 41.547 76.8256C41.2607 77.1133 41.046 77.4368 40.9028 77.7963C40.6166 78.5872 40.6166 79.4499 40.9028 80.2048C41.046 80.5643 41.2607 80.8878 41.547 81.1754C41.8333 81.463 42.1553 81.6786 42.4774 81.8225C42.8353 82.0022 43.2647 82.0741 43.6583 82.0741Z" fill="white" stroke="white" stroke-width="0.25" stroke-miterlimit="10"/>
<path d="M54.9662 75.7117V82.3262H54.6083L54.5725 80.6007C54.3221 81.14 53.9284 81.6072 53.3917 81.9668C52.8548 82.3262 52.2107 82.5059 51.5665 82.47C51.1014 82.47 50.6719 82.3981 50.2425 82.2184C49.4195 81.8949 48.7753 81.2478 48.4532 80.421C48.1312 79.5582 48.1312 78.5875 48.4532 77.6888C48.6322 77.2935 48.8469 76.9339 49.1689 76.6104C49.491 76.2869 49.8488 76.0712 50.2425 75.8914C50.6719 75.7117 51.1372 75.6398 51.5665 75.6398C52.2107 75.6398 52.8548 75.7836 53.3917 76.143C53.8926 76.4666 54.3221 76.9339 54.5725 77.5091L54.6441 75.7836L54.9662 75.7117ZM51.6023 82.0746C51.996 82.0746 52.4255 82.0027 52.7833 81.859C53.1411 81.7151 53.4632 81.4994 53.7137 81.2119C53.9642 80.9242 54.1789 80.6007 54.3221 80.2412C54.6083 79.4504 54.6083 78.5875 54.3221 77.7967C54.1789 77.4372 53.9642 77.1137 53.7137 76.8261C53.4632 76.5385 53.1411 76.3229 52.7833 76.179C52.3896 76.0352 51.996 75.9633 51.6023 75.9633C51.2087 75.9633 50.815 76.0352 50.4214 76.179C49.7057 76.4666 49.1331 77.0778 48.8469 77.7967C48.5606 78.5875 48.5606 79.4504 48.8469 80.2052C49.3121 81.3556 50.3857 82.0746 51.6023 82.0746Z" fill="white" stroke="white" stroke-width="0.25" stroke-miterlimit="10"/>
<path d="M61.5152 82.3265L59.1534 79.1271L56.7916 82.3265H56.3264L58.9029 78.8755L56.5769 75.748H57.0421L59.1534 78.6239L61.3006 75.748H61.73L59.404 78.8755L61.9805 82.3626H61.5152V82.3265Z" fill="white" stroke="white" stroke-width="0.25" stroke-miterlimit="10"/>
<path d="M65.9526 82.4347C65.4873 82.4347 65.0222 82.3628 64.5927 82.1831C64.1991 82.0034 63.8412 81.7877 63.5192 81.4641C63.1971 81.1406 62.9823 80.7811 62.8034 80.3857C62.6245 79.9543 62.553 79.487 62.553 79.0196C62.553 78.5524 62.6245 78.085 62.8034 77.6537C62.9823 77.2582 63.1971 76.8987 63.5192 76.5751C63.8412 76.2516 64.1991 76.0359 64.5927 75.8562C65.0222 75.6764 65.4873 75.6046 65.9526 75.6046C66.4178 75.6046 66.883 75.6764 67.3124 75.8562C67.706 76.0359 68.0639 76.2516 68.386 76.5751C68.7081 76.8987 68.9228 77.2582 69.1017 77.6537C69.4595 78.5164 69.4595 79.487 69.1017 80.3498C68.7797 81.1766 68.1355 81.8237 67.3124 82.1472C66.883 82.3628 66.4178 82.4347 65.9526 82.4347ZM65.9526 82.0753C66.382 82.0753 66.7756 82.0034 67.1693 81.8596C67.5271 81.7158 67.8491 81.5001 68.1355 81.2125C68.4217 80.925 68.6364 80.6014 68.7797 80.2419C69.1017 79.4511 69.1017 78.5883 68.7797 77.7974C68.6364 77.4379 68.4217 77.1144 68.1355 76.8267C67.8491 76.5392 67.5271 76.3235 67.1693 76.1798C66.382 75.8562 65.5231 75.8562 64.7358 76.1798C64.378 76.3235 64.056 76.5392 63.7696 76.8267C63.4834 77.1144 63.2687 77.4379 63.1255 77.7974C62.8034 78.5883 62.8034 79.4511 63.1255 80.2419C63.4118 80.9609 63.9844 81.536 64.7 81.8237C65.1295 82.0034 65.559 82.0753 65.9526 82.0753Z" fill="white" stroke="white" stroke-width="0.25" stroke-miterlimit="10"/>
<path d="M74.8988 78.8388C75.2566 78.9467 75.6146 79.1623 75.8292 79.4499C76.0797 79.7375 76.187 80.1329 76.187 80.5284C76.187 80.78 76.1513 81.0316 76.0439 81.2474C75.9366 81.463 75.7935 81.6787 75.6146 81.8225C75.4355 81.9664 75.2209 82.1101 75.0062 82.182C74.7557 82.2899 74.5051 82.3258 74.2189 82.3258H71.2129V75.7472H74.2547C74.7199 75.7113 75.1493 75.891 75.5072 76.1786C75.8292 76.4662 76.0081 76.8975 76.0081 77.329C76.0081 77.6525 75.9008 78.012 75.7219 78.2636C75.5072 78.5512 75.2209 78.7309 74.8988 78.8388ZM75.6146 77.3649C75.6146 77.0054 75.5072 76.6819 75.2209 76.4303C74.9346 76.1786 74.5767 76.0707 74.1831 76.0707H71.5708V78.623H74.1831C74.5409 78.623 74.9346 78.5152 75.2209 78.2636C75.4713 78.048 75.6146 77.7244 75.6146 77.3649ZM74.2189 81.9304C74.6483 81.9304 75.042 81.7865 75.364 81.5349C75.9366 80.9957 75.9724 80.097 75.4355 79.4858C75.3998 79.4499 75.3998 79.4499 75.364 79.4139C75.042 79.1264 74.6483 78.9826 74.2189 79.0185H71.6066V81.9304H74.2189Z" fill="white" stroke="white" stroke-width="0.25" stroke-miterlimit="10"/>
<path d="M84.3102 75.7117V82.3262H83.9524L83.9166 80.6007C83.666 81.14 83.2724 81.6432 82.7356 81.9668C82.1988 82.3262 81.5547 82.5059 80.9106 82.47C80.4453 82.47 80.016 82.3981 79.5865 82.2184C79.1929 82.0387 78.835 81.8229 78.513 81.4994C78.1908 81.1759 77.9761 80.8164 77.7972 80.421C77.4393 79.5582 77.4393 78.5516 77.7972 77.6888C78.1193 76.862 78.7634 76.2149 79.5865 75.8914C80.016 75.7117 80.4453 75.6398 80.9106 75.6398C81.5547 75.6398 82.1988 75.7836 82.7356 76.143C83.2366 76.4666 83.666 76.9339 83.9166 77.5091L83.9881 75.7836L84.3102 75.7117ZM80.9106 82.0746C81.3042 82.0746 81.7336 82.0027 82.0914 81.859C82.4494 81.7151 82.7714 81.4994 83.0218 81.2119C83.2724 80.9242 83.4871 80.6007 83.6302 80.2412C83.9166 79.4504 83.9166 78.5875 83.6302 77.7967C83.4871 77.4372 83.2724 77.1137 83.0218 76.8261C82.7714 76.5385 82.4494 76.3229 82.0914 76.179C81.6979 76.0352 81.3042 75.9633 80.9106 75.9633C80.5169 75.9633 80.1233 76.0352 79.7296 76.179C79.0139 76.4666 78.4414 77.0778 78.155 77.7967C77.8688 78.5875 77.8688 79.4504 78.155 80.2052C78.6203 81.3556 79.6938 82.0746 80.9106 82.0746Z" fill="white" stroke="white" stroke-width="0.25" stroke-miterlimit="10"/>
<path d="M91.718 79.0549H90.5014V82.3262H90.1077V75.7117H90.5014V78.6954H91.7538L94.3304 75.7117H94.8313L92.0759 78.8752L95.0461 82.3262H94.5451L91.718 79.0549Z" fill="white" stroke="white" stroke-width="0.25" stroke-miterlimit="10"/>
<path d="M98.9825 82.4347C98.5172 82.4347 98.0521 82.3628 97.6226 82.1831C96.7995 81.8596 96.1554 81.2125 95.8334 80.3857C95.6545 79.9543 95.5471 79.487 95.5471 79.0196C95.5471 78.5524 95.6187 78.085 95.7976 77.6537C95.9765 77.2582 96.1912 76.8987 96.5133 76.5751C96.8353 76.2516 97.1932 76.0359 97.5868 75.8562C98.0163 75.6764 98.4814 75.6046 98.9467 75.6046C99.4118 75.6046 99.8771 75.6764 100.306 75.8562C101.13 76.1798 101.774 76.8267 102.096 77.6537C102.454 78.5164 102.454 79.487 102.096 80.3498C101.917 80.7451 101.702 81.1047 101.38 81.4282C101.058 81.7518 100.7 81.9675 100.306 82.1472C99.8771 82.3628 99.4476 82.4347 98.9825 82.4347ZM98.9825 82.0753C99.4118 82.0753 99.8056 82.0034 100.199 81.8596C100.915 81.572 101.487 80.9969 101.809 80.2779C102.132 79.487 102.132 78.6243 101.809 77.8334C101.523 77.1144 100.951 76.5392 100.199 76.2516C99.8056 76.1079 99.4118 75.9999 98.9825 76.0359C98.553 76.0359 98.1594 76.1079 97.7657 76.2516C97.4079 76.3954 97.0858 76.6111 96.7995 76.8987C96.5133 77.1863 96.2986 77.5098 96.1554 77.8693C95.8334 78.6602 95.8334 79.523 96.1554 80.3138C96.4417 81.0328 97.0142 81.6079 97.7657 81.8956C98.1594 82.0034 98.553 82.0753 98.9825 82.0753Z" fill="white" stroke="white" stroke-width="0.25" stroke-miterlimit="10"/>
<path d="M111.615 82.3262L110.327 76.4307L107.822 82.0387H107.714L105.209 76.4307L103.957 82.3262H103.563L104.959 75.7117H105.281L107.822 81.3556L110.327 75.7117H110.648L112.044 82.3262H111.615Z" fill="white" stroke="white" stroke-width="0.25" stroke-miterlimit="10"/>
<path d="M119.023 75.7117V82.3262H118.629V76.0712H114.155V82.3262H113.762V75.7117H119.023Z" fill="white" stroke="white" stroke-width="0.25" stroke-miterlimit="10"/>
<path d="M127.575 75.7117V82.3262H127.217L127.181 80.6007C126.931 81.14 126.502 81.6432 126 81.9668C125.463 82.3262 124.819 82.5059 124.176 82.47C123.71 82.47 123.28 82.3981 122.851 82.2184C122.028 81.8949 121.42 81.2478 121.062 80.421C120.74 79.5582 120.74 78.5875 121.062 77.6888C121.241 77.2935 121.456 76.9339 121.778 76.6104C122.1 76.2869 122.458 76.0712 122.851 75.8914C123.28 75.7117 123.746 75.6398 124.176 75.6398C124.819 75.6398 125.463 75.7836 126 76.143C126.502 76.4666 126.931 76.9339 127.181 77.5091L127.253 75.7836L127.575 75.7117ZM124.211 82.0746C124.605 82.0746 125.034 82.0027 125.392 81.859C125.75 81.7151 126.072 81.4994 126.323 81.2119C126.573 80.9242 126.788 80.6007 126.931 80.2412C127.217 79.4504 127.217 78.5875 126.931 77.7967C126.788 77.4372 126.573 77.1137 126.323 76.8261C126.072 76.5385 125.75 76.3229 125.392 76.179C124.998 76.0352 124.605 75.9633 124.211 75.9633C123.818 75.9633 123.424 76.0352 123.03 76.179C122.672 76.3229 122.351 76.5385 122.1 76.8261C121.814 77.1137 121.599 77.4372 121.456 77.7967C121.17 78.5875 121.17 79.4504 121.456 80.2052C121.599 80.5648 121.814 80.8883 122.1 81.1759C122.351 81.4635 122.672 81.6791 123.03 81.823C123.388 82.0027 123.782 82.0746 124.211 82.0746Z" fill="white" stroke="white" stroke-width="0.25" stroke-miterlimit="10"/>
<path d="M135.197 75.7117V82.3262H134.803V79.0909H130.331V82.3262H129.937V75.7117H130.331V78.6954H134.803V75.7117H135.197Z" fill="white" stroke="white" stroke-width="0.25" stroke-miterlimit="10"/>
<path d="M137.523 73.5544H138.096V74.2375H137.523V73.5544ZM137.596 75.7114H137.989V82.3259H137.596V75.7114Z" fill="white" stroke="white" stroke-width="0.25" stroke-miterlimit="10"/>
<path d="M144.644 75.7117V82.2903H144.251V79.5222H141.997L140.172 82.2903H139.742L141.603 79.4863C141.137 79.4503 140.708 79.2346 140.35 78.8752C140.028 78.5157 139.849 78.0843 139.885 77.617C139.885 77.3654 139.921 77.0777 140.028 76.862C140.135 76.6464 140.243 76.4307 140.422 76.2509C140.601 76.0712 140.816 75.9274 141.066 75.8555C141.316 75.7477 141.603 75.7117 141.889 75.7117H144.644ZM144.251 79.1628V76.1071H141.925C141.495 76.0712 141.066 76.2509 140.708 76.5385C140.1 77.1496 140.1 78.1562 140.708 78.7673C141.03 79.0549 141.424 79.1987 141.853 79.1987L144.251 79.1628Z" fill="white" stroke="white" stroke-width="0.25" stroke-miterlimit="10"/>
<path d="M70.712 38.8284L67.7777 41.5245V61.4041L70.4258 63.6689H60.4773L63.4833 61.4041V48.3908L56.6484 65.2506H54.5728L54.3939 64.7114H56.2547L63.4476 46.7012V43.7534L55.4674 63.6329H53.9644L48.0599 48.0313V58.2766C48.0599 59.6426 48.1672 60.6132 48.3461 61.1884C48.6682 61.9074 49.1692 62.5545 49.7776 63.0577L51.7099 65.2506H40.4375L40.0439 64.7114H50.6006L49.8133 63.6329H40.2228L40.6881 63.4173C42.2627 62.6264 43.3362 61.8355 43.8372 61.0447C44.3382 60.2538 44.5886 58.9596 44.5886 57.2341V41.237L41.7616 38.8284H52.8909L49.7776 41.3448L55.8611 57.5576L56.6484 55.868L51.1374 41.5245L53.9644 39.6553L54.4297 39.9787L51.7457 41.6684L56.8631 55.149L62.4098 41.3448L59.7975 38.8284H70.712ZM46.3064 43.3939V57.27C46.3064 59.391 46.5211 60.8649 46.9862 61.6558C47.4515 62.4467 48.3819 63.0218 49.8133 63.3813L49.6344 63.0937C48.2746 62.3028 47.4873 60.8649 47.5231 59.3191V46.4496L46.3064 43.3939ZM71.893 40.3383L69.4596 41.92V61.4041L73.217 65.2506H61.7657L61.4794 64.7114H71.893L68.887 61.6558V41.5605L71.4277 39.9787L71.893 40.3383ZM73.9327 38.8284H84.1315L81.2329 41.4527V61.5838L83.9526 63.6329H73.9327L76.9029 61.44V41.2729L73.9327 38.8284ZM85.1335 39.9069L82.9507 41.8481V61.5479L86.5649 65.1787H75.3641L74.8273 64.6395H85.2767L82.3065 61.7636V41.6684L84.7399 39.5115L85.1335 39.9069ZM110.04 39.4036L109.79 39.7631C108.537 41.7044 107.428 43.7534 106.426 45.8384L106.247 46.2698L105.961 46.126C105.639 44.1489 104.851 42.6031 103.67 41.4527C102.489 40.3023 100.915 39.6912 99.3046 39.7271C97.5511 39.6912 95.8692 40.4821 94.7241 41.8841C93.1853 43.6815 92.4338 46.6652 92.4338 50.9431C92.4338 54.6099 93.1495 57.4857 94.5451 59.5708C95.8334 61.5838 98.0521 62.7702 100.45 62.6983C102.454 62.6983 104.064 62.0871 105.281 60.9009C106.462 59.7145 107.177 57.989 107.428 55.7242C107.499 55.185 107.714 54.8974 108.144 54.8974C108.716 54.8974 108.967 55.3289 108.967 56.1557C108.931 57.5216 108.609 58.8518 108.036 60.0381C106.712 62.878 103.957 64.28 99.7698 64.28C96.0481 64.28 93.0779 63.0937 90.8593 60.757C88.6763 58.4204 87.5669 55.221 87.5669 51.1948C87.5669 47.4921 88.7122 44.4005 91.0024 41.8841C93.1494 39.4396 96.2628 38.0735 99.4835 38.1095C101.344 38.1454 103.205 38.5409 104.959 39.1879C105.817 39.5115 106.712 39.6912 107.643 39.7631C108.358 39.7631 109.074 39.5834 109.683 39.1879L110.04 39.4036ZM110.827 56.0478C110.577 59.2473 109.611 61.6918 107.857 63.3454C106.104 64.999 103.635 65.8618 100.486 65.8618C98.0879 65.8618 95.7618 65.1787 93.7578 63.8486V63.7048C95.5829 64.7832 97.8016 65.3225 100.414 65.3225C103.241 65.3225 105.567 64.4957 107.356 62.878C108.179 62.1231 108.859 61.2244 109.289 60.1819C109.754 58.9237 110.04 57.5936 110.112 56.2276L110.148 55.7961L110.827 56.0478ZM103.814 42.7468C102.525 41.8122 101.273 41.3448 100.092 41.3448C96.3702 41.3448 94.5093 44.5442 94.5093 50.9071C94.5093 53.819 94.9388 56.2276 95.7976 58.1687C96.6565 60.11 97.8731 61.3322 99.4477 61.9074V62.0871C97.7658 61.7636 96.406 60.6132 95.4039 58.5642C94.402 56.5151 93.9009 53.9628 93.9009 50.8353C93.9009 44.1848 95.9408 40.8416 100.02 40.8416C101.452 40.8776 102.812 41.4526 103.814 42.4952V42.7468ZM111.614 40.3383L111.364 40.6977C109.969 42.7828 108.716 44.9757 107.607 47.2405L107.034 46.9887L107.285 46.5215C108 45.1554 108.645 44.041 109.181 43.1422L110.899 40.4102L111.114 40.0507L111.614 40.3383ZM137.094 38.7925C136.95 39.0082 136.879 39.1519 136.844 39.2239L135.376 41.5605C134.804 42.5312 134.338 43.5737 133.98 44.6521L133.945 44.7599L133.73 44.6161L133.659 44.3645C133.23 42.8906 132.657 41.8841 131.87 41.3089C131.082 40.7337 129.901 40.4461 128.362 40.4461C127.719 40.4461 127.075 40.4821 126.43 40.518H126.18V61.476L128.72 63.597H118.915L121.921 61.3322V42.0997L120.383 42.0638C118.915 42.0638 117.842 42.3154 117.233 42.8547C116.589 43.3939 116.231 44.2926 116.124 45.6228H115.551C115.73 44.1129 116.159 43.0703 116.84 42.4593C117.519 41.8481 118.736 41.5605 120.346 41.5605L121.635 41.5964H121.885V40.6618C121.205 40.5899 120.489 40.5539 119.81 40.5539C117.948 40.5539 116.625 40.8776 115.801 41.5605C114.978 42.2435 114.549 43.3939 114.442 45.0116H114.155C113.404 42.9266 112.437 40.9135 111.293 39.0082L111.15 38.8284L137.094 38.7925ZM132.693 43.0344C131.512 42.3873 130.187 42.0279 128.827 42.0638C128.469 42.0638 128.148 42.0997 127.79 42.1357L127.861 61.5838L131.297 65.2147H120.275L119.774 64.6754H130.08L127.181 61.7277V41.5605H128.362C129.758 41.5605 130.724 41.6684 131.333 41.8481C131.941 42.0638 132.406 42.4952 132.693 43.0344ZM138.454 40.0147C137.452 41.1651 136.414 43.0344 135.34 45.6587L135.269 45.8384L134.804 45.4789L134.875 45.2992C135.949 42.639 136.95 40.7696 137.952 39.7271L138.06 39.6193L138.454 40.0147ZM150.657 38.5409C154.128 38.5409 156.919 39.7271 159.03 42.0997C161.105 44.4724 162.18 47.6358 162.18 51.6261C162.18 55.3648 161.142 58.3845 159.102 60.6132C157.027 62.8421 154.271 63.9564 150.799 63.9564C148.152 63.9925 145.611 63.1656 143.463 61.5838C140.314 59.2473 138.74 55.8321 138.74 51.2667C138.74 47.3842 139.814 44.2567 141.961 41.9919C144.108 39.7271 147.006 38.5768 150.657 38.5409ZM150.657 40.2305C145.79 40.2305 143.392 44.077 143.392 51.734C143.392 58.8158 145.79 62.3387 150.549 62.3387C152.625 62.4107 154.593 61.3322 155.631 59.5348C156.812 57.6655 157.385 54.8974 157.385 51.3026C157.385 47.2044 156.812 44.3645 155.702 42.7468C154.521 41.0573 152.84 40.2305 150.657 40.2305ZM157.527 39.5474C159.603 40.4821 161.321 42.0638 162.394 44.1129C163.611 46.4136 164.219 48.966 164.183 51.5902C164.183 55.7602 163.003 59.1034 160.676 61.6558C158.351 64.2081 155.237 65.5022 151.444 65.5022C148.975 65.5022 146.577 64.7114 144.609 63.2735V63.1656C146.398 64.3519 148.617 64.9271 151.301 64.9271C154.915 64.9271 157.849 63.7048 160.176 61.2603C162.502 58.8158 163.646 55.7242 163.646 51.9137C163.719 49.3613 163.182 46.845 162.072 44.5083C161.105 42.4952 159.532 40.8416 157.599 39.7631V39.5474H157.527ZM155.273 43.1422L154.915 42.9625C153.734 42.3154 152.446 41.9919 151.122 41.92C147.364 41.92 145.467 45.2632 145.467 51.9137C145.467 56.8028 146.648 60.0381 148.975 61.6199L148.796 61.7996C147.436 60.9728 146.362 59.7145 145.719 58.2047C145.11 56.7308 144.788 54.6818 144.788 52.1654C144.788 45.0116 146.9 41.4167 151.086 41.4167C152.982 41.4167 154.379 41.9919 155.273 43.1422Z" fill="#454D52"/>
<path d="M35.2131 34.4786H30.7756V72.0448H35.2131V34.4786Z" fill="#454D52"/>
</svg>
