<svg width="180" height="59" viewBox="0 0 180 59" fill="none" xmlns="http://www.w3.org/2000/svg">
<path d="M49.6843 22.4045C49.6843 9.70405 59.2505 1.03723 71.6239 1.03723C80.6995 1.03723 85.9596 5.99749 88.8485 11.1213L81.2991 14.8551C79.5821 11.5028 75.8756 8.85917 71.5967 8.85917C64.129 8.85917 58.6782 14.6098 58.6782 22.4317C58.6782 30.2264 64.1018 36.0043 71.5967 36.0043C75.8483 36.0043 79.5549 33.4151 81.2991 30.0084L88.8485 33.6604C85.8778 38.8115 80.6995 43.8262 71.6239 43.8262C59.2505 43.7717 49.6843 35.1049 49.6843 22.4045Z" fill="#333333"/>
<path d="M95.9619 37.2035L101.467 30.4989C104.82 33.5514 110.025 36.086 116.593 36.086C122.153 36.086 124.879 33.8512 124.879 31.5073C124.879 24.176 97.4882 29.218 97.4882 13.6559C97.4882 6.76056 104.329 1.06445 115.53 1.06445C123.08 1.06445 129.375 3.054 134.09 6.84233L128.449 13.3016C124.606 10.1946 119.455 8.77737 114.604 8.77737C110.243 8.77737 107.817 10.4399 107.817 12.92C107.817 19.4883 135.153 15.1003 135.153 30.5262C135.153 38.1028 128.939 43.799 116.103 43.799C106.945 43.7717 100.404 41.1008 95.9619 37.2035Z" fill="#333333"/>
<path d="M142.267 42.6269V1.96375H158.156C170.774 1.96375 179.55 10.0582 179.55 22.3226C179.55 34.587 170.802 42.6269 158.156 42.6269H142.267ZM170.774 22.3226C170.774 15.1275 166.414 9.5949 158.156 9.5949H150.852V35.023H158.156C166.114 34.9958 170.774 29.2179 170.774 22.3226Z" fill="#333333"/>
<path d="M42.7345 22.3776C42.7345 22.6501 42.7345 22.9226 42.7072 23.1952C42.7072 23.2497 42.7072 23.3042 42.7072 23.3587C42.68 24.0673 42.5982 24.7759 42.5165 25.4573C42.5165 25.4845 42.5165 25.4845 42.5165 25.5118C42.5165 25.5935 42.4892 25.6481 42.4892 25.7298C42.4892 25.7571 42.4892 25.7571 42.4892 25.7843C42.3257 26.82 42.0804 27.8556 41.7534 28.8368C41.7261 28.8913 41.7261 28.9458 41.6988 29.0003C41.4263 29.8724 41.072 30.7173 40.6904 31.5077C40.6632 31.5622 40.6359 31.6167 40.6087 31.6985C40.1454 32.6524 39.6003 33.579 39.0007 34.4784C38.7826 34.8055 38.5374 35.1597 38.2648 35.4595C37.4199 36.5497 36.4933 37.5309 35.4576 38.4303C35.4031 38.4848 35.3214 38.5393 35.2669 38.5938C34.6945 39.0843 34.0677 39.5749 33.4408 40.011C33.3863 40.0382 33.3591 40.0655 33.3046 40.0927C33.141 40.2018 32.9775 40.3108 32.814 40.4198C32.7595 40.4471 32.705 40.4743 32.6505 40.5016C32.2144 40.7741 31.7783 41.0194 31.3423 41.2374C31.2605 41.2919 31.1787 41.3192 31.097 41.3737C28.1808 42.8727 24.883 43.7175 21.3673 43.7175C21.0947 43.7175 20.8494 43.7176 20.5769 43.6903C20.4951 43.6903 20.4406 43.6903 20.3588 43.6903C19.623 43.663 18.8871 43.5813 18.1513 43.4723C18.0968 43.4723 18.0422 43.445 17.9877 43.445C16.2162 43.1725 14.5265 42.6546 12.9185 41.9733C12.8367 41.946 12.7549 41.8915 12.6459 41.8643C11.3377 41.2919 10.1113 40.5833 8.96662 39.7657C8.88485 39.7112 8.80309 39.6567 8.74858 39.6022C6.43198 37.9124 4.46968 35.7593 2.99796 33.2792C2.94345 33.1974 2.91619 33.1429 2.86169 33.0612C1.98955 31.5895 1.3082 29.9815 0.84488 28.319C0.817626 28.2645 0.817627 28.2099 0.790373 28.1554C0.545085 27.3106 0.354305 26.4384 0.218034 25.539C0.218034 25.5118 0.218034 25.4845 0.218034 25.4845C0.218034 25.43 0.190778 25.3483 0.190778 25.2938C0.190778 25.2665 0.190778 25.2392 0.190778 25.2392C0.0545075 24.3126 0 23.3587 0 22.4048C0 22.2685 0 22.1323 0 21.996C0 21.9415 0 21.887 0 21.8052C0.0272541 21.2601 0.0545108 20.7151 0.109019 20.17V20.1427C0.109019 20.061 0.136271 19.9792 0.136271 19.8974V19.8702C0.32705 18.3712 0.654101 16.8995 1.11742 15.5095C1.14468 15.455 1.14468 15.4005 1.17193 15.346C1.608 14.1196 2.15308 12.9204 2.77992 11.8029C2.80718 11.7484 2.83443 11.6939 2.86169 11.6667C4.03361 9.67713 5.50534 7.87836 7.22235 6.37938C7.30411 6.32487 7.35862 6.2431 7.44038 6.18859C9.15739 4.71687 11.0924 3.51769 13.2183 2.64556C13.3 2.6183 13.3818 2.5638 13.4636 2.53654C14.6082 2.07322 15.8074 1.71892 17.0338 1.47363C17.0884 1.47363 17.1429 1.44638 17.1974 1.44638C18.2875 1.22834 19.4322 1.09207 20.5769 1.06482C20.6859 1.06482 20.7677 1.06482 20.8767 1.06482C21.0129 1.06482 21.1765 1.06482 21.3127 1.06482C24.0109 1.06482 26.5728 1.55539 28.9439 2.48203C29.0257 2.50928 29.1074 2.53654 29.1892 2.5638C31.6148 3.51769 33.8224 4.93491 35.7302 6.65192C35.7847 6.70643 35.8392 6.73368 35.8937 6.78819C36.9566 7.79659 37.9378 8.88675 38.7826 10.1132C38.8099 10.1677 38.8644 10.2222 38.8917 10.2767C40.0636 11.9665 40.9902 13.847 41.6443 15.8638C41.6716 15.9183 41.6716 15.9728 41.6988 16.0273C42.0804 17.1993 42.3257 18.3984 42.4892 19.6521C42.4892 19.6794 42.4892 19.6794 42.4892 19.7067C42.4892 19.7884 42.5165 19.8702 42.5165 19.9247C42.5165 19.9519 42.5165 19.9519 42.5165 19.9792C42.68 20.7151 42.7345 21.5599 42.7345 22.3776Z" fill="#C4CED3"/>
<path d="M0 21.9682L1.36271 22.6768L1.58074 22.7858H1.608L1.55349 22.8676L0.190778 25.2387C0.190778 25.2932 0.218034 25.375 0.218034 25.4295C0.218034 25.4567 0.218034 25.484 0.218034 25.484L1.71701 22.8948L1.77152 22.7858C1.77152 22.7858 1.79878 22.7586 1.79878 22.7313V22.7041V22.6768L1.77152 22.6495L1.74427 22.6223L1.68976 22.595L1.55349 22.5133H1.52623L1.38996 22.4315L0.0272558 21.7229C1.66334e-06 21.8319 0 21.8864 0 21.9682Z" fill="white"/>
<path d="M1.82603 22.7858V22.7584L1.79878 22.704L1.77152 22.6495L1.58074 22.3497L0.163527 19.8969C0.163527 19.9786 0.136271 20.0603 0.136271 20.142V20.1693L1.44447 22.4314L1.52623 22.5949L1.38996 22.5132L0.0272558 21.7773C0.0272558 21.8318 0.0272558 21.8864 0.0272558 21.9682L1.38996 22.6768L1.608 22.7858H1.63525L1.71701 22.813H1.74427C1.77152 22.813 1.79878 22.813 1.79878 22.7858C1.82603 22.8403 1.82603 22.813 1.82603 22.7858Z" fill="white"/>
<path d="M4.68771 25.9749L4.60595 25.7841L4.52419 25.6478L4.49693 25.5933V25.6206V25.6478V25.6751V25.7568L4.46968 25.8931L4.55144 26.0566L11.1742 39.2749C11.2287 39.2476 11.2832 39.2204 11.3377 39.2204L4.68771 25.9749ZM11.5558 39.6837L11.5285 39.6292L11.5012 39.6019L11.474 39.5747L11.3105 39.2204L4.68771 25.9749L4.60595 25.7841L4.52419 25.6478L4.49693 25.5933C4.49693 25.5933 4.49694 25.5933 4.46968 25.566C4.44243 25.566 4.41517 25.566 4.41517 25.566C4.41517 25.566 4.41517 25.566 4.38792 25.566C4.38792 25.566 4.38792 25.566 4.38792 25.5933C4.38792 25.5933 4.38792 25.5933 4.38792 25.6206V25.6478L4.36066 25.8113L4.33341 26.0021L2.9707 33.0882C3.02521 33.1699 3.05247 33.2245 3.10697 33.3062L4.49693 26.0294L4.52419 25.8658L4.60595 26.0294L11.2287 39.2476L11.4195 39.6292H8.8576C8.93936 39.6837 9.02112 39.7382 9.07563 39.7927H11.5558C11.583 39.7927 11.6103 39.7654 11.6103 39.7654C11.5558 39.7382 11.5558 39.7109 11.5558 39.6837Z" fill="white"/>
<path d="M12.9185 20.5785C12.9185 20.5512 12.8912 20.5512 12.8912 20.5512C12.8912 20.5512 12.864 20.5512 12.8367 20.5512H12.8095H12.7822H12.7277L12.5369 20.5785L2.07132 22.6225H2.01681L1.77152 22.677H1.74427H1.68976H1.66251H1.63525V22.7043C1.63525 22.7315 1.63525 22.7315 1.63525 22.7588C1.63525 22.7588 1.63525 22.7588 1.63525 22.7861L1.71702 22.8678L1.74427 22.8951L3.10698 24.3123L3.89735 25.1299L4.30616 25.5387L4.33342 25.566H4.36067L4.38792 25.5932H4.41518C4.44243 25.5932 4.44243 25.5932 4.46969 25.5932L4.49694 25.566L4.52419 25.5387L4.5787 25.5115L4.98751 25.2662L12.6459 20.7147L12.7822 20.633L12.8367 20.6057L12.8912 20.5785L12.9185 20.5512V20.524C12.9185 20.524 12.9185 20.524 12.9185 20.4967V20.5785ZM4.93301 25.1844L4.41518 25.4842L3.97911 25.0209L1.9078 22.8678L1.88054 22.8406L1.9623 22.8133L12.4006 20.7692L4.93301 25.1844Z" fill="white"/>
<path d="M4.90592 25.7567C4.87867 25.8112 4.85142 25.8385 4.79691 25.893L15.9711 31.1803V31.1531C15.9711 31.0985 15.9984 31.0713 16.0256 31.044L4.90592 25.7567ZM16.3799 31.1803L16.3254 31.1531L16.2709 31.1258L16.2164 31.0985L16.0256 31.0168L4.90592 25.7567L4.57887 25.5932L4.4426 25.5387C4.41535 25.5387 4.3881 25.5387 4.3881 25.5387C4.3881 25.5387 4.38809 25.5387 4.36084 25.5387C4.36084 25.5387 4.36084 25.5387 4.36084 25.566C4.36084 25.566 4.36084 25.566 4.36084 25.5932V25.6205L4.3881 25.7022L4.4426 25.8385L4.52437 26.002L11.1471 39.2203L11.3379 39.6018L11.3924 39.7109C11.3924 39.7381 11.4197 39.7381 11.4469 39.7381C11.4469 39.7381 11.4469 39.7381 11.4742 39.7381C11.5014 39.7381 11.5287 39.7109 11.5287 39.7109L11.6922 39.4383L11.7467 39.3565L16.2436 31.5619L16.4072 31.2893L16.4344 31.2621C16.4344 31.2621 16.4344 31.2348 16.4617 31.2348C16.4617 31.2076 16.4617 31.2076 16.4617 31.1803C16.4072 31.2076 16.4072 31.1803 16.3799 31.1803ZM11.3106 39.193L4.68789 25.9748L4.60613 25.784L4.79691 25.8657L15.9711 31.1531L16.2436 31.2893L16.1074 31.5346L11.6377 39.2748L11.4742 39.5473L11.3106 39.193Z" fill="white"/>
<path d="M4.49703 25.5659C4.49703 25.5386 4.49704 25.5386 4.46978 25.5386L4.44253 25.5114L4.00646 25.048L1.93515 22.895L1.90789 22.8677L1.88064 22.8405V22.8132L1.82613 22.7587C1.79887 22.7314 1.79887 22.7314 1.77162 22.7314H1.74437V22.7587L1.71711 22.7859L1.6626 22.895L0.327148 25.2116C0.327148 25.2388 0.327148 25.2661 0.327148 25.2661C0.327148 25.3206 0.354404 25.4024 0.354404 25.4569L1.82613 22.9222L1.85338 22.895L1.88064 22.9222L3.24334 24.3394L4.03371 25.1571L4.44253 25.5659L4.14273 25.8112L0.98125 28.155C0.98125 28.2095 1.0085 28.264 1.03576 28.3185L4.279 25.9202L4.46978 25.7839L4.55154 25.7294L4.5788 25.7021L4.60605 25.6749C4.63331 25.6476 4.6333 25.6476 4.6333 25.6204V25.5931C4.49703 25.5931 4.49703 25.5931 4.49703 25.5659Z" fill="white"/>
<path d="M16.407 31.1804L16.3798 31.0713L16.298 30.7988L13.0275 20.9055L12.9457 20.6875L12.9185 20.633V20.6057C12.9185 20.6057 12.9185 20.5785 12.8912 20.5785H12.864H12.8367L12.8095 20.6057L12.6187 20.7148L12.5642 20.742L12.4552 20.7965L5.01479 25.2117L4.49695 25.5115L4.44245 25.5387C4.44245 25.5387 4.44245 25.5387 4.41519 25.5387C4.41519 25.5387 4.41519 25.5387 4.38794 25.566C4.38794 25.566 4.38794 25.566 4.38794 25.5933V25.6205L4.41519 25.6478L4.4697 25.675L4.52421 25.7023L4.63323 25.7568L4.824 25.8385L15.9982 31.1258L16.2707 31.2621L16.298 31.2894L16.3525 31.3166H16.3798C16.407 31.3166 16.407 31.3166 16.4343 31.2894C16.4343 31.2894 16.4343 31.2621 16.4615 31.2621C16.4615 31.2621 16.4615 31.2621 16.4615 31.2349C16.4615 31.2076 16.4615 31.2076 16.4615 31.1804H16.407ZM16.0255 30.9896L4.90577 25.7295L4.57872 25.566L4.98753 25.3207L12.6459 20.7693L12.7822 20.6875L12.8367 20.8783L16.1072 30.826L16.189 31.0713L16.0255 30.9896Z" fill="white"/>
<path d="M3.97911 25.8385L0.817627 28.1824C0.817627 28.2369 0.84488 28.2914 0.872134 28.3459L4.11538 25.9475C4.03362 25.9203 4.00636 25.8657 3.97911 25.8385ZM4.46969 25.566L4.44243 25.5387C4.41518 25.5387 4.38792 25.5387 4.38792 25.5387C4.38792 25.5387 4.38792 25.5387 4.36067 25.5387L4.30616 25.5932L4.00636 25.8385L0.844883 28.1824C0.844883 28.2369 0.872136 28.2914 0.89939 28.3459L4.14263 25.9475L4.33341 25.8112L4.30616 26.002L2.94345 33.0881C2.99796 33.1699 3.02521 33.2244 3.07972 33.3061L4.46969 26.0293L4.49694 25.8657L4.52419 25.7295V25.6477V25.6205V25.5932C4.49694 25.5932 4.49694 25.566 4.46969 25.566Z" fill="white"/>
<path d="M21.9942 33.6059L21.9397 33.3606L21.8579 33.3061L21.8034 33.4424L21.8579 33.6331L23.6022 39.8744C23.6567 39.8471 23.7112 39.8198 23.7657 39.8198L21.9942 33.6059ZM23.8202 40.1469L23.793 40.0924L23.7384 39.8744L21.9942 33.6331L21.9397 33.3879L21.9124 33.2516L21.8852 33.1971V33.1698C21.8852 33.1698 21.8852 33.1698 21.8579 33.1426H21.8307C21.8034 33.1426 21.8034 33.1426 21.8034 33.1426C21.8034 33.1426 21.8034 33.1426 21.8034 33.1698V33.1971L21.7761 33.2516L21.7216 33.4151L21.6399 33.6331L18.0696 43.5264C18.1241 43.5264 18.1786 43.5537 18.2331 43.5537L21.7761 33.7149L21.8579 33.5241L21.9124 33.7149L23.6567 39.9561L23.7112 40.2014L23.4114 40.5285L20.4134 43.7717C20.4952 43.7717 20.5497 43.7717 20.6315 43.7717L23.4932 40.6647L23.8202 40.3104L23.8475 40.2832C23.8202 40.2014 23.8202 40.1742 23.8202 40.1469Z" fill="white"/>
<path d="M26.2459 31.2348C26.2459 31.2075 26.2459 31.2075 26.2459 31.2348C26.2459 31.2075 26.2186 31.2076 26.2186 31.2076C26.1913 31.1803 26.1914 31.1803 26.1641 31.1803H16.3799C16.3799 31.1803 16.3799 31.1803 16.3526 31.1803C16.3526 31.1803 16.3526 31.1803 16.3254 31.1803C16.3254 31.1803 16.2981 31.1803 16.2981 31.2076V31.2348C16.2981 31.2621 16.3253 31.3166 16.3526 31.3166H16.3799H16.4071L16.7614 31.4528L21.3401 33.0881L21.5854 33.1699L21.6672 33.1971H21.6944H21.7217H21.7489H21.7762H21.8034H21.8307L21.8579 33.1699L21.9397 33.1426L22.2122 33.0336L25.7825 31.4528L26.1096 31.2893L26.1641 31.2621C26.2459 31.3166 26.2459 31.2621 26.2459 31.2348ZM22.1577 32.9246L21.8034 33.0881L21.4491 32.9518L16.8977 31.3166H25.7825L25.7553 31.3438L23.5204 32.3522L22.1577 32.9246Z" fill="white"/>
<path d="M22.2122 33.3605L21.9669 33.197L21.8579 33.1425C21.8579 33.1425 21.8579 33.1425 21.8306 33.1425H21.8034H21.7761C21.7761 33.1425 21.7761 33.1425 21.7761 33.1697V33.197V33.2242V33.2515L21.8034 33.306L21.8306 33.4423L21.8851 33.633L23.6294 39.8742L23.6839 40.1195V40.174C23.6839 40.2013 23.7112 40.2285 23.7384 40.2285H23.7929L24.2563 40.3103L31.1243 41.4005C31.2061 41.346 31.2878 41.3187 31.3696 41.2642L24.229 40.1468L23.8474 40.0923L23.7929 39.8742L22.0487 33.633L21.9942 33.3877L22.1849 33.524L32.705 40.5283C32.7595 40.5011 32.814 40.4738 32.8686 40.4466L22.2122 33.3605Z" fill="white"/>
<path d="M16.8703 31.3439C16.8431 31.3985 16.8158 31.453 16.7886 31.4802L21.3673 33.1155C21.3673 33.061 21.3945 33.0064 21.4218 32.9519L16.8703 31.3439ZM21.8578 33.1427L21.8306 33.1155C21.8306 33.1155 21.8306 33.1155 21.8033 33.1155H21.7761L21.4218 32.9792L16.8703 31.3439H16.8431L16.7068 31.2894L16.4615 31.2077L16.3797 31.1804H16.3525C16.3525 31.1804 16.3525 31.1804 16.3252 31.1804C16.3252 31.1804 16.3252 31.1804 16.298 31.1804C16.298 31.1804 16.2707 31.1804 16.2707 31.2077V31.2349L16.2162 31.3167L16.08 31.562L11.6103 39.3022L11.4467 39.5747L11.3922 39.6837C11.3922 39.711 11.365 39.7382 11.3922 39.7655C11.3922 39.7655 11.3922 39.7927 11.4195 39.7927L11.4467 39.82H11.474C11.474 39.82 11.5013 39.82 11.5285 39.82L11.583 39.7655L11.7738 39.6565L21.4218 33.5515L21.6125 33.4425L21.7216 33.3607L21.7761 33.3335L21.8033 33.3062L21.8306 33.279C21.8306 33.2517 21.8306 33.2517 21.8306 33.2245C21.8578 33.17 21.8578 33.17 21.8578 33.1427ZM21.3673 33.3607L11.7738 39.4657H11.7465L11.7738 39.4384L16.2707 31.6165L16.4343 31.3439L16.7886 31.4802L21.3673 33.1155L21.6125 33.1972L21.3673 33.3607Z" fill="white"/>
<path d="M26.3003 31.2892L26.2458 31.2346C26.2185 31.2074 26.2185 31.2074 26.1913 31.2074H26.164H26.1368L26.1095 31.2346L25.9187 31.3164L25.7552 31.3709L23.5204 32.3521L22.1849 32.9517L21.8306 33.1152H21.8034C21.8034 33.1152 21.8034 33.1152 21.7761 33.1152C21.7761 33.1152 21.7761 33.1152 21.7761 33.1424V33.1697V33.1969L21.8034 33.2242L21.8306 33.2515L21.8851 33.2787L21.9669 33.3332L22.1577 33.4695L32.6778 40.4738C32.7323 40.4466 32.7868 40.4193 32.8413 40.392L22.2667 33.3332L22.0214 33.1697L22.294 33.0607L25.8642 31.4799L26.1913 31.3164L26.4366 31.589L33.3591 40.065C33.4136 40.0377 33.4409 40.0105 33.4954 39.9832L26.5729 31.5072L26.3003 31.2892Z" fill="white"/>
<path d="M21.7761 33.2786L21.7216 33.3059L21.6126 33.3877L21.5308 33.6057L17.9605 43.4989C18.015 43.4989 18.0695 43.5262 18.124 43.5262L21.6671 33.6874L21.7488 33.4967L21.8034 33.3604L21.7761 33.2786ZM21.8579 33.1424L21.8306 33.1151C21.8306 33.1151 21.8306 33.1151 21.8034 33.1151H21.7761H21.7488L21.6126 33.1969L21.3945 33.3331L11.8011 39.4381H11.7738L11.7193 39.4653L11.5285 39.5743L11.474 39.6016L11.4468 39.6288C11.4468 39.6561 11.4468 39.6834 11.4468 39.7106L11.474 39.7379L11.6103 39.9559L12.7005 41.8364C12.7822 41.8637 12.864 41.9182 12.973 41.9454L11.7466 39.8469L11.6648 39.6834L11.8556 39.5743L21.5036 33.4694L21.6943 33.3604L21.6126 33.5784L18.0423 43.4717C18.0968 43.4717 18.1513 43.4989 18.2058 43.4989L21.7488 33.6602L21.8034 33.4694L21.8579 33.3331L21.8851 33.2786V33.2514V33.2241V33.1969C21.8579 33.1696 21.8579 33.1696 21.8579 33.1424Z" fill="white"/>
<path d="M40.4995 31.5888L40.4723 31.5343L37.4743 26.6285L37.4198 26.5195L37.2836 26.3015L37.2563 26.247C37.2563 26.247 37.2563 26.2197 37.229 26.2197H37.2018H37.1745C37.1745 26.2197 37.1745 26.2197 37.1745 26.247V26.3287V26.3833L37.12 26.7103L35.403 38.5659C35.4575 38.5114 35.5393 38.4568 35.5938 38.4023L35.7301 37.4757L37.1473 26.7921L37.1745 26.5468L37.3108 26.7648L40.3088 31.6706L38.2374 35.4861C38.4827 35.1591 38.728 34.832 38.9733 34.505L40.4723 31.7523L40.4995 31.6978C40.4995 31.6433 40.4995 31.6161 40.4995 31.5888Z" fill="white"/>
<path d="M40.8811 22.7314C40.8811 22.7041 40.8539 22.7041 40.8539 22.7041H40.8266H40.7994H40.7721L40.6631 22.7314L29.4616 25.4023L29.1891 25.4568L29.0256 25.484H28.9983L28.9166 25.5113H28.8893C28.8893 25.5113 28.8893 25.5113 28.8621 25.5385V25.5658C28.8621 25.593 28.8893 25.6475 28.9438 25.6475H28.9711H28.9983L29.4616 25.6748L36.7658 26.2744H36.8475L37.0656 26.3017H37.1201H37.1473H37.1746H37.2018H37.2291L37.3108 26.2199L37.4744 26.0564L40.8266 22.8404L40.8811 22.7859L40.9084 22.7586C40.9084 22.8131 40.9084 22.7859 40.8811 22.7314ZM37.1201 26.2199L36.793 26.1926L29.4889 25.593L40.5541 22.9494L37.3381 26.0291L37.1201 26.2199Z" fill="white"/>
<path d="M37.2836 26.2744L37.2019 26.2198H37.1746H37.1474L37.1201 26.2471V26.2744V26.3016C37.1201 26.3016 37.1201 26.3016 37.1201 26.3289L37.1474 26.3561L37.1746 26.3834L37.2564 26.5196L37.3927 26.7377L40.3906 31.6434L40.4179 31.6707C40.4451 31.6979 40.4724 31.6979 40.4996 31.6979H40.5541H40.6904C40.7177 31.6434 40.7449 31.5889 40.7722 31.5072L40.5541 31.5344L37.5562 26.6287L37.5017 26.5196L37.6107 26.5742L41.8078 28.9998C41.8351 28.9453 41.8351 28.8908 41.8623 28.8362L37.6652 26.4106L37.2836 26.2744Z" fill="white"/>
<path d="M37.2019 26.2744C37.2019 26.2471 37.2019 26.2471 37.2019 26.2744L37.1746 26.2471H37.1474H37.1201L36.7931 26.2199L29.489 25.6203H29.4617L29.1347 25.593H29.0257H28.9439H28.9166H28.8894C28.8894 25.593 28.8894 25.593 28.8621 25.6203L28.8349 25.6475L28.6986 25.8928L26.3002 30.8258L26.1912 31.0711L26.1367 31.1801V31.2074V31.2346C26.1367 31.2346 26.1367 31.2346 26.1367 31.2619V31.2891V31.3164C26.164 31.3164 26.164 31.3436 26.1912 31.3436H26.2185L26.3275 31.2891L26.6273 31.1529L36.7931 26.5742L37.0656 26.4651L37.1474 26.4379L37.1746 26.4106H37.2019C37.2292 26.4106 37.2564 26.3834 37.2564 26.3561L37.2019 26.2744C37.2292 26.2744 37.2292 26.2744 37.2019 26.2744ZM36.7386 26.3834L26.5455 30.9893L26.3547 31.0711L26.4365 30.8803L28.8349 25.9746L28.9711 25.702L29.4345 25.7293L36.7386 26.3289H36.8203L36.7386 26.3834Z" fill="white"/>
<path d="M40.9358 22.813L40.9085 22.7585C40.9085 22.7312 40.8813 22.7312 40.8813 22.7312C40.8813 22.7312 40.8813 22.7312 40.854 22.7312H40.8268C40.8268 22.7312 40.7995 22.7312 40.7995 22.7585L40.745 22.813L40.5815 22.9765L37.3655 26.0562L37.1475 26.247C37.1475 26.247 37.1475 26.247 37.1475 26.2742V26.3015C37.1475 26.3015 37.1475 26.3015 37.1475 26.3287C37.1475 26.3287 37.1475 26.3287 37.1475 26.356L37.1747 26.3833H37.202H37.2292L37.311 26.4105L37.4745 26.5195L37.5835 26.574L41.7807 28.9997C41.8079 28.9451 41.8079 28.8906 41.8352 28.8361L37.638 26.4105L37.3655 26.247L37.529 26.0835L40.8813 22.8947L42.5438 25.7837C42.5438 25.7564 42.5438 25.7564 42.5438 25.7292C42.5438 25.6746 42.571 25.5929 42.571 25.5111L41.0176 22.8402L40.9358 22.813Z" fill="white"/>
<path d="M36.7387 26.3832L26.5456 30.9892C26.5729 31.0437 26.6001 31.0709 26.6001 31.1527L36.7659 26.574C36.7387 26.4922 36.7387 26.4377 36.7387 26.3832ZM37.202 26.2742C37.202 26.2469 37.202 26.2469 37.202 26.2742L37.1747 26.2469H37.1475C37.1475 26.2469 37.1475 26.2469 37.1202 26.2469L36.8477 26.3832L36.7659 26.4105L26.5729 31.0164L26.3821 31.0982H26.3548L26.2731 31.1527L26.1913 31.1799C26.1913 31.1799 26.1641 31.18 26.1641 31.2072V31.2345V31.2617V31.289V31.3162L26.1913 31.3435L26.4366 31.616L33.3592 40.092C33.4137 40.0648 33.4409 40.0375 33.4954 40.0103L26.5729 31.5343L26.3548 31.289L26.6546 31.1527L36.8204 26.574L37.093 26.465L37.0385 26.792L35.3214 38.6476C35.376 38.5931 35.4577 38.5386 35.5122 38.4841L35.6485 37.5574L37.1475 26.792L37.1747 26.5467L37.202 26.4377V26.356V26.3287V26.2742C37.2292 26.2742 37.2292 26.2742 37.202 26.2742Z" fill="white"/>
<path d="M26.2459 31.1529L26.1914 31.0439L26.1641 31.0166L26.0551 30.7986L21.6127 23.1129L21.4764 22.8949L21.3946 22.7586L21.3674 22.7041L21.3401 22.6769H21.3129H21.2856C21.2856 22.6769 21.2584 22.6769 21.2584 22.7041C21.2584 22.7041 21.2584 22.7041 21.2584 22.7314L21.2311 22.7859L21.0676 23.0584L19.7867 25.266L16.5979 30.7714L16.4616 30.9894L16.4344 31.0439L16.3799 31.1257V31.1529C16.3799 31.1802 16.3799 31.1802 16.3799 31.2074C16.3799 31.2074 16.3799 31.2074 16.4071 31.2347H16.4344H26.2186C26.2459 31.2347 26.2731 31.2074 26.2731 31.2074C26.2731 31.2074 26.2731 31.2074 26.2731 31.1802C26.2459 31.1802 26.2459 31.1802 26.2459 31.1529ZM16.6797 30.8531L21.1221 23.1675L21.2856 22.8949L21.4492 23.1947L25.8916 30.8804L26.0279 31.0984H16.5434L16.6797 30.8531Z" fill="white"/>
<path d="M20.3591 14.6096C20.3046 14.6369 20.2501 14.6369 20.1956 14.6096L21.1495 22.3226C21.204 22.2953 21.2585 22.2953 21.313 22.2953L20.3591 14.6096ZM30.0888 15.1002C30.0888 15.073 30.0888 15.073 30.0888 15.073H30.0616H30.0343L29.8435 15.0457H29.68L20.7679 14.3098L20.3591 14.2826H20.3318H20.3046H20.2773H20.2501C20.2228 14.3098 20.2228 14.3098 20.2228 14.3371V14.3644V14.4461V14.5006L20.2501 14.6369L21.204 22.3498L21.2312 22.6224V22.7041V22.7314V22.7586L21.2585 22.7859C21.2585 22.7859 21.2585 22.7859 21.2857 22.7859C21.313 22.7859 21.313 22.7859 21.3402 22.7586L21.3947 22.7314L21.4492 22.6769L21.6945 22.4588L28.7534 16.2994L29.898 15.291H29.9253L29.9525 15.2637L30.007 15.2092L30.0616 15.1547C30.0616 15.1547 30.0616 15.1547 30.0888 15.1275V15.1002C30.0888 15.1275 30.0888 15.1275 30.0888 15.1002ZM21.5583 22.3771L21.3402 22.5679L21.313 22.3226L20.3591 14.6369L20.3318 14.4189L20.6316 14.4461L29.68 15.182H29.789L29.7345 15.2365L21.5583 22.3771Z" fill="white"/>
<path d="M28.9983 25.5385C28.971 25.5112 28.971 25.484 28.9438 25.484L28.8893 25.4567H28.862L28.644 25.375L21.7759 22.8131L21.4489 22.704L21.3671 22.6768L21.3126 22.6495H21.2854H21.2581C21.2581 22.6495 21.2581 22.6495 21.2309 22.6495C21.2036 22.6495 21.2309 22.6495 21.2309 22.6768C21.2309 22.6768 21.2309 22.6768 21.2309 22.704V22.7313V22.7586V22.7858V22.8131L21.2854 22.9221L21.4489 23.2219L25.8913 30.9075L26.0276 31.1256L26.0548 31.1801L26.0821 31.2073L26.1094 31.2346C26.1094 31.2618 26.1366 31.2618 26.1911 31.2618C26.2184 31.2618 26.2456 31.2346 26.2456 31.2346L26.3001 31.0983L26.4092 30.8803L28.8075 25.9745L28.9438 25.7293L28.9983 25.6475V25.6202C28.9983 25.5657 28.9983 25.5657 28.9983 25.5385ZM26.0276 30.7985L21.5852 23.1129L21.4489 22.8948L21.6942 22.9766L28.5622 25.5385L28.7803 25.6202L28.6712 25.8655L26.2456 30.7985L26.1366 31.0166L26.0276 30.7985Z" fill="white"/>
<path d="M15.6165 21.1779L13.1909 20.5511C13.1909 20.5783 13.1909 20.6056 13.1909 20.6328C13.1909 20.6601 13.1909 20.6874 13.1637 20.7146L20.8493 22.7042V22.6769C20.8493 22.6224 20.8766 22.5951 20.9038 22.5406L15.6165 21.1779ZM21.3399 22.6769V22.5679L21.3126 22.3226L20.3587 14.6369L20.3315 14.4189V14.3371V14.3099V14.2826C20.3315 14.2826 20.3315 14.2826 20.3315 14.2554H20.3042H20.277H20.2497L20.2225 14.2826L20.1952 14.3099L19.9772 14.5007L19.9227 14.5552L13.1364 20.3058L12.9729 20.4421L12.9184 20.4966L12.8911 20.5238C12.8911 20.5238 12.8911 20.5238 12.8911 20.5511V20.5783C12.8911 20.5783 12.8911 20.6056 12.9184 20.6056L12.9456 20.6328H12.9729H13.0001H13.0274H13.0819L13.2454 20.6874L20.9311 22.6769L21.2036 22.7587L21.2581 22.7859H21.2854H21.3126C21.3126 22.7859 21.3126 22.7859 21.3399 22.7859C21.3672 22.7859 21.3672 22.7859 21.3944 22.7587V22.7314V22.7042L21.3399 22.6769ZM20.9038 22.5679L15.6165 21.2052L13.1909 20.5783L13.0274 20.5511L13.1364 20.4693L20.0044 14.6369L20.1407 14.5279L20.168 14.6642L21.1219 22.3771L21.1491 22.6496L20.9038 22.5679Z" fill="white"/>
<path d="M30.0888 15.1002C30.0888 15.0729 30.0888 15.0729 30.0888 15.0729L30.0615 15.0457C30.0343 15.0457 30.007 15.0457 29.9798 15.0457H29.9525L29.8708 15.1002L29.789 15.1819L29.7345 15.2364L21.5583 22.377L21.3402 22.5678L21.2585 22.6496L21.2312 22.6768C21.2312 22.6768 21.2312 22.6768 21.2312 22.7041C21.2312 22.7041 21.2312 22.7041 21.2312 22.7313V22.7586V22.7858V22.8131L21.2585 22.8403L21.313 22.8676L21.4765 22.9221L21.7218 23.0039L28.5898 25.5658L28.8078 25.6475H28.8351H28.8624H28.8896H28.9169C28.9441 25.6475 28.9441 25.6475 28.9714 25.6475L28.9986 25.6203V25.593V25.5658V25.5385V25.4295L29.0259 25.1569L30.0615 15.3455V15.2909V15.1547V15.1274L30.0888 15.1002ZM28.6171 25.375L21.749 22.8131L21.422 22.7041L21.6673 22.486L28.7261 16.3266L29.8708 15.3182H29.898V15.3455L28.8896 25.1569L28.8624 25.4567L28.6171 25.375Z" fill="white"/>
<path d="M21.3401 22.7041C21.3129 22.6768 21.3129 22.6768 21.3129 22.6768H21.2856L21.2038 22.6496L20.9586 22.5951L15.6713 21.2324L13.2456 20.6055L13.0821 20.5783L12.9458 20.551H12.9186C12.8913 20.551 12.8641 20.551 12.8368 20.5783L12.8096 20.6055C12.8096 20.6055 12.8096 20.6055 12.8096 20.6328V20.66V20.6873L12.8368 20.7418L12.8641 20.7963L12.9458 21.0143L16.2163 30.9076L16.2981 31.2074L16.3254 31.3164C16.3254 31.3164 16.3254 31.3437 16.3526 31.3437C16.3526 31.3437 16.3526 31.3437 16.3799 31.3709H16.4071H16.4344C16.4344 31.3709 16.4616 31.3709 16.4616 31.3437L16.4889 31.2892L16.5161 31.2619L16.5434 31.2074L16.7069 30.9349L21.1493 23.2492L21.3129 22.9766L21.3401 22.9221L21.3674 22.8949V22.8676V22.8404C21.3674 22.7314 21.3674 22.7041 21.3401 22.7041ZM20.9858 23.0584L19.7049 25.266L16.5161 30.7713L16.3799 30.9894L16.2981 30.7441L13.0276 20.8508L12.9731 20.66L13.1366 20.7146L20.8223 22.7041L21.0948 22.7859L20.9858 23.0584Z" fill="white"/>
<path d="M30.0884 15.1002C30.0884 15.073 30.0884 15.073 30.0884 15.073L30.0066 14.9912L29.9794 14.9639L29.7068 14.7187L17.7968 3.43544L17.6332 3.27192L17.5787 3.21741H17.5515C17.5242 3.21741 17.497 3.21741 17.497 3.21741L17.4697 3.24466V3.27192C17.4697 3.27192 17.4697 3.27191 17.4697 3.29917C17.4697 3.29917 17.4697 3.29917 17.4697 3.32642L17.497 3.40819L17.5515 3.59896L20.0861 13.7375L20.1679 14.0646L20.2224 14.2826V14.3098V14.3371C20.2224 14.3643 20.2224 14.3644 20.2496 14.3644C20.2496 14.3644 20.2769 14.3644 20.2769 14.3916H20.3042H20.3587L20.6585 14.4189L29.7068 15.1547H29.8159H29.9521H29.9794H30.0066C30.0339 15.1547 30.0339 15.1547 30.0339 15.1547C30.0339 15.1547 30.0339 15.1547 30.0611 15.1275C30.0611 15.1275 30.0611 15.1275 30.0611 15.1002H30.0884ZM29.6251 14.9912L20.713 14.2553L20.3042 14.2281L20.1679 13.683L17.6332 3.57171V3.54446L17.6605 3.57171L29.6251 14.8822L29.7886 15.0184L29.6251 14.9912Z" fill="white"/>
<path d="M17.2246 1.4186C17.17 1.4186 17.1155 1.44585 17.061 1.44585L17.3336 2.97209C17.3881 2.94483 17.4426 2.91758 17.4971 2.91758L17.2246 1.4186ZM20.6041 1.03704L17.7151 2.99934L17.5244 3.13561L17.4971 2.94483L17.2246 1.44585C17.17 1.44585 17.1155 1.47311 17.061 1.47311L17.3336 2.99934L17.3881 3.24463V3.29913C17.3881 3.29913 17.3881 3.29913 17.3881 3.32639C17.3881 3.32639 17.3881 3.32639 17.3881 3.35364L17.4153 3.3809H17.4426H17.4698L17.5244 3.35364L17.5516 3.32639L17.6061 3.27189L17.7696 3.16286L20.8766 1.03704C20.8221 1.00979 20.7131 1.00979 20.6041 1.03704Z" fill="white"/>
<path d="M31.9962 7.27827V7.25102C31.9962 7.22376 31.9689 7.22377 31.9417 7.22377L31.7509 7.16926L17.8513 3.29917L17.6878 3.24466L17.5787 3.21741H17.5515C17.5242 3.21741 17.497 3.21741 17.497 3.21741L17.4697 3.24466V3.27192C17.4697 3.27192 17.4697 3.27191 17.4697 3.29917C17.4697 3.29917 17.4697 3.29917 17.4697 3.32642L17.497 3.35368L17.6605 3.5172L17.6878 3.54446L29.6523 14.8549L29.8159 14.9912L29.9249 15.1002L29.9794 15.1547L30.0066 15.182C30.0066 15.182 30.0066 15.182 30.0339 15.182H30.0611C30.0611 15.182 30.0611 15.182 30.0884 15.182C30.0884 15.182 30.0884 15.182 30.1157 15.1547V15.1275V15.1002L30.2519 14.5824L31.9689 7.60533L32.0507 7.30553L31.9962 7.27827ZM29.6796 14.7187L17.7968 3.46269L31.8327 7.36004L30.0611 14.5551L29.9521 14.9639L29.6796 14.7187Z" fill="white"/>
<path d="M17.4153 3.32637C17.4153 3.29912 17.388 3.29911 17.388 3.29911C17.388 3.29911 17.388 3.29912 17.388 3.27187C17.388 3.27187 17.388 3.27186 17.388 3.24461V3.1901L17.1972 3.27187L11.7464 5.58847C11.7737 5.64298 11.8009 5.69748 11.8009 5.75199L13.2454 5.1524L17.3063 3.43538L17.4698 3.38088L17.497 3.35363L17.4153 3.32637ZM17.5516 3.24461V3.1901L17.5243 3.10834L17.497 2.91756L17.2245 1.41858C17.17 1.41858 17.1155 1.44584 17.061 1.44584L17.3335 2.97207L17.388 3.21735L17.1972 3.29911L11.7464 5.61572L13.5179 2.536C13.4362 2.56325 13.3544 2.59051 13.2726 2.64502L11.6101 5.5067L11.4739 5.75199V5.77924C11.4739 5.77924 11.4739 5.77924 11.4739 5.8065V5.83375C11.4739 5.86101 11.4739 5.861 11.5011 5.88826C11.5284 5.91551 11.5284 5.91551 11.5556 5.91551H11.5829L11.6374 5.88826L11.6919 5.86101L11.8282 5.8065L13.2726 5.2069L17.3335 3.4899L17.497 3.43538L17.5243 3.40814H17.5516H17.5788C17.5515 3.32637 17.5788 3.29912 17.5516 3.24461Z" fill="white"/>
<path d="M31.9962 7.27831V7.25105L29.2708 2.53609C29.189 2.50883 29.1072 2.48158 29.0255 2.45433L31.7509 7.16929L17.8513 3.2992L17.6878 3.2447L17.8513 3.13568L20.9583 1.03711C20.8492 1.03711 20.7402 1.03711 20.6585 1.03711L17.7695 2.99941L17.5787 3.13568L17.497 3.19019L17.4697 3.21744V3.2447C17.4697 3.2447 17.4697 3.2447 17.4697 3.27195C17.4697 3.27195 17.4697 3.27195 17.4697 3.2992C17.4697 3.2992 17.4697 3.2992 17.497 3.2992H17.5242L17.6332 3.32646L17.824 3.38097L31.8599 7.27831H31.8872H31.9144C31.9144 7.27831 31.9144 7.27831 31.9417 7.27831C31.9689 7.27831 31.9962 7.27831 31.9962 7.25105C31.9962 7.25105 31.9962 7.25106 31.9962 7.2238C31.9962 7.30557 31.9962 7.30556 31.9962 7.27831Z" fill="white"/>
<path d="M20.3315 14.3098L20.3042 14.228L20.1679 13.683L17.6333 3.57167V3.54443L17.6061 3.40816L17.5788 3.32639L17.5516 3.27188V3.24463C17.5516 3.24463 17.5515 3.24463 17.5243 3.24463C17.497 3.24463 17.4698 3.24463 17.4698 3.24463L17.4153 3.27188L17.2245 3.35364L11.7737 5.67025L11.7464 5.6975L11.5284 5.77926C11.5284 5.77926 11.5284 5.77926 11.5011 5.77926C11.5011 5.77926 11.5011 5.77926 11.4739 5.77926C11.4739 5.77926 11.4739 5.77926 11.4739 5.80652C11.4739 5.80652 11.4739 5.80652 11.4739 5.83377V5.86103C11.4739 5.88828 11.4739 5.88828 11.5011 5.91553L11.6374 6.0518L11.6919 6.10631L19.8409 14.0373L20.1407 14.3371L20.1679 14.3643L20.2225 14.3916L20.2497 14.4188C20.2497 14.4188 20.277 14.4188 20.277 14.4461H20.3042H20.3315H20.3587C20.3315 14.3371 20.3315 14.3371 20.3315 14.3098ZM19.8682 13.8465L11.7464 5.94279L11.6374 5.86103L11.7737 5.80652L13.2181 5.20692L17.2518 3.48991L17.4153 3.4354L17.4698 3.62619L20.0044 13.7647L20.0862 14.0918L19.8682 13.8465Z" fill="white"/>
<path d="M40.8813 22.7043L40.7995 22.6497H40.7723L35.376 18.6161L35.2397 18.5344L35.1852 18.4799L35.1579 18.4526L35.1307 18.4253C35.1034 18.3981 35.0762 18.3981 35.0489 18.4253C35.0489 18.4253 35.0217 18.4253 35.0217 18.4526L34.9944 18.4799L34.9671 18.5071L34.8581 18.6434L29.2165 25.1844L29.053 25.3752L29.0257 25.4024L28.944 25.4842L28.8895 25.5387L28.8622 25.5659C28.8622 25.5659 28.8622 25.5932 28.835 25.5932V25.6204V25.6477C28.835 25.675 28.8622 25.7022 28.8895 25.7022H28.9167H28.944L29.4618 25.5932L40.527 22.9495L40.8268 22.8678H40.854C40.8813 22.8678 40.8813 22.8678 40.9085 22.8405V22.8133C40.9358 22.7588 40.9358 22.7315 40.8813 22.7043ZM29.3528 25.2661L35.0217 18.6979L35.1307 18.5889L35.2669 18.6979L40.6633 22.7315L29.4346 25.4024L29.162 25.4569L29.3528 25.2661Z" fill="white"/>
<path d="M38.8372 10.0855L35.2669 17.9346L35.1306 18.2344L35.0488 17.9074L32.0781 7.38729L35.9755 6.73319C35.921 6.67869 35.8665 6.62418 35.812 6.59692L32.0236 7.22377H31.9691C31.9691 7.22377 31.9691 7.22377 31.9419 7.22377H31.9146L31.8874 7.25102C31.8874 7.27828 31.8601 7.27828 31.8874 7.30553L31.9419 7.55082L31.9691 7.60533L34.8853 17.9074L34.9671 18.2072L35.0216 18.3707V18.4252C35.0216 18.4252 35.0216 18.4252 35.0216 18.4525C35.0216 18.4525 35.0216 18.4525 35.0488 18.4525H35.0761C35.1033 18.4525 35.1033 18.4525 35.1306 18.4525C35.1579 18.4525 35.1579 18.4252 35.1579 18.4252L35.1851 18.3707L35.2396 18.2344L35.3759 17.9346L36.3025 15.9178L38.9462 10.14C38.9189 10.1672 38.8644 10.1127 38.8372 10.0855Z" fill="white"/>
<path d="M42.571 19.6518L40.8267 22.6497H40.7995L35.4031 18.6161L35.2941 18.5343L35.5122 18.4526L41.7806 15.9997C41.7806 15.9452 41.7533 15.8907 41.7261 15.8362L35.5394 18.2618L35.2941 18.3436L35.1851 18.3708L35.1306 18.3981L35.0761 18.4253C35.0761 18.4253 35.0488 18.4253 35.0488 18.4526C35.0488 18.4526 35.0488 18.4526 35.0488 18.4798V18.5071C35.0488 18.5071 35.0488 18.5071 35.0488 18.5343C35.0488 18.5343 35.0488 18.5343 35.0761 18.5343L35.1306 18.5616L35.2669 18.6706L40.6632 22.7042L40.7177 22.7315L40.7995 22.786C40.7995 22.786 40.7995 22.786 40.8267 22.786H40.854C40.8812 22.786 40.8812 22.786 40.9085 22.7587V22.7315L40.963 22.6225L42.571 19.8425C42.571 19.8153 42.571 19.8153 42.571 19.788C42.571 19.788 42.571 19.7063 42.571 19.6518Z" fill="white"/>
<path d="M35.185 18.4253L35.1578 18.3708L35.1305 18.2345L35.0488 17.9075L32.0781 7.38737L32.0508 7.30561C32.0508 7.27836 32.0236 7.27835 32.0236 7.27835C31.9963 7.27835 31.9963 7.2511 31.969 7.2511C31.969 7.2511 31.969 7.2511 31.9418 7.2511H31.9145L31.8873 7.27835V7.30561V7.33287L30.1158 14.528L30.0067 14.964V15.0185V15.0458L29.9795 15.1548C29.9795 15.1548 29.9795 15.1548 29.9795 15.1821V15.2093C29.9795 15.2366 30.0067 15.2366 30.0067 15.2638L30.0885 15.3183L30.1158 15.3456L30.1703 15.3728L34.7217 18.3435L34.9943 18.5343L35.0488 18.5616C35.0488 18.5616 35.0488 18.5616 35.076 18.5616H35.1033H35.1305L35.1578 18.5343L35.185 18.5071V18.4798V18.4253ZM34.967 18.289L34.749 18.1255L30.3065 15.2366L30.1158 15.1276L30.252 14.6097L31.9418 7.65991L34.858 17.962L34.967 18.289Z" fill="white"/>
<path d="M41.6988 15.809L35.5122 18.2346C35.5122 18.2891 35.5122 18.3436 35.5122 18.3981V18.4254L41.7806 15.9725C41.7534 15.918 41.7261 15.8635 41.6988 15.809ZM35.5122 18.2346L35.2669 18.3164L35.4031 18.0166L36.3298 15.9997L38.9462 10.2219C38.9189 10.1674 38.8644 10.1129 38.8372 10.0583L35.2669 17.9348L35.1306 18.2346L35.0761 18.3436L35.0488 18.4254V18.4526V18.4799C35.0488 18.4799 35.0488 18.4799 35.0488 18.5071C35.0488 18.5071 35.0488 18.5071 35.0761 18.5071H35.1033H35.1306H35.1579L35.2941 18.4526L35.5122 18.3709L41.7806 15.918C41.7806 15.8635 41.7533 15.809 41.7261 15.7545L35.5122 18.2346Z" fill="white"/>
<path d="M35.158 18.4253L35.1307 18.3981L35.0762 18.3708L34.9672 18.3163L34.7491 18.1801L30.3067 15.2911L30.1159 15.1821L30.0887 15.1548C30.0614 15.1276 30.0342 15.1276 30.0069 15.1548C29.9797 15.1548 29.9524 15.1821 29.9524 15.2094V15.2366V15.2639V15.3456V15.4001L28.944 25.1844L28.9167 25.5114V25.5932V25.6204V25.6477V25.6749C28.9167 25.7022 28.944 25.7295 28.9713 25.7295H28.9985C29.0258 25.7295 29.053 25.7295 29.053 25.7022L29.162 25.5659L29.2165 25.4842L29.4073 25.2661L35.0762 18.6979L35.1852 18.5889L35.2125 18.5344L35.2397 18.5071C35.2397 18.5071 35.2397 18.5071 35.2397 18.4798V18.4526C35.1852 18.4526 35.158 18.4253 35.158 18.4253ZM34.8582 18.6434L29.2165 25.1844L29.053 25.3751L29.0803 25.1299L30.0887 15.3456V15.3184L30.1432 15.3456L34.6946 18.3163L34.9672 18.5071L34.8582 18.6434Z" fill="white"/>
<path d="M40.963 22.677L42.5982 19.8698C42.5982 19.7881 42.571 19.7063 42.571 19.6518C42.571 19.6245 42.571 19.6245 42.571 19.5973L40.7995 22.6497L40.7722 22.7043V22.7315C40.7722 22.7315 40.7722 22.7315 40.7722 22.7588V22.786C40.7722 22.8133 40.7995 22.8133 40.8267 22.8133L40.9085 22.8405H40.9357L40.9903 22.8678H41.0448L42.7345 23.3584C42.7345 23.3039 42.7345 23.2493 42.7345 23.1948L41.0175 22.7043L40.963 22.677Z" fill="white"/>
<path d="M40.963 22.6769L40.854 22.6497H40.8267C40.7995 22.6497 40.7995 22.6769 40.7722 22.6769V22.7042C40.7722 22.7042 40.7722 22.7042 40.7722 22.7314C40.7722 22.7587 40.7722 22.7587 40.7722 22.7587L40.8267 22.8404V22.8677L42.462 25.7021C42.462 25.6476 42.4892 25.5659 42.4892 25.4841C42.4892 25.4568 42.4892 25.4568 42.4892 25.4296L40.9903 22.8404L42.68 23.331C42.68 23.2765 42.68 23.222 42.68 23.1675L40.963 22.6769Z" fill="white"/>
<path d="M12.9457 20.4965L12.8912 20.442L12.7549 20.2784L10.52 17.9073L10.4383 17.8256L10.3838 17.7711L10.3565 17.7438C10.3565 17.7438 10.3293 17.7438 10.3293 17.7166H10.302H10.2748C10.2748 17.7166 10.2748 17.7166 10.2475 17.7166L10.2202 17.7438L10.1385 17.7711L10.084 17.8256L10.0295 17.8528L2.01675 22.486L1.77146 22.6223L1.71695 22.6495C1.6897 22.6495 1.6897 22.6768 1.6897 22.7041C1.6897 22.7041 1.6897 22.7313 1.6897 22.7586V22.7858C1.71695 22.8131 1.74421 22.8403 1.77146 22.8403C1.77146 22.8403 1.77146 22.8403 1.79872 22.8403L1.88048 22.8131L2.044 22.7858L12.5641 20.7418H12.6459L12.8912 20.6873H12.9457H12.9729C12.9729 20.6873 13.0002 20.6873 13.0002 20.66L13.0274 20.6327C12.9729 20.551 12.9729 20.5237 12.9457 20.4965ZM10.1385 17.9618L10.2475 17.9073L10.3293 17.9891L12.5914 20.4147L12.7004 20.5237L12.5368 20.551L2.18027 22.5678L10.1385 17.9618Z" fill="white"/>
<path d="M10.193 17.8256C10.193 17.7983 10.193 17.7983 10.193 17.7711V17.7438V17.7166V17.662V17.6075L10.0022 17.444L2.88889 11.6116C2.86164 11.6661 2.83438 11.7206 2.80713 11.7479L9.92046 17.5803L9.94771 17.6075L10.1385 17.7438L10.193 17.8256C10.2203 17.8528 10.2203 17.8256 10.193 17.8256ZM11.583 5.75198C11.5557 5.72472 11.5285 5.72473 11.4739 5.72473H11.4467L11.1196 5.75198L7.46759 6.13354C7.38583 6.18805 7.33132 6.26981 7.24956 6.32432L11.1469 5.91551L11.3922 5.88825L11.3649 6.07903L10.2203 17.3077L10.193 17.6075L10.0022 17.444L2.88889 11.6116C2.86164 11.6661 2.83438 11.7206 2.80713 11.7479L9.92046 17.5803L9.94771 17.6075L10.1385 17.7438L10.2203 17.8256C10.2203 17.8256 10.2203 17.8256 10.2475 17.8256H10.2748C10.2748 17.8256 10.2748 17.8256 10.302 17.8256L10.3293 17.7983C10.3293 17.7983 10.3293 17.7983 10.3293 17.7711C10.3293 17.7711 10.3293 17.7711 10.3293 17.7438V17.7166V17.6348L10.3565 17.335L11.5012 6.05178V5.94276V5.80649V5.75198C11.583 5.77923 11.583 5.77923 11.583 5.75198Z" fill="white"/>
<path d="M20.3315 14.3099C20.3315 14.2826 20.3315 14.2826 20.3315 14.2826C20.3315 14.2826 20.3315 14.2554 20.3042 14.2554H20.277H20.2497L20.168 14.2826L20.1135 14.3099L19.8409 14.3916L10.629 17.6076L10.411 17.6894L10.3292 17.7167H10.302H10.2747C10.2475 17.7167 10.2202 17.7439 10.2202 17.7712V17.7984C10.2202 17.8257 10.2202 17.8257 10.2202 17.8529C10.2202 17.8529 10.2202 17.8529 10.2202 17.8802L10.2475 17.9074L10.3292 17.9892L12.5913 20.4148L12.7003 20.5238L12.7276 20.5511L12.7549 20.5783L12.7821 20.6056L12.8094 20.6328L12.8366 20.6601H12.8639H12.8911C12.8911 20.6601 12.9184 20.6601 12.9184 20.6328L13.0274 20.5238L13.1364 20.4421L20.0045 14.6097L20.1407 14.5007L20.2225 14.4189H20.2497C20.2497 14.4189 20.2497 14.4189 20.2497 14.3916C20.3315 14.3371 20.3315 14.3371 20.3315 14.3099ZM13.0546 20.3058L12.8911 20.4421L12.7549 20.2785L10.4928 17.9074L10.411 17.8257L10.5745 17.7712L19.8409 14.5552L13.0546 20.3058Z" fill="white"/>
<path d="M10.2203 17.8528L10.1113 17.7711L9.92052 17.6348L9.89326 17.6075L1.17194 15.3182C1.14468 15.3727 1.14469 15.4272 1.11743 15.4817L9.94777 17.7983L10.0295 17.8256L10.2203 17.8528ZM10.3566 17.7711C10.3566 17.7438 10.3293 17.7438 10.3293 17.7438L10.3021 17.7166L10.2203 17.662L10.0295 17.4985L2.9162 11.6661C2.88895 11.7206 2.8617 11.7752 2.83444 11.8024L9.94777 17.6348L1.22645 15.3454C1.19919 15.4 1.19919 15.4545 1.17194 15.509L10.0023 17.8256L10.084 17.8528L10.2476 17.9073H10.2748C10.2748 17.9073 10.2748 17.9073 10.3021 17.9073L10.3293 17.8801C10.3293 17.8801 10.3293 17.8801 10.3293 17.8528C10.3566 17.7983 10.3566 17.7983 10.3566 17.7711Z" fill="white"/>
<path d="M19.8956 14.5008C19.8684 14.4735 19.8411 14.419 19.8139 14.3918L10.602 17.6078C10.602 17.635 10.602 17.6895 10.602 17.744C10.602 17.7713 10.602 17.7713 10.5747 17.7985L19.8411 14.5825L19.8956 14.5008C19.9229 14.5008 19.9229 14.5008 19.8956 14.5008ZM20.3317 14.31C20.3317 14.2828 20.3317 14.2828 20.3317 14.2828C20.3317 14.2828 20.3317 14.2827 20.3317 14.2555L20.1409 14.0647L19.9229 13.8467L11.8011 5.94298L11.6921 5.86122L11.6104 5.77945C11.5831 5.7522 11.5558 5.7522 11.5286 5.7522C11.5286 5.7522 11.5286 5.7522 11.5013 5.7522C11.5013 5.7522 11.5013 5.7522 11.4741 5.77945C11.4741 5.77945 11.4741 5.77945 11.4741 5.80671C11.4741 5.80671 11.4741 5.80671 11.4741 5.83396V5.86122V5.94298L11.4468 6.13376L10.3022 17.3625L10.2749 17.6623V17.7168V17.7713V17.7985V17.8258C10.2749 17.853 10.2749 17.853 10.2749 17.8803C10.2749 17.8803 10.2749 17.8803 10.2749 17.9075C10.2749 17.9075 10.2749 17.9075 10.3022 17.9075H10.3294C10.3294 17.9075 10.3294 17.9075 10.3567 17.9075L10.4657 17.8803L10.6292 17.8258L19.8956 14.6098L19.9774 14.5825L20.2227 14.5008L20.3044 14.4735H20.3317C20.3317 14.4735 20.3317 14.4735 20.3589 14.4735C20.3589 14.4735 20.3589 14.4735 20.3589 14.4463C20.3317 14.3373 20.3317 14.3373 20.3317 14.31ZM10.602 17.5805L10.3839 17.6623L10.4112 17.3625L11.5559 6.07925V5.97024L11.6104 6.02474L19.7593 13.9557L20.0591 14.2555L19.7866 14.3373L10.602 17.5805Z" fill="white"/>
<path d="M10.0023 17.853L1.9896 22.4862C2.01686 22.5407 2.01686 22.5952 2.01686 22.6497V22.6769L2.07136 22.6497L2.18038 22.5952L10.1386 18.0165C10.0841 17.9347 10.0568 17.9075 10.0023 17.853ZM10.3566 17.7712C10.3566 17.7439 10.3566 17.7439 10.3566 17.7439C10.3566 17.7439 10.3294 17.7439 10.3294 17.7167H10.3021L10.2476 17.6894L10.0023 17.6349H9.97507L1.25374 15.3456C1.22649 15.4001 1.22649 15.4546 1.19923 15.5091L10.0296 17.8257L10.1113 17.853L10.0568 17.8802L2.04411 22.5134L1.79882 22.6497L1.60804 22.3499L0.190826 19.897V19.9243C0.190826 20.006 0.163574 20.0878 0.163574 20.1696L1.47177 22.4589L1.58079 22.6497L1.66255 22.786L1.6898 22.8132V22.8405C1.6898 22.8677 1.71706 22.8677 1.74432 22.8677H1.77157C1.77157 22.8677 1.77157 22.8677 1.79882 22.8677H1.82607L1.85333 22.8405L2.04411 22.7315L2.09862 22.7042L2.20763 22.6497L10.1658 18.071L10.2749 18.0165L10.3021 17.9892L10.3294 17.962C10.3294 17.962 10.3294 17.962 10.3294 17.9347C10.3566 17.7985 10.3566 17.7985 10.3566 17.7712C10.3566 17.7985 10.3566 17.7985 10.3566 17.7712Z" fill="white"/>
<path d="M4.98741 25.5385C4.9329 25.8655 4.60585 26.0563 4.30606 26.0018C3.97901 25.9473 3.78823 25.6203 3.84274 25.3205C3.89724 24.9934 4.22429 24.8026 4.52409 24.8571C4.82389 24.9116 5.04192 25.2387 4.98741 25.5385Z" fill="white"/>
<path d="M2.01689 22.677C1.98963 22.8677 1.79885 22.9768 1.63533 22.9495C1.44455 22.9222 1.33553 22.7315 1.36279 22.5679C1.39004 22.3772 1.58082 22.2681 1.74435 22.2954C1.93513 22.3227 2.04414 22.5134 2.01689 22.677Z" fill="white"/>
<path d="M10.6018 17.7166C10.5746 17.9074 10.3838 18.0164 10.2203 17.9892C10.0295 17.9619 9.92049 17.7711 9.94775 17.6076C9.975 17.4168 10.1658 17.3078 10.3293 17.3351C10.5201 17.3623 10.6291 17.5531 10.6018 17.7166Z" fill="white"/>
<path d="M13.2183 20.6601C13.191 20.8509 13.0003 20.9599 12.8367 20.9327C12.646 20.9054 12.5369 20.7146 12.5642 20.5511C12.5915 20.3603 12.7822 20.2513 12.9458 20.2786C13.1365 20.3058 13.2456 20.4693 13.2183 20.6601Z" fill="white"/>
<path d="M11.7737 5.83382C11.7465 6.0246 11.5557 6.13362 11.3922 6.10636C11.2014 6.07911 11.0924 5.88833 11.1196 5.72481C11.1469 5.53403 11.3377 5.42501 11.5012 5.45226C11.692 5.47952 11.801 5.6703 11.7737 5.83382Z" fill="white"/>
<path d="M17.8514 3.3265C17.8241 3.51728 17.6333 3.62629 17.4698 3.59904C17.279 3.57178 17.17 3.38101 17.1973 3.21748C17.2245 3.0267 17.4153 2.91769 17.5788 2.94494C17.7696 2.97219 17.8786 3.13572 17.8514 3.3265Z" fill="white"/>
<path d="M20.7131 14.2555C20.6586 14.5281 20.4133 14.6916 20.1408 14.6371C19.8682 14.5826 19.7047 14.3373 19.7592 14.0647C19.8137 13.7922 20.059 13.6287 20.3316 13.6832C20.6041 13.7377 20.7676 13.983 20.7131 14.2555Z" fill="white"/>
<path d="M30.4156 15.0186C30.3611 15.2366 30.1703 15.3729 29.925 15.3456C29.707 15.2911 29.5707 15.1004 29.5979 14.8551C29.6252 14.6098 29.8432 14.5008 30.0885 14.528C30.3338 14.5825 30.4701 14.8006 30.4156 15.0186Z" fill="white"/>
<path d="M35.5122 18.3981C35.4577 18.6161 35.267 18.7524 35.0217 18.7251C34.8036 18.6706 34.6674 18.4798 34.6946 18.2346C34.7491 18.0165 34.9399 17.8803 35.1852 17.9075C35.4032 17.962 35.5395 18.1801 35.5122 18.3981Z" fill="white"/>
<path d="M37.5288 26.4651C37.4743 26.6831 37.2836 26.8194 37.0383 26.7921C36.8202 26.7376 36.684 26.5469 36.7112 26.3016C36.7657 26.0835 36.9565 25.9473 37.2018 25.9745C37.4471 26.029 37.5834 26.2471 37.5288 26.4651Z" fill="white"/>
<path d="M16.8702 31.2892C16.8157 31.5345 16.5976 31.698 16.3524 31.6435C16.1071 31.589 15.9435 31.371 15.9981 31.1257C16.0526 30.8804 16.2706 30.7169 16.5159 30.7714C16.7339 30.7986 16.8974 31.0439 16.8702 31.2892Z" fill="white"/>
<path d="M11.8011 39.7107C11.7466 39.956 11.5286 40.1195 11.2833 40.065C11.038 40.0105 10.8745 39.7925 10.929 39.5472C10.9835 39.3019 11.2015 39.1384 11.4468 39.1929C11.6921 39.2201 11.8556 39.4654 11.8011 39.7107Z" fill="white"/>
<path d="M21.7488 22.8405C21.6943 23.0858 21.4763 23.2493 21.231 23.1948C20.9857 23.1403 20.8222 22.9222 20.8767 22.6769C20.9312 22.4317 21.1493 22.2681 21.3945 22.3226C21.6398 22.3771 21.8034 22.5952 21.7488 22.8405Z" fill="white"/>
<path d="M29.4617 25.6748C29.4072 25.9201 29.1892 26.0836 28.9439 26.0291C28.6986 25.9746 28.5351 25.7566 28.5896 25.5113C28.6441 25.266 28.8621 25.1025 29.1074 25.157C29.3527 25.2115 29.5162 25.4295 29.4617 25.6748Z" fill="white"/>
<path d="M26.5999 31.3165C26.5454 31.5618 26.3274 31.7253 26.0821 31.6708C25.8368 31.6163 25.6733 31.3983 25.7278 31.153C25.7823 30.9077 26.0003 30.7442 26.2456 30.7987C26.4909 30.8532 26.6544 31.0713 26.5999 31.3165Z" fill="white"/>
<path d="M22.2393 33.306C22.1848 33.5513 21.9668 33.7149 21.7215 33.6603C21.4762 33.6058 21.3127 33.3878 21.3672 33.1425C21.4217 32.8972 21.6397 32.7337 21.885 32.7882C22.1303 32.8427 22.2666 33.0608 22.2393 33.306Z" fill="white"/>
<path d="M24.2288 40.3922C24.1743 40.6375 23.9563 40.801 23.711 40.7465C23.4657 40.692 23.3022 40.474 23.3567 40.2287C23.4112 39.9834 23.6292 39.8199 23.8745 39.8744C24.1198 39.9289 24.2561 40.1469 24.2288 40.3922Z" fill="white"/>
<path d="M6.51392 30.3898C6.51392 30.1446 6.73195 29.9265 6.97724 29.9265C7.22252 29.9265 7.44056 30.1446 7.44056 30.3898C7.44056 30.6351 7.22252 30.8532 6.97724 30.8532C6.73195 30.8532 6.51392 30.6624 6.51392 30.3898Z" fill="white"/>
<path d="M18.1787 37.4215C18.1787 37.1762 18.3967 36.9581 18.642 36.9581C18.8873 36.9581 19.1054 37.1762 19.1054 37.4215C19.1054 37.6667 18.8873 37.8848 18.642 37.8848C18.3695 37.8848 18.1787 37.6667 18.1787 37.4215Z" fill="white"/>
<path d="M5.75073 21.4777C5.75073 20.7146 6.37758 20.115 7.11344 20.115C7.87656 20.115 8.47615 20.7418 8.47615 21.4777C8.47615 22.2408 7.8493 22.8404 7.11344 22.8404C6.35032 22.8404 5.75073 22.2408 5.75073 21.4777Z" fill="white"/>
<path d="M10.3022 35.4045C10.3022 34.9412 10.6838 34.5869 11.1199 34.5869C11.5832 34.5869 11.9375 34.9685 11.9375 35.4045C11.9375 35.8679 11.5559 36.2222 11.1199 36.2222C10.6565 36.2222 10.3022 35.8679 10.3022 35.4045Z" fill="white"/>
<path d="M9.86621 26.22C9.86621 25.9202 10.1115 25.6749 10.4113 25.6749C10.7111 25.6749 10.9564 25.9202 10.9564 26.22C10.9564 26.5198 10.7111 26.7651 10.4113 26.7651C10.1115 26.7651 9.86621 26.5198 9.86621 26.22Z" fill="white"/>
<path d="M30.7427 32.4067C30.7427 32.1069 30.988 31.8616 31.2878 31.8616C31.5876 31.8616 31.8328 32.1069 31.8328 32.4067C31.8328 32.7065 31.5876 32.9517 31.2878 32.9517C30.988 32.9517 30.7427 32.7065 30.7427 32.4067Z" fill="white"/>
<path d="M32.4326 27.4464C32.4326 27.2283 32.5961 27.0648 32.8142 27.0648C33.0322 27.0648 33.1957 27.2283 33.1957 27.4464C33.1957 27.6644 33.0322 27.8279 32.8142 27.8279C32.5961 27.8279 32.4326 27.6644 32.4326 27.4464Z" fill="white"/>
<path d="M35.7031 19.0795C35.7031 18.4526 36.1937 17.962 36.8205 17.962C37.4474 17.962 37.938 18.4526 37.938 19.0795C37.938 19.7063 37.4474 20.1969 36.8205 20.1969C36.1937 20.1969 35.7031 19.679 35.7031 19.0795Z" fill="white"/>
<path d="M31.4241 22.7041C31.4241 22.3498 31.7239 22.05 32.0782 22.05C32.4325 22.05 32.7323 22.3498 32.7323 22.7041C32.7323 23.0585 32.4325 23.3582 32.0782 23.3582C31.7239 23.3855 31.4241 23.0857 31.4241 22.7041Z" fill="white"/>
<path d="M26.1641 6.62418C26.1641 6.37889 26.3548 6.18811 26.6001 6.18811C26.8454 6.18811 27.0362 6.37889 27.0362 6.62418C27.0362 6.86947 26.8454 7.06025 26.6001 7.06025C26.3548 7.06025 26.1641 6.86947 26.1641 6.62418Z" fill="white"/>
<path d="M37.3656 28.4003C37.3656 28.046 37.0658 27.7462 36.7115 27.7462C36.3572 27.7462 36.0574 28.046 36.0574 28.4003C36.0574 28.7546 36.3572 29.0544 36.7115 29.0544C37.093 29.0272 37.3656 28.7546 37.3656 28.4003Z" fill="white"/>
<path d="M15.9164 12.5656C15.9164 11.5027 15.0715 10.6578 14.0086 10.6578C12.9457 10.6578 12.1008 11.5027 12.1008 12.5656C12.1008 13.6285 12.9457 14.4734 14.0086 14.4734C15.0443 14.5007 15.9164 13.6285 15.9164 12.5656Z" fill="white"/>
<path d="M31.3151 9.94923C31.4241 10.5761 32.0237 10.9849 32.6505 10.8759C33.2774 10.7669 33.6862 10.1673 33.5772 9.54042C33.4682 8.91357 32.8686 8.50475 32.2417 8.61377C31.6421 8.72279 31.2061 9.32239 31.3151 9.94923Z" fill="white"/>
<path d="M30.5247 15.9451C30.6065 16.3812 31.0153 16.681 31.4513 16.5992C31.8874 16.5174 32.1872 16.1086 32.1054 15.6726C32.0237 15.2365 31.6149 14.9367 31.1788 15.0185C30.7427 15.073 30.4429 15.509 30.5247 15.9451Z" fill="white"/>
<path d="M27.3087 36.9581C27.3087 36.522 26.9544 36.1949 26.5456 36.1949C26.1095 36.1949 25.7825 36.5492 25.7825 36.9581C25.7825 37.3941 26.1368 37.7212 26.5456 37.7212C26.9544 37.7212 27.3087 37.3941 27.3087 36.9581Z" fill="white"/>
<path d="M29.7071 34.1236C29.7071 34.4234 29.4618 34.6687 29.162 34.6687H15.3714C15.0716 34.6687 14.8264 34.4234 14.8264 34.1236C14.8264 33.0607 15.6985 32.1886 16.7341 32.1886H20.577C20.2772 31.9433 20.0319 31.6162 19.8684 31.2347C19.8139 31.1257 19.7594 30.9894 19.7321 30.8804H19.7866C19.7594 30.8804 19.7321 30.8531 19.7048 30.8531V30.8804L19.0508 30.9349L15.426 31.2074C15.426 31.2074 15.3987 31.2074 15.3714 31.2074C15.0716 31.2074 14.7991 30.9621 14.7718 30.6623V30.5533C14.7446 30.2263 14.9899 29.9537 15.3169 29.9265L17.252 29.7902L17.7153 29.763L19.6503 29.6267L16.7887 28.9181L16.2708 28.7818L13.0276 27.9642C12.5643 27.8552 12.2645 27.3646 12.4007 26.9013L12.4552 26.6832C12.5098 26.4652 12.646 26.2744 12.8641 26.1382C13.0821 26.0019 13.3001 25.9746 13.5182 26.0291L15.0171 26.4107L15.3987 26.4925L19.5141 27.5281L20.577 27.8007L20.904 27.8824C21.2038 27.6916 21.5309 27.5826 21.9124 27.5281C22.5665 27.4191 23.1661 27.5826 23.684 27.8824C25.5645 27.1738 26.6547 25.157 26.1913 23.1675C25.946 22.1863 25.3737 21.3414 24.6106 20.7963C24.4198 20.8508 24.229 20.8781 24.0383 20.8781C23.8202 20.8781 23.6022 20.8508 23.3842 20.7963L22.0487 20.3875L21.5854 21.941C21.5309 22.1591 21.3946 22.3226 21.1766 22.4316C21.0403 22.4861 20.9313 22.5406 20.795 22.5406C20.7133 22.5406 20.6315 22.5406 20.5497 22.5133L20.4135 22.4588L20.0319 23.6853C19.9501 23.9851 19.6776 24.1486 19.4051 24.1486C19.3505 24.1486 19.2688 24.1486 19.2143 24.1213L18.2059 23.8216L17.8788 23.7125L17.3065 23.549C16.9522 23.44 16.7614 23.0857 16.8704 22.7314L17.252 21.505L16.9249 21.3959C16.4889 21.2597 16.2436 20.7963 16.3798 20.3603L16.6251 19.5972L16.8432 18.834L18.6964 12.6746C18.751 12.5111 18.86 12.3748 19.0235 12.293C19.187 12.2113 19.3505 12.184 19.5413 12.2385L20.1137 12.4293L21.0948 9.18607L20.8495 9.10431C20.7133 9.07706 20.6587 8.94079 20.686 8.80452C20.7133 8.6955 20.8223 8.64099 20.904 8.64099C20.9313 8.64099 20.9585 8.64099 20.9585 8.64099L24.2018 9.62214C24.3381 9.6494 24.3926 9.78567 24.3653 9.92194C24.3381 10.031 24.229 10.0855 24.1473 10.0855C24.12 10.0855 24.0928 10.0855 24.0928 10.0855L23.8475 10.0037L22.8663 13.2469L23.5204 13.4377C23.684 13.4922 23.8202 13.6013 23.9292 13.7648C24.011 13.9283 24.0383 14.0918 23.9838 14.2826L23.4659 16.0269L24.7469 16.4084C25.3737 16.5992 25.8643 17.0353 26.1368 17.5804C27.8811 18.5888 29.2165 20.2785 29.7071 22.4043C30.6065 26.1927 28.4534 30.0082 24.8559 31.2619C24.6924 31.6435 24.4471 31.9978 24.12 32.2431H27.8266C28.835 32.1886 29.7071 33.0607 29.7071 34.1236Z" fill="#333333"/>
<path d="M6.27935 56.8924H5.54349V52.0275L3.55393 56.8924H3.25414L1.25368 52.0302V56.8924H0.517822V50.981H1.57256L3.40676 55.4261L5.24914 50.981H6.27935V56.8924Z" fill="#333333"/>
<path d="M15.791 56.8932H11.9209V50.9818H15.791V51.6359H12.6568V53.5437H15.7283V54.1978H12.6568V56.2337H15.791V56.8932Z" fill="#333333"/>
<path d="M20.803 57.9834V56.3018C21.0221 56.2966 21.2357 56.2326 21.4216 56.1165C21.6233 55.937 21.769 55.7033 21.8414 55.4433C21.9989 54.96 22.104 54.4611 22.1548 53.9552L22.5173 50.99H26.1312V56.2419H26.6762V57.9834H25.9404V56.8932H21.5416V57.9834H20.803ZM22.8852 54.007C22.7489 55.1462 22.4482 55.8903 21.9831 56.2391H25.4008V51.6386H23.1768L22.8852 54.007Z" fill="#333333"/>
<path d="M32.5714 56.8932H31.8628V50.9818H32.5987V55.5959L35.9863 50.9818H36.7386V56.8932H36.0027V52.1783L32.5714 56.8932Z" fill="#333333"/>
<path d="M42.9417 50.9818V52.5326C42.9417 53.441 43.3959 53.8953 44.3044 53.8953C44.7665 53.8991 45.2264 53.8301 45.6671 53.6909V50.99H46.403V56.8932H45.6671V54.3422C45.2032 54.4737 44.7238 54.5425 44.2417 54.5467C43.9634 54.5666 43.684 54.5285 43.4213 54.4346C43.1585 54.3408 42.9181 54.1933 42.7155 54.0016C42.3542 53.595 42.168 53.0621 42.1976 52.5189V50.9873L42.9417 50.9818Z" fill="#333333"/>
<path d="M56.972 56.8932H56.2361V54.1678H52.7803V56.8932H52.0444V50.9818H52.7803V53.5246H56.2334V50.9818H56.972V56.8932Z" fill="#333333"/>
<path d="M67.6584 56.8932H66.8162L66.2929 55.5822H63.3522L62.8317 56.8932H61.9895L64.3633 50.9872H65.2764L67.6584 56.8932ZM66.0722 54.9281L64.8239 51.7476L63.5675 54.9281H66.0722Z" fill="#333333"/>
<path d="M78.8054 56.9942V56.3482C79.0254 56.3579 79.2426 56.2958 79.4241 56.1711C79.6292 55.9814 79.7766 55.7377 79.8493 55.4679C80.0032 54.9763 80.1073 54.4705 80.16 53.958L80.5224 50.9928H84.1363V56.8933H83.4086V51.6387H81.1847L80.8931 54.0017C80.8374 54.5293 80.7352 55.0509 80.5878 55.5606C80.4988 55.8958 80.3389 56.2081 80.1191 56.4763C79.9638 56.6583 79.7664 56.7996 79.544 56.8879C79.3058 56.9655 79.0559 57.0014 78.8054 56.9942Z" fill="#333333"/>
<path d="M94.8254 56.8932H93.9832L93.4599 55.5822H90.5219L89.9986 56.8932H89.1565L91.5303 50.9872H92.4433L94.8254 56.8932ZM93.2392 54.9281L91.9909 51.7476L90.7345 54.9281H93.2392Z" fill="#333333"/>
<path d="M99.8455 50.9818H103.68V51.6359H100.579V53.3284H102.214C102.464 53.3141 102.715 53.3523 102.949 53.4406C103.184 53.5288 103.398 53.6651 103.577 53.8408C103.897 54.1847 104.074 54.637 104.074 55.1067C104.074 55.5764 103.897 56.0287 103.577 56.3727C103.398 56.5485 103.184 56.6849 102.95 56.7731C102.715 56.8614 102.464 56.8995 102.214 56.8851H99.8401L99.8455 50.9818ZM102.129 53.9798H100.579V56.2282H102.129C102.285 56.2348 102.44 56.2104 102.586 56.1566C102.732 56.1028 102.866 56.0206 102.98 55.9148C103.19 55.6973 103.308 55.4066 103.308 55.104C103.308 54.8014 103.19 54.5107 102.98 54.2932C102.865 54.1883 102.731 54.1072 102.585 54.0543C102.439 54.0014 102.284 53.978 102.129 53.9852V53.9798Z" fill="#333333"/>
<path d="M111.987 56.9941C111.593 57.0089 111.2 56.9392 110.835 56.7897C110.469 56.6403 110.14 56.4144 109.87 56.1274C109.344 55.5198 109.055 54.7435 109.055 53.9403C109.055 53.1371 109.344 52.3607 109.87 51.7531C110.431 51.1948 111.191 50.8813 111.983 50.8813C112.775 50.8813 113.535 51.1948 114.097 51.7531C114.625 52.3594 114.916 53.1363 114.916 53.9403C114.916 54.7443 114.625 55.5211 114.097 56.1274C113.827 56.4131 113.499 56.6381 113.135 56.7875C112.771 56.9369 112.38 57.0074 111.987 56.9941ZM111.987 56.34C112.283 56.3507 112.578 56.2954 112.85 56.178C113.122 56.0606 113.365 55.8842 113.56 55.6614C113.947 55.1697 114.158 54.562 114.158 53.9362C114.158 53.3103 113.947 52.7027 113.56 52.211C113.356 51.9987 113.112 51.8298 112.841 51.7144C112.571 51.599 112.28 51.5395 111.986 51.5395C111.692 51.5395 111.401 51.599 111.13 51.7144C110.86 51.8298 110.615 51.9987 110.412 52.211C110.027 52.7039 109.819 53.3111 109.819 53.9362C109.819 54.5613 110.027 55.1685 110.412 55.6614C110.607 55.8862 110.849 56.0645 111.122 56.1834C111.394 56.3022 111.69 56.3585 111.987 56.3482V56.34Z" fill="#333333"/>
<path d="M121.055 56.8933H120.319V50.9819H122.693C122.943 50.9674 123.194 51.0055 123.428 51.0938C123.663 51.182 123.877 51.3184 124.055 51.4942C124.375 51.8382 124.553 52.2905 124.553 52.7602C124.553 53.2299 124.375 53.6822 124.055 54.0262C123.877 54.2018 123.663 54.3381 123.428 54.4264C123.194 54.5146 122.943 54.5528 122.693 54.5385H121.057L121.055 56.8933ZM122.605 53.8953C122.761 53.9019 122.916 53.8775 123.062 53.8237C123.208 53.7699 123.342 53.6877 123.456 53.5819C123.666 53.3644 123.784 53.0737 123.784 52.7711C123.784 52.4685 123.666 52.1778 123.456 51.9603C123.342 51.8545 123.208 51.7723 123.062 51.7185C122.916 51.6647 122.761 51.6403 122.605 51.6469H121.055V53.8953H122.605Z" fill="#333333"/>
<path d="M134.824 56.8932H133.981L133.458 55.5822H130.52L130 56.8932H129.157L131.531 50.9872H132.444L134.824 56.8932ZM133.237 54.9281L131.989 51.7476L130.733 54.9281H133.237Z" fill="#333333"/>
<path d="M142.043 56.8932H141.307V51.6386H139.438V50.9845H143.913V51.6386H142.035L142.043 56.8932Z" fill="#333333"/>
<path d="M151.836 56.9941C151.441 57.0089 151.048 56.9392 150.683 56.7897C150.318 56.6403 149.989 56.4144 149.718 56.1274C149.193 55.5198 148.904 54.7435 148.904 53.9403C148.904 53.1371 149.193 52.3607 149.718 51.7531C150.28 51.1948 151.04 50.8813 151.832 50.8813C152.624 50.8813 153.383 51.1948 153.945 51.7531C154.473 52.3594 154.764 53.1363 154.764 53.9403C154.764 54.7443 154.473 55.5211 153.945 56.1274C153.675 56.4131 153.347 56.6381 152.984 56.7875C152.62 56.9369 152.229 57.0074 151.836 56.9941ZM151.836 56.34C152.132 56.3507 152.426 56.2954 152.698 56.178C152.97 56.0606 153.213 55.8842 153.408 55.6614C153.795 55.1697 154.006 54.562 154.006 53.9362C154.006 53.3103 153.795 52.7027 153.408 52.211C153.205 51.9987 152.96 51.8298 152.69 51.7144C152.419 51.599 152.128 51.5395 151.834 51.5395C151.54 51.5395 151.249 51.599 150.979 51.7144C150.708 51.8298 150.464 51.9987 150.26 52.211C149.876 52.7039 149.667 53.3111 149.667 53.9362C149.667 54.5613 149.876 55.1685 150.26 55.6614C150.455 55.8862 150.698 56.0645 150.97 56.1834C151.243 56.3022 151.538 56.3585 151.836 56.3482V56.34Z" fill="#333333"/>
<path d="M160.903 56.8933H160.167V50.9819H162.541C162.791 50.9674 163.042 51.0055 163.277 51.0938C163.511 51.182 163.725 51.3184 163.904 51.4942C164.224 51.8382 164.402 52.2905 164.402 52.7602C164.402 53.2299 164.224 53.6822 163.904 54.0262C163.725 54.2018 163.511 54.3381 163.277 54.4264C163.042 54.5146 162.791 54.5528 162.541 54.5385H160.906L160.903 56.8933ZM162.446 53.8953C162.601 53.9019 162.756 53.8775 162.902 53.8237C163.048 53.7699 163.182 53.6877 163.296 53.5819C163.506 53.3644 163.624 53.0737 163.624 52.7711C163.624 52.4685 163.506 52.1778 163.296 51.9603C163.182 51.8545 163.048 51.7723 162.902 51.7185C162.756 51.6647 162.601 51.6403 162.446 51.6469H160.895V53.8953H162.446Z" fill="#333333"/>
<path d="M170.349 56.8932H169.614V50.9818H170.349V56.8932Z" fill="#333333"/>
<path d="M176.569 56.8933H175.71L177.305 54.484C176.892 54.4556 176.503 54.2761 176.214 53.9798C176.061 53.8186 175.943 53.6279 175.866 53.4194C175.789 53.2109 175.756 52.9889 175.767 52.767C175.757 52.5272 175.798 52.288 175.887 52.0653C175.976 51.8425 176.112 51.6413 176.285 51.4751C176.651 51.1424 177.132 50.9671 177.626 50.9873H180V56.8933H179.264V54.5467H178.079L176.569 56.8933ZM177.708 53.8953H179.267V51.6359H177.708C177.553 51.6294 177.397 51.6538 177.251 51.7075C177.105 51.7613 176.972 51.8435 176.858 51.9494C176.643 52.1675 176.523 52.4611 176.523 52.767C176.523 53.0728 176.643 53.3665 176.858 53.5846C176.972 53.6902 177.106 53.772 177.252 53.8254C177.398 53.8787 177.553 53.9025 177.708 53.8953Z" fill="#333333"/>
</svg>
