<svg width="124" height="89" viewBox="0 0 124 89" fill="none" xmlns="http://www.w3.org/2000/svg">
<g clip-path="url(#clip0_7477_992)">
<path fill-rule="evenodd" clip-rule="evenodd" d="M58.5375 56.0726C53.7691 53.0942 50.2562 42.8157 50.2562 30.6036C50.2562 30.1554 50.2598 29.7138 50.2691 29.2721L50.2749 29.2786C37.0121 27.2 27.4295 21.5056 27.1841 14.7719L27.1452 14.8495C23.9 18.8711 22.0477 23.5209 22.0477 28.4754C22.0477 43.0544 38.0961 54.9999 58.4517 56.0564L58.5375 56.0726ZM15.916 29.5391C15.916 13.2263 36.2734 0 61.3873 0C86.5005 0 106.859 13.2263 106.859 29.5391C106.859 45.852 86.5002 59.0786 61.3873 59.0786C36.2734 59.0786 15.916 45.8516 15.916 29.5391ZM61.3873 4.2631C66.2354 4.2631 70.3591 11.5966 71.8867 21.829L71.8925 21.8136C81.3242 20.3496 87.928 16.9723 87.928 13.0423C87.928 7.76759 76.044 3.49658 61.3873 3.49658C46.7296 3.49658 34.8467 7.76795 34.8467 13.0423C34.8467 16.9723 41.4494 20.3496 50.8821 21.8136L50.8879 21.829C52.4155 11.5969 56.5403 4.2631 61.3873 4.2631ZM64.3222 56.056C84.6777 54.9999 100.728 43.054 100.728 28.4751C100.728 23.5209 98.8739 18.8711 95.6291 14.8492L95.5894 14.7715C95.344 21.5053 85.7639 27.1997 72.4997 29.2782L72.5055 29.2718C72.5145 29.7134 72.5192 30.1551 72.5192 30.6032C72.5192 42.8154 69.0038 53.0938 64.2382 56.0722L64.3222 56.056ZM61.3873 22.5894C63.5593 22.5894 65.6707 22.4971 67.6909 22.3196L67.6873 22.3228C66.6819 15.7634 64.24 11.1341 61.3866 11.1341C58.5332 11.1341 56.0917 15.7634 55.0848 22.3228L55.0812 22.3196C57.1014 22.4971 59.2136 22.5894 61.3855 22.5894H61.3873ZM61.3873 46.8801C65.0372 46.8801 68.0145 39.3059 68.1735 29.8058L68.1929 29.8126C65.9929 30.0156 63.7171 30.1217 61.3877 30.1217C59.0561 30.1217 56.7825 30.0156 54.5824 29.8126L54.603 29.8058C54.7594 39.3055 57.736 46.8801 61.3873 46.8801Z" fill="#333333"/>
<path fill-rule="evenodd" clip-rule="evenodd" d="M61.5215 78.0415C61.5215 71.9893 66.4051 67.0829 72.4266 67.0829C78.4512 67.0829 83.3341 71.9892 83.3341 78.0415C83.3341 84.0943 78.4512 89.0001 72.4266 89.0001C66.4051 89.0001 61.5215 84.0943 61.5215 78.0415ZM72.4266 84.9816C75.7906 84.9816 78.5173 81.8741 78.5173 78.0415C78.5173 74.209 75.7906 71.1011 72.4266 71.1011C69.065 71.1011 66.3388 74.209 66.3388 78.0415C66.3388 81.8739 69.065 84.9816 72.4266 84.9816Z" fill="#333333"/>
<path fill-rule="evenodd" clip-rule="evenodd" d="M102.118 71.6486H95.7233H95.7082V88.5023H91.1135V71.6486H91.1286H84.7026V67.8383H102.118V71.6486Z" fill="#333333"/>
<path fill-rule="evenodd" clip-rule="evenodd" d="M107.677 83.8531L107.673 83.8575L105.91 88.5025H100.544L109.028 67.8383H111.888H114.746L123.231 88.5025H117.864L116.101 83.8575L116.097 83.8531H111.889H107.677ZM111.888 80.3655H114.779L114.777 80.3664L111.908 72.8031H111.868L108.996 80.3664L108.995 80.3655H111.888Z" fill="#333333"/>
<path fill-rule="evenodd" clip-rule="evenodd" d="M17.4161 71.6486H11.0219H11.006V88.5023H6.41085V71.6486H6.42648H0V67.8383H17.4161V71.6486Z" fill="#333333"/>
<path fill-rule="evenodd" clip-rule="evenodd" d="M18.5916 78.0415C18.5916 71.9893 23.4751 67.0829 29.4987 67.0829C35.5219 67.0829 40.4048 71.9892 40.4048 78.0415C40.4048 84.0943 35.5219 89.0001 29.4987 89.0001C23.4751 89.0001 18.5916 84.0943 18.5916 78.0415ZM29.4987 84.9816C32.8609 84.9816 35.5879 81.8741 35.5879 78.0415C35.5879 74.209 32.8611 71.1011 29.4987 71.1011C26.1359 71.1011 23.4089 74.209 23.4089 78.0415C23.4089 81.8739 26.1359 84.9816 29.4987 84.9816Z" fill="#333333"/>
<path fill-rule="evenodd" clip-rule="evenodd" d="M50.9627 76.5238L45.9824 67.8383H40.6155L48.6326 80.6558V80.7524V88.5023H50.9627H53.2926V80.7524V80.6558L61.3088 67.8383H55.9437L50.9627 76.5238Z" fill="#333333"/>
</g>
<defs>
<clipPath id="clip0_7477_992">
<rect width="124" height="89" fill="white"/>
</clipPath>
</defs>
</svg>
