<svg width="243" height="51" viewBox="0 0 243 51" fill="none" xmlns="http://www.w3.org/2000/svg">
<g clip-path="url(#clip0_7477_1123)">
<mask id="mask0_7477_1123" style="mask-type:luminance" maskUnits="userSpaceOnUse" x="0" y="0" width="243" height="51">
<path d="M243 0H0V51H243V0Z" fill="white"/>
</mask>
<g mask="url(#mask0_7477_1123)">
<path fill-rule="evenodd" clip-rule="evenodd" d="M4.55996 34.6747H238.44C240.949 34.6747 243 36.7465 243 39.2822V46.3933C243 48.929 240.949 51.0006 238.44 51.0006H4.55996C2.0504 51.0087 0 48.929 0 46.3933V39.2822C0 36.7465 2.0504 34.6747 4.55996 34.6747Z" fill="#333333"/>
<path fill-rule="evenodd" clip-rule="evenodd" d="M10.1962 13.1815V25.556H11.9141C13.252 25.556 14.1941 25.0921 14.7325 24.1561C15.2707 23.2203 15.5399 21.8445 15.5399 20.0207V18.0609C15.5399 16.4372 15.2074 15.2133 14.5503 14.4054C13.8933 13.5895 12.7216 13.1895 11.0433 13.1895H10.1962V13.1815ZM10.1962 1.10314V12.4777H11.1462C12.4129 12.4777 13.2996 12.0937 13.7983 11.3178C14.297 10.5419 14.5503 9.35809 14.5503 7.75028V6.02251C14.5503 4.19874 14.3287 2.9269 13.8933 2.199C13.4578 1.47109 12.6108 1.11114 11.3679 1.11114H10.1962V1.10314ZM0.696289 0.407227H11.6212C15.0095 0.407227 17.5508 0.871168 19.2449 1.79105C20.9391 2.71093 21.7861 4.27073 21.7861 6.46245C21.7861 9.838 19.7753 11.8537 15.7537 12.5177V12.5896C20.6224 13.2056 23.0607 15.3492 23.0607 19.0128C23.0607 21.7005 22.0632 23.5722 20.0603 24.6441C18.0653 25.7159 15.1837 26.2519 11.4312 26.2519H0.696289V25.548H3.07127V1.10314H0.696289V0.407227Z" fill="#333333"/>
<path fill-rule="evenodd" clip-rule="evenodd" d="M41.4123 14.8454V12.1097C41.4123 7.60631 41.1906 4.75866 40.7552 3.58281C40.2643 2.23098 39.5756 1.39109 38.6731 1.07113C38.1585 0.871155 37.5411 0.775165 36.8048 0.775165C36.0764 0.775165 35.4431 0.871155 34.9206 1.07113C34.3981 1.2711 33.9627 1.61506 33.6224 2.103C33.2819 2.59893 33.0048 3.11087 32.799 3.6548C32.5932 4.19873 32.4269 4.95863 32.3081 5.94251C32.1657 7.37433 32.0865 9.47808 32.0865 12.2537V14.9173C32.0865 17.9169 32.2052 20.0607 32.4348 21.3245C32.6644 22.5963 32.9494 23.5002 33.2977 24.0361C34.0498 25.244 35.2215 25.844 36.8048 25.844C38.7285 25.844 39.9794 25.028 40.5494 23.3882C41.1272 21.7564 41.4123 18.9088 41.4123 14.8454ZM36.7335 26.6278C32.6644 26.6278 29.6245 25.5159 27.6136 23.2843C25.6028 21.0605 24.5974 17.8289 24.5974 13.6055C24.5974 9.38206 25.674 6.06249 27.8353 3.6308C29.9886 1.21511 33.0444 -0.000732422 36.9948 -0.000732422C40.9452 -0.000732422 43.9218 1.15112 45.9326 3.45482C47.9434 5.75853 48.9489 9.02214 48.9489 13.2615C48.9489 17.493 47.9276 20.7806 45.901 23.1243C43.8585 25.46 40.8027 26.6278 36.7335 26.6278Z" fill="#333333"/>
<path fill-rule="evenodd" clip-rule="evenodd" d="M63.7838 25.884C64.9792 25.884 65.7392 25.66 66.0717 25.22C66.4043 24.7801 66.5625 24.0281 66.5625 22.9643V15.7972H64.2271V14.9813H74.756V15.7972H73.3312V26.2119H72.7854C72.3498 25.5959 71.7242 25.292 70.9246 25.292C70.5842 25.292 69.563 25.516 67.8688 25.9559C66.1747 26.4039 64.7338 26.6198 63.5385 26.6198C59.5643 26.6198 56.4927 25.54 54.3077 23.3723C52.1306 21.2046 51.0381 17.9489 51.0381 13.6055C51.0381 9.26206 52.1781 5.90251 54.4581 3.54281C56.7223 1.18311 59.7859 -0.000732422 63.6334 -0.000732422C65.1218 -0.000732422 66.6101 0.191243 68.1142 0.575195C69.6105 0.959145 70.4813 1.14312 70.7267 1.14312C70.9721 1.14312 71.1542 1.08712 71.2729 0.975143C71.3917 0.863154 71.5263 0.671181 71.6767 0.399217H72.0804L72.3736 8.41422H71.7163C70.5208 6.0305 69.3255 4.15074 68.1142 2.78291C66.9109 1.41508 65.5572 0.735174 64.0767 0.735174C60.348 0.735174 58.4877 4.4147 58.4877 11.7817V14.7013C58.4877 18.3969 58.9468 21.1805 59.8572 23.0683C60.7676 24.948 62.0739 25.884 63.7838 25.884Z" fill="#333333"/>
<path fill-rule="evenodd" clip-rule="evenodd" d="M92.8778 14.8454V12.1097C92.8778 7.60631 92.6557 4.75866 92.2202 3.58281C91.7299 2.23098 91.0413 1.39109 90.1385 1.07113C89.6237 0.871155 89.0064 0.775165 88.2702 0.775165C87.5419 0.775165 86.9088 0.871155 86.3861 1.07113C85.8633 1.2711 85.4278 1.61506 85.0874 2.103C84.7471 2.59893 84.4702 3.11087 84.2647 3.6548C84.0584 4.19873 83.8926 4.95863 83.7736 5.94251C83.6309 7.37433 83.5515 9.47808 83.5515 12.2537V14.9173C83.5515 17.9169 83.6705 20.0607 83.9005 21.3245C84.1298 22.5963 84.4147 23.5002 84.755 24.0361C85.5071 25.244 86.6788 25.844 88.2623 25.844C90.1861 25.844 91.4371 25.028 92.0068 23.3882C92.5923 21.7564 92.8778 18.9088 92.8778 14.8454ZM88.1988 26.6278C84.1298 26.6278 81.0898 25.5159 79.0787 23.2843C77.0684 21.0605 76.0625 17.8289 76.0625 13.6055C76.0625 9.38206 77.1391 6.06249 79.3008 3.6308C81.4539 1.21511 84.5019 -0.000732422 88.4519 -0.000732422C92.4026 -0.000732422 95.3792 1.15112 97.3903 3.45482C99.4006 5.75853 100.407 9.02214 100.407 13.2615C100.407 17.493 99.3927 20.7806 97.3586 23.1243C95.3158 25.46 92.2678 26.6278 88.1988 26.6278Z" fill="#333333"/>
<path fill-rule="evenodd" clip-rule="evenodd" d="M121.021 0.407227H130.774V1.10314H128.763V25.556H130.774V26.2599H119.627V25.556H121.638V2.47096H121.496L116.01 26.2599H111.442L105.006 2.35898H104.863V25.556H106.874V26.2599H101.902V25.556H103.913V1.10314H101.902V0.407227H111.774L116.635 19.4287L121.021 0.407227Z" fill="#333333"/>
<path fill-rule="evenodd" clip-rule="evenodd" d="M149.085 14.8454V12.1097C149.085 7.60631 148.863 4.75866 148.428 3.58281C147.937 2.23098 147.249 1.39109 146.346 1.07113C145.832 0.871155 145.214 0.775165 144.478 0.775165C143.749 0.775165 143.116 0.871155 142.593 1.07113C142.071 1.2711 141.636 1.61506 141.296 2.103C140.954 2.59893 140.678 3.11087 140.472 3.6548C140.266 4.19873 140.1 4.95863 139.981 5.94251C139.838 7.37433 139.76 9.47808 139.76 12.2537V14.9173C139.76 17.9169 139.878 20.0607 140.108 21.3245C140.337 22.5963 140.622 23.5002 140.97 24.0361C141.722 25.244 142.894 25.844 144.478 25.844C146.401 25.844 147.652 25.028 148.222 23.3882C148.8 21.7564 149.085 18.9088 149.085 14.8454ZM144.406 26.6278C140.337 26.6278 137.297 25.5159 135.287 23.2843C133.276 21.0605 132.271 17.8289 132.271 13.6055C132.271 9.38206 133.347 6.06249 135.508 3.6308C137.669 1.21511 140.717 -0.000732422 144.668 -0.000732422C148.618 -0.000732422 151.595 1.15112 153.606 3.45482C155.617 5.75853 156.622 9.02214 156.622 13.2615C156.622 17.493 155.609 20.7806 153.574 23.1243C151.531 25.46 148.476 26.6278 144.406 26.6278Z" fill="#333333"/>
<path fill-rule="evenodd" clip-rule="evenodd" d="M157.968 0.407227H171.125V1.22312H167.255V25.452H168.568C170.643 25.452 172.289 24.8121 173.524 23.5323C174.752 22.2524 176.002 20.2847 177.269 17.621H178.037L177.34 26.2599H157.968V25.444H160.121V1.21513H157.968V0.407227Z" fill="#333333"/>
<path fill-rule="evenodd" clip-rule="evenodd" d="M178.836 0.407227H197.844L198.208 7.7183H197.551C196.53 5.23061 195.453 3.52682 194.336 2.60694C193.212 1.67906 191.574 1.22312 189.405 1.22312H188.13V12.6377H189.373C190.521 12.6377 191.479 12.1977 192.263 11.3258C193.039 10.4539 193.592 9.27809 193.91 7.79829H194.455V18.7329H193.838C193.403 16.8851 192.809 15.5733 192.065 14.7813C191.32 13.9975 190.307 13.5975 189.017 13.5975H188.138V25.452H189.523C191.764 25.452 193.672 24.7721 195.239 23.4202C196.815 22.0684 197.891 20.3327 198.478 18.2129H199.206L198.912 26.2599H178.836V25.444H180.99V1.21513H178.836V0.407227Z" fill="#333333"/>
<path fill-rule="evenodd" clip-rule="evenodd" d="M222.116 0.407227L222.481 9.67801H221.784C220.715 6.40646 219.757 4.16674 218.934 2.97489C218.102 1.78305 216.907 1.18313 215.356 1.18313H214.92V25.484H218.024V26.2599H204.684V25.484H207.787V1.18313H207.312C205.752 1.18313 204.549 1.80705 203.695 3.04689C202.839 4.29473 201.905 6.50245 200.884 9.67801H200.187L200.551 0.407227H222.116Z" fill="#333333"/>
<path fill-rule="evenodd" clip-rule="evenodd" d="M233.698 25.852C234.917 25.852 235.993 25.516 236.936 24.8521C237.87 24.1881 238.345 23.1883 238.345 21.8445C238.345 20.5006 237.839 19.4768 236.825 18.7649C235.812 18.0529 234.379 17.429 232.511 16.9011C230.642 16.3732 229.296 15.9092 228.45 15.5173C227.61 15.1253 226.811 14.6054 226.059 13.9655C224.546 12.6856 223.794 10.7019 223.794 8.02223C223.794 5.83052 224.57 3.95076 226.114 2.37496C227.658 0.799162 229.771 0.0152588 232.455 0.0152588C233.745 0.0152588 235.091 0.207234 236.492 0.591185C237.893 0.975133 238.764 1.16711 239.105 1.16711C239.445 1.16711 239.754 0.919143 240.016 0.431205H240.419L240.672 7.89422H240.087C238.915 5.75053 237.696 4.03875 236.413 2.74291C235.131 1.44707 233.745 0.807154 232.249 0.807154C230.753 0.807154 229.589 1.15911 228.758 1.86302C227.927 2.56693 227.515 3.50281 227.515 4.67067C227.515 5.83852 228.006 6.7424 228.995 7.3663C229.985 7.99025 231.196 8.50214 232.629 8.90213C234.07 9.2941 235.012 9.566 235.463 9.71798C235.915 9.86202 236.477 10.07 237.141 10.3259C237.815 10.5819 238.361 10.8539 238.788 11.1418C239.216 11.4218 239.667 11.7817 240.142 12.2137C240.617 12.6457 240.989 13.1176 241.259 13.6375C241.916 14.8213 242.248 16.2212 242.248 17.845C242.248 20.5006 241.425 22.6364 239.778 24.2522C238.131 25.8679 235.97 26.6678 233.294 26.6678C231.901 26.6678 230.318 26.4839 228.52 26.1159C226.731 25.7479 225.734 25.564 225.544 25.564C225.203 25.564 224.871 25.9319 224.554 26.6758H224.04L223.675 17.885H224.293C225.362 20.0287 226.731 21.9004 228.402 23.5002C230.088 25.0521 231.846 25.852 233.698 25.852Z" fill="#333333"/>
<path d="M99.7964 48.9529C98.9412 48.9529 98.1733 48.769 97.5085 48.393C96.8357 48.0171 96.3129 47.5051 95.9329 46.8492C95.5529 46.1933 95.3633 45.4494 95.3633 44.6175C95.3633 43.7856 95.5529 43.0418 95.9329 42.3858C96.3129 41.7299 96.8436 41.2179 97.5085 40.85C98.1812 40.4821 98.9412 40.2981 99.7964 40.2981C100.557 40.2981 101.237 40.4501 101.831 40.762C102.425 41.074 102.892 41.5219 103.217 42.1058L102.061 42.8577C101.8 42.4498 101.467 42.1458 101.079 41.9458C100.691 41.7459 100.256 41.6419 99.7806 41.6419C99.2347 41.6419 98.7357 41.7619 98.3002 42.0099C97.8647 42.2578 97.5164 42.6018 97.2712 43.0577C97.0261 43.5136 96.8992 44.0336 96.8992 44.6175C96.8992 45.2174 97.0261 45.7453 97.2712 46.1933C97.5164 46.6493 97.8647 46.9932 98.3002 47.2412C98.7357 47.4892 99.2347 47.6092 99.7806 47.6092C100.256 47.6092 100.691 47.5051 101.079 47.3051C101.467 47.1052 101.8 46.8013 102.061 46.3933L103.217 47.1292C102.892 47.7131 102.425 48.1691 101.831 48.481C101.237 48.7929 100.557 48.9529 99.7964 48.9529ZM107.357 36.9705H108.877V48.865H107.357V36.9705ZM114.07 40.3621H115.59V48.857H114.07V40.3621ZM114.83 38.7303C114.537 38.7303 114.292 38.6343 114.094 38.4423C113.896 38.2503 113.801 38.0183 113.801 37.7384C113.801 37.4584 113.896 37.2264 114.094 37.0265C114.292 36.8265 114.537 36.7305 114.83 36.7305C115.123 36.7305 115.369 36.8265 115.566 37.0105C115.765 37.1945 115.86 37.4264 115.86 37.7064C115.86 37.9944 115.765 38.2343 115.566 38.4343C115.369 38.6343 115.123 38.7303 114.83 38.7303ZM125.265 40.2821C126.333 40.2821 127.18 40.594 127.814 41.2179C128.439 41.8419 128.755 42.7618 128.755 43.9696V48.857H127.235V44.1455C127.235 43.3217 127.038 42.7057 126.65 42.2898C126.262 41.8739 125.699 41.6659 124.971 41.6659C124.148 41.6659 123.499 41.9058 123.024 42.3938C122.549 42.8818 122.311 43.5776 122.311 44.4816V48.857H120.791V40.3621H122.248V41.6419C122.557 41.202 122.969 40.866 123.491 40.634C123.998 40.4021 124.591 40.2821 125.265 40.2821ZM133.854 40.3621H135.374V48.857H133.854V40.3621ZM134.614 38.7303C134.321 38.7303 134.075 38.6343 133.878 38.4423C133.68 38.2503 133.584 38.0183 133.584 37.7384C133.584 37.4584 133.68 37.2264 133.878 37.0265C134.075 36.8265 134.321 36.7305 134.614 36.7305C134.907 36.7305 135.152 36.8265 135.35 37.0105C135.548 37.1945 135.643 37.4264 135.643 37.7064C135.643 37.9944 135.548 38.2343 135.35 38.4343C135.16 38.6343 134.915 38.7303 134.614 38.7303ZM144.224 48.9529C143.369 48.9529 142.602 48.769 141.936 48.393C141.264 48.0171 140.741 47.5051 140.361 46.8492C139.982 46.1933 139.791 45.4494 139.791 44.6175C139.791 43.7856 139.982 43.0418 140.361 42.3858C140.741 41.7299 141.272 41.2179 141.936 40.85C142.61 40.4821 143.369 40.2981 144.224 40.2981C144.984 40.2981 145.665 40.4501 146.259 40.762C146.853 41.074 147.32 41.5219 147.644 42.1058L146.489 42.8577C146.228 42.4498 145.895 42.1458 145.507 41.9458C145.119 41.7459 144.684 41.6419 144.209 41.6419C143.663 41.6419 143.164 41.7619 142.728 42.0099C142.293 42.2578 141.944 42.6018 141.699 43.0577C141.454 43.5136 141.327 44.0336 141.327 44.6175C141.327 45.2174 141.454 45.7453 141.699 46.1933C141.944 46.6493 142.293 46.9932 142.728 47.2412C143.164 47.4892 143.663 47.6092 144.209 47.6092C144.684 47.6092 145.119 47.5051 145.507 47.3051C145.895 47.1052 146.228 46.8013 146.489 46.3933L147.644 47.1292C147.32 47.7131 146.853 48.1691 146.259 48.481C145.665 48.7929 144.984 48.9529 144.224 48.9529Z" fill="white"/>
</g>
</g>
<defs>
<clipPath id="clip0_7477_1123">
<rect width="243" height="51" fill="white"/>
</clipPath>
</defs>
</svg>
