<svg width="80" height="90" viewBox="0 0 80 90" fill="none" xmlns="http://www.w3.org/2000/svg">
<g clip-path="url(#clip0_7477_1356)">
<path fill-rule="evenodd" clip-rule="evenodd" d="M24.9412 9.85897H12.2876V0.687622H16.1048L24.9412 9.85897Z" fill="#99A1A6"/>
<path fill-rule="evenodd" clip-rule="evenodd" d="M67.9738 43.3114C63.6625 66.365 33.6784 74.8729 18.7192 56.4059C15.5817 52.2708 12.7058 47.8176 12.0269 42.5691V28.3688H43.3581L53.3856 38.2217H24.001L23.7394 49.1429C27.6922 68.9124 57.752 65.803 56.7333 45.7499V0.687622L67.9753 12.0328L67.9738 43.3114Z" fill="#99A1A6"/>
<path fill-rule="evenodd" clip-rule="evenodd" d="M28.9189 14.218L38.1179 23.2188H12.0261V14.2592L28.9189 14.218Z" fill="#99A1A6"/>
<path fill-rule="evenodd" clip-rule="evenodd" d="M40.2007 58.7544C44.8904 58.7544 48.7153 54.8764 48.7153 50.1212C48.7153 45.366 44.8904 41.488 40.2007 41.488C35.5109 41.488 31.6858 45.3662 31.6858 50.1212C31.6858 54.8762 35.5109 58.7544 40.2007 58.7544Z" fill="#99A1A6"/>
<path d="M0.0769043 70.7684H5.66819C6.59998 70.7684 7.31528 71.2063 7.81408 72.0823C8.31289 72.9583 8.56237 74.0425 8.56254 75.335C8.56254 76.4192 8.3846 77.3491 8.0287 78.1247C7.79109 78.6421 7.44383 79.0509 6.9869 79.351C7.68126 79.6679 8.1922 80.2121 8.51972 80.9835C8.84725 81.755 9.01101 82.7246 9.01101 83.8921C9.01101 84.8435 8.89451 85.6985 8.66152 86.457C8.42853 87.2155 8.10981 87.8161 7.70537 88.2587C7.45477 88.5337 7.07673 88.7339 6.57126 88.8591C5.89896 89.026 5.4528 89.1095 5.2328 89.1095H0.0769043V70.7684ZM3.08998 77.9623H4.38921C4.85485 77.9623 5.17896 77.8101 5.36152 77.5057C5.54408 77.2012 5.63537 76.7612 5.63537 76.1858C5.63537 75.6521 5.54408 75.2351 5.36152 74.9346C5.17896 74.6341 4.86143 74.484 4.40896 74.4842H3.08998V77.9623ZM3.08998 85.1685H4.61331C5.12733 85.1685 5.48998 84.9955 5.70126 84.6495C5.91255 84.3036 6.01801 83.8386 6.01767 83.2546C6.01767 82.7124 5.91331 82.2765 5.7046 81.9472C5.49588 81.6178 5.1299 81.4535 4.60665 81.4542H3.08998V85.1685Z" fill="#454D52"/>
<path d="M10.6924 70.7684H13.6857V89.1095H10.6924V70.7684Z" fill="#454D52"/>
<path d="M15.4529 79.9514C15.4529 76.9571 15.8925 74.626 16.7716 72.958C17.6507 71.29 18.8749 70.4559 20.4442 70.4557C22.0529 70.4557 23.2922 71.2752 24.1621 72.9141C25.032 74.5531 25.4672 76.8488 25.4678 79.8014C25.4678 81.9451 25.2777 83.7028 24.8975 85.0745C24.5173 86.4462 23.9678 87.5139 23.249 88.2776C22.5311 89.0404 21.6354 89.422 20.5621 89.4221C19.4722 89.4221 18.5701 89.0927 17.8557 88.4338C17.1413 87.7749 16.5621 86.7323 16.118 85.306C15.6744 83.8798 15.4527 82.0949 15.4529 79.9514ZM18.4395 79.9773C18.4395 81.829 18.6209 83.1595 18.9837 83.9687C19.3464 84.7779 19.8398 85.1823 20.4639 85.1819C21.1054 85.1819 21.6021 84.7858 21.9539 83.9936C22.3057 83.2013 22.4815 81.7792 22.4813 79.7272C22.4813 78.0007 22.2978 76.7393 21.9308 75.9429C21.5638 75.1465 21.066 74.7482 20.4375 74.748C19.8351 74.748 19.3516 75.1525 18.987 75.9616C18.6224 76.7706 18.4399 78.1098 18.4395 79.9773Z" fill="#454D52"/>
<path d="M27.0637 70.7684H32.0286C33.11 70.7684 33.9199 71.2563 34.4583 72.2323C34.9968 73.2082 35.266 74.5969 35.266 76.3983C35.266 78.2491 34.9726 79.6962 34.3858 80.7396C33.7989 81.783 32.9034 82.3043 31.6991 82.3034H30.0637V89.1095H27.0637V70.7684ZM30.0637 78.5879H30.7955C31.3714 78.5879 31.7759 78.3981 32.0088 78.0186C32.2418 77.6391 32.3582 77.1533 32.3581 76.5612C32.3581 75.9855 32.2571 75.4976 32.055 75.0973C31.853 74.697 31.4727 74.4968 30.9142 74.4966H30.0637V78.5879Z" fill="#99A1A6"/>
<path d="M36.8418 70.7684H39.8285V77.1865H43.0923V70.7684H46.0923V89.1095H43.0923V81.6903H39.8285V89.1095H36.8418V70.7684Z" fill="#99A1A6"/>
<path d="M54.0197 86.0818H50.6289L50.1574 89.1095H47.1079L50.741 70.7684H53.9989L57.6307 89.1095H54.5025L54.0197 86.0818ZM53.4 82.1158L52.3328 75.5228L51.2774 82.1158H53.4Z" fill="#99A1A6"/>
<path d="M58.6204 89.1095V70.7684H63.5983C64.5214 70.7684 65.2269 70.9186 65.7147 71.2191C66.2026 71.5195 66.5957 72.0762 66.8942 72.889C67.1932 73.702 67.3426 74.6924 67.3424 75.8604C67.3424 76.878 67.2281 77.7559 66.9993 78.494C66.7706 79.2321 66.4563 79.8306 66.0563 80.2895C65.8012 80.5811 65.4515 80.8228 65.007 81.0147C65.3629 81.2395 65.6222 81.465 65.7847 81.6911C65.8945 81.8412 66.0536 82.1627 66.2622 82.6555C66.4707 83.1483 66.6103 83.528 66.6809 83.7946L68.1273 89.1095H64.7529L63.1565 83.505C62.9541 82.7785 62.7739 82.3073 62.6157 82.0915C62.4004 81.8079 62.1564 81.6661 61.884 81.6659H61.6201V89.11L58.6204 89.1095ZM61.6204 78.1997H62.8796C63.0163 78.1997 63.2802 78.1164 63.6711 77.9496C63.8689 77.8747 64.0304 77.683 64.1557 77.3744C64.281 77.0658 64.3437 76.7112 64.3437 76.3106C64.3437 75.7185 64.2447 75.2639 64.0468 74.9468C63.8488 74.6297 63.4775 74.4713 62.9327 74.4715H61.6204V78.1997Z" fill="#99A1A6"/>
<path d="M69.0508 70.7684H72.9787L74.4934 81.928L75.9975 70.7684H79.9234V89.1095H77.4769V75.1222L75.5921 89.1095H73.3777L71.4967 75.1222V89.1095H69.0505L69.0508 70.7684Z" fill="#99A1A6"/>
</g>
<defs>
<clipPath id="clip0_7477_1356">
<rect width="80" height="89" fill="white" transform="translate(0 0.5)"/>
</clipPath>
</defs>
</svg>
