<svg width="156" height="90" viewBox="0 0 156 90" fill="none" xmlns="http://www.w3.org/2000/svg">
<g clip-path="url(#clip0_7477_1369)">
<mask id="mask0_7477_1369" style="mask-type:luminance" maskUnits="userSpaceOnUse" x="0" y="0" width="156" height="90">
<path d="M155.25 0H0V90H155.25V0Z" fill="white"/>
</mask>
<g mask="url(#mask0_7477_1369)">
<path d="M31.679 73.4476H29.526L30.3197 68.8873H26.1679L25.3669 73.4476H23.2139L25.0729 62.8069H27.2261L26.4692 67.1187H30.6283L31.3779 62.8069H33.5308L31.679 73.4476Z" fill="#333333"/>
<path d="M40.2742 71.2552H36.4737L35.3516 73.4476H32.9351L38.7555 62.8069H40.7829L42.8552 73.4476H40.6184L40.2742 71.2552ZM37.3715 69.4793H39.9974L39.3839 65.5183L37.3715 69.4793Z" fill="#333333"/>
<path d="M45.7359 62.8069H47.9319L46.3505 71.949H50.5776L52.159 62.8069H54.3625L52.781 71.949H54.2351L53.3207 76.4035H51.2596L51.7243 73.7624H43.8472L45.7359 62.8069Z" fill="#333333"/>
<path d="M57.4872 73.4476H55.354L57.1888 62.8069H59.322L57.4872 73.4476Z" fill="#333333"/>
<path d="M64.09 74.0379C63.3703 74.0229 62.7351 73.8528 62.1841 73.5274C61.6381 73.1971 61.2038 72.7242 60.8812 72.1087C60.5635 71.4881 60.3799 70.7775 60.3303 69.9768C60.2756 69.156 60.3626 68.2802 60.5908 67.3494C60.8192 66.4185 61.1864 65.6003 61.6927 64.8947C62.1989 64.189 62.7921 63.6612 63.4721 63.3108C64.157 62.9605 64.8965 62.7928 65.6907 62.8079C66.4202 62.8228 67.0581 62.9981 67.6041 63.3333C68.15 63.6636 68.5795 64.1415 68.8921 64.7672C69.2048 65.3877 69.3835 66.0933 69.4282 66.884C69.4778 67.7648 69.3835 68.6706 69.1452 69.6014C68.9069 70.5322 68.5373 71.3379 68.0359 72.0186C67.5346 72.6992 66.9464 73.2097 66.2714 73.5499C65.6014 73.8902 64.8742 74.0529 64.09 74.0379ZM67.1797 68.1226L67.2392 67.4094C67.289 66.5187 67.1698 65.843 66.8818 65.3826C66.599 64.9223 66.1671 64.682 65.5864 64.6621C64.6782 64.632 63.956 65.0374 63.42 65.8781C62.8889 66.7188 62.5886 67.8949 62.5191 69.4062C62.4695 70.292 62.5861 70.9751 62.8691 71.4556C63.152 71.9309 63.5912 72.1788 64.1868 72.1987C64.9661 72.2338 65.6113 71.9285 66.1225 71.2829C66.6338 70.6323 66.9688 69.714 67.1276 68.5279L67.1797 68.1226Z" fill="#333333"/>
<path d="M78.7913 73.4476H76.5142L77.3536 68.8873H72.9622L72.1151 73.4476H69.8379L71.8042 62.8069H74.0815L73.2808 67.1187H77.6799L78.4727 62.8069H80.7501L78.7913 73.4476Z" fill="#333333"/>
<path d="M87.0968 71.2552H83.2964L82.1742 73.4476H79.7578L85.5781 62.8069H87.6056L89.6778 73.4476H87.4408L87.0968 71.2552ZM84.194 69.4793H86.8199L86.2062 65.5183L84.194 69.4793Z" fill="#333333"/>
<path d="M101.582 62.8069L99.6686 73.4476H97.438L99.0314 64.5829H96.2001L95.153 69.2674C94.799 70.7291 94.2983 71.7862 93.6505 72.4392C93.0076 73.0871 92.1911 73.4233 91.1991 73.4476H90.2729L90.5383 71.6863L90.8728 71.6571C91.48 71.589 91.9783 71.2893 92.368 70.7582C92.7576 70.2223 93.0507 69.3818 93.2479 68.2369L93.385 67.4695L94.3786 62.8069H101.582Z" fill="#333333"/>
<path d="M104.906 66.6438L106.296 66.651C107.454 66.6559 108.364 66.958 109.024 67.5573C109.683 68.1564 109.977 68.9532 109.904 69.947C109.826 71.0044 109.385 71.8521 108.58 72.4903C107.775 73.1286 106.749 73.4476 105.503 73.4476H101.582L103.422 62.8069H105.568L104.906 66.6438ZM104.6 68.4124L104.033 71.6863L105.59 71.6938C106.153 71.6938 106.635 71.5354 107.037 71.2187C107.445 70.897 107.69 70.4659 107.772 69.9252C107.835 69.4817 107.745 69.1261 107.503 68.8581C107.26 68.5853 106.895 68.4391 106.405 68.4196L104.6 68.4124Z" fill="#333333"/>
<path d="M119.698 73.4476H117.462L118.286 68.8873H113.975L113.142 73.4476H110.907L112.838 62.8069H115.074L114.288 67.1187H118.606L119.385 62.8069H121.621L119.698 73.4476Z" fill="#333333"/>
<path d="M128.019 71.2552H124.296L123.195 73.4476H120.827L126.531 62.8069H128.518L130.549 73.4476H128.357L128.019 71.2552ZM125.175 69.4793H127.749L127.147 65.5183L125.175 69.4793Z" fill="#333333"/>
<path d="M24.4098 89.999C23.6902 89.9837 23.0549 89.8135 22.504 89.4883C21.9579 89.1584 21.5236 88.6856 21.201 88.0697C20.8834 87.4492 20.6998 86.7386 20.6501 85.9382C20.5955 85.1168 20.6823 84.241 20.9106 83.3105C21.139 82.38 21.5063 81.5612 22.0126 80.8562C22.5188 80.1505 23.1119 79.6222 23.792 79.2722C24.4769 78.9213 25.2163 78.7544 26.0106 78.7689C26.7401 78.7841 27.378 78.9591 27.9239 79.2947C28.4698 79.6247 28.8992 80.1024 29.2119 80.7285C29.5246 81.3492 29.7033 82.054 29.7479 82.8449C29.7976 83.7255 29.7033 84.6319 29.465 85.5624C29.2268 86.4929 28.8571 87.299 28.3556 87.9798C27.8545 88.6598 27.2663 89.1704 26.5913 89.5108C25.9213 89.8512 25.1941 90.0142 24.4098 89.999ZM27.4995 84.0836L27.5591 83.3707C27.6088 82.4796 27.4896 81.8044 27.2017 81.3436C26.9188 80.8836 26.487 80.6435 25.9063 80.6234C24.9981 80.5929 24.2758 80.9983 23.7398 81.8389C23.2087 82.6803 22.9084 83.8556 22.8389 85.3674C22.7893 86.2529 22.9059 86.9361 23.1889 87.4162C23.4718 87.8923 23.9111 88.1396 24.5067 88.1596C25.2859 88.1949 25.931 87.8898 26.4424 87.2436C26.9536 86.5933 27.2886 85.6748 27.4474 84.4891L27.4995 84.0836Z" fill="#333333"/>
<path d="M38.9816 90.0001H36.7781L38.352 81.1351H34.1325L32.551 90.0001H30.355L32.2513 79.3593H40.8704L38.9816 90.0001Z" fill="#333333"/>
<path d="M48.1804 85.3885H43.9366L43.4195 88.2391H48.4085L48.0891 90.0001H40.8716L42.7958 79.3593H49.9981L49.6711 81.1351H44.7047L44.2408 83.6714H48.4999L48.1804 85.3885Z" fill="#333333"/>
<path d="M52.2511 86.2507L51.5817 90.0001H49.4028L51.2843 79.3593L55.077 79.3672C56.2471 79.3672 57.1668 79.686 57.8361 80.3238C58.5053 80.9624 58.7978 81.7956 58.7136 82.8234C58.6342 83.866 58.1904 84.6992 57.3823 85.3229C56.5792 85.9466 55.553 86.2586 54.3036 86.2586L52.2511 86.2507ZM52.556 84.4749L54.3705 84.4897C54.9556 84.4897 55.4414 84.3412 55.828 84.0442C56.2148 83.7465 56.4453 83.3447 56.5197 82.8382C56.5941 82.3317 56.5098 81.9269 56.2669 81.6252C56.029 81.3226 55.6745 81.1624 55.2034 81.1429L53.1509 81.1351L52.556 84.4749Z" fill="#333333"/>
<path d="M64.1338 87.8077H60.4093L59.3096 90.0001H56.9414L62.6455 79.3593H64.6324L66.6632 90.0001H64.471L64.1338 87.8077ZM61.2891 86.0319H63.8625L63.2613 82.0706L61.2891 86.0319Z" fill="#333333"/>
<path d="M76.4905 84.2991L79.2872 79.3593H81.7417L76.669 87.7862C76.2227 88.5767 75.7442 89.145 75.2334 89.4895C74.7276 89.8301 74.135 90.0001 73.4557 90.0001L72.6152 89.9647L72.7788 88.2177L73.3144 88.2676C73.6565 88.2676 73.9467 88.193 74.1847 88.0446C74.4227 87.8962 74.6483 87.637 74.8615 87.2679L75.1441 86.8151L72.8309 79.3593H75.0549L76.4905 84.2991Z" fill="#333333"/>
<path d="M85.4768 85.652H84.1519L83.3645 90.0001H81.1465L83.0618 79.3593H85.28L84.5078 83.6198H85.4314L88.8157 79.3593H91.6617L87.3615 84.5046L89.9809 90.0001H87.4449L85.4768 85.652Z" fill="#333333"/>
<path d="M93.7167 86.2507L93.0478 90.0001H90.8687L92.7503 79.3593L96.5424 79.3672C97.7124 79.3672 98.6325 79.686 99.3014 80.3238C99.971 80.9624 100.264 81.7956 100.179 82.8234C100.1 83.866 99.6561 84.6992 98.8481 85.3229C98.0448 85.9466 97.0188 86.2586 95.7694 86.2586L93.7167 86.2507ZM94.022 84.4749L95.8362 84.4897C96.4215 84.4897 96.9074 84.3412 97.294 84.0442C97.6805 83.7465 97.9112 83.3447 97.9852 82.8382C98.0599 82.3317 97.9756 81.9269 97.7322 81.6252C97.4945 81.3226 97.1397 81.1624 96.6689 81.1429L94.6169 81.1351L94.022 84.4749Z" fill="#333333"/>
<path d="M105.549 87.8077H101.749L100.627 90.0001H98.21L104.03 79.3593H106.058L108.13 90.0001H105.893L105.549 87.8077ZM102.646 86.0319H105.272L104.659 82.0706L102.646 86.0319Z" fill="#333333"/>
<path d="M111.549 90.0001H109.319L111.237 79.039H113.468L111.549 90.0001ZM109.814 77.3909C109.804 77.1292 109.895 76.9037 110.088 76.7129C110.281 76.5173 110.522 76.4144 110.811 76.4044C111.101 76.3942 111.349 76.4842 111.557 76.6751C111.765 76.8611 111.869 77.0841 111.869 77.345C111.88 77.6115 111.785 77.8393 111.587 78.0301C111.394 78.2162 111.153 78.3136 110.864 78.3241C110.595 78.3337 110.354 78.2516 110.141 78.0752C109.933 77.8949 109.824 77.6663 109.814 77.3909ZM113.414 77.3909C113.404 77.1292 113.495 76.9037 113.689 76.7129C113.881 76.5173 114.122 76.4144 114.411 76.4044C114.696 76.3942 114.939 76.4819 115.142 76.6678C115.351 76.8482 115.46 77.0744 115.47 77.345C115.47 77.6212 115.373 77.8522 115.18 78.0382C114.993 78.2234 114.757 78.3216 114.472 78.3313C114.193 78.3417 113.948 78.2563 113.734 78.0752C113.521 77.8949 113.414 77.6663 113.414 77.3909Z" fill="#333333"/>
<path d="M122.313 90.0001H120.118L120.927 85.4393H116.695L115.879 90.0001H113.685L115.579 79.3593H117.774L117.002 83.6714H121.242L122.006 79.3593H124.2L122.313 90.0001Z" fill="#333333"/>
<path d="M132.437 79.3593H134.716L132.82 90.0001H130.618L131.854 83.0719L126.469 90.0001H124.2L126.095 79.3593H128.288L127.053 86.2945L132.437 79.3593Z" fill="#333333"/>
<path fill-rule="evenodd" clip-rule="evenodd" d="M36.6052 6.50269C37.2763 6.50269 37.8524 6.47919 38.4299 6.45564C39.5882 6.4084 40.7511 6.36096 42.6938 6.50269C43.1198 6.53377 48.0305 8.2258 49.8983 9.35993L47.5453 12.1186L45.0373 13.8921C47.0875 16.6836 52.4775 25.3211 52.4775 25.3211C54.8253 25.551 60.1159 25.5575 62.4968 23.7447C63.1586 23.2408 63.7615 22.8294 64.3034 22.4597C66.1983 21.1669 67.3468 20.3834 67.6553 17.9317C68.052 14.7789 67.5561 7.88205 67.4569 7.78353C67.3577 7.685 66.0681 5.71449 66.0681 4.2366C66.0681 3.0543 66.8617 2.16756 67.2585 1.87199L71.5241 0V5.32038H84.0235V0C85.5115 0.558312 88.5273 1.71434 88.686 1.87199C88.8843 2.06904 89.5788 3.15282 89.3804 4.2366C89.2216 5.10363 88.7191 6.96248 88.4876 7.78353C88.0246 8.63741 87.2773 11.8624 87.9915 17.9317C88.4875 20.2634 91.4636 25.0452 99.3997 25.5182L102.971 25.3211C104.79 22.2011 108.824 15.6261 110.411 14.2863L108.19 12.0968L105.848 9.16289C106.018 9.07837 106.233 8.9584 106.488 8.81597C107.806 8.08048 110.196 6.74612 113.041 6.60122C114.216 6.39413 115.318 6.45551 116.561 6.52477C117.32 6.56698 118.131 6.61212 119.042 6.60122C119.207 7.81637 119.438 10.9758 119.042 13.8921C118.645 16.8085 118.017 20.0992 117.751 21.3801L120.629 20.0992C120.993 18.5228 121.7 14.8576 121.62 12.8083C124.067 12.4471 130.906 12.9856 138.683 18.0302C142.155 19.935 150.329 24.1782 155.25 25.9122L147.413 27.5871C145.164 28.1126 139.437 29.1833 134.517 29.2621C130.502 29.3264 129.252 29.3077 129.054 29.2807C128.892 29.7488 128.774 30.7452 129.557 31.1342C129.828 31.2688 130.263 31.4772 130.776 31.723C132.137 32.376 134.049 33.2933 134.913 33.7943C135.866 34.346 138.683 37.3741 139.972 38.8191C141.362 40.1657 144.259 42.8981 144.735 43.0557C145.33 43.2528 147.909 43.5483 149.1 42.4646C150.051 41.5975 148.505 38.0965 147.611 36.4545C147.611 35.4692 147.73 33.3017 148.206 32.5135C148.405 32.3821 149.1 32.1588 150.29 32.3164C151.48 32.474 152.44 32.7762 152.771 32.9076L149.298 36.2574L149.1 36.6516C149.596 37.9981 150.588 40.8487 150.588 41.4793C150.588 42.1765 150.045 43.182 149.85 43.5413C149.825 43.5882 149.805 43.6241 149.794 43.6468C149.695 43.8439 148.406 44.7307 147.71 44.7307C147.546 44.7307 147.381 44.7362 147.207 44.742C146.653 44.7608 146.015 44.7823 145.033 44.6321C144.001 44.4745 139.312 40.4283 137.096 38.4251L136.6 44.6321L142.949 47.4894L136.799 55.864H129.557C131.839 54.7474 136.56 52.061 137.195 50.2481C137.162 49.7226 136.342 48.5534 133.326 48.0805C132.4 47.8835 130.192 47.8046 128.763 49.0657C127.334 50.3269 124.333 52.2186 123.01 53.0068L119.538 55.7656H112.494C114.048 55.1415 117.454 53.2038 119.538 51.1349C120.166 50.7408 121.462 49.716 121.62 48.7702C121.356 47.8835 120.788 45.7553 120.629 44.3366C120.469 42.9177 121.356 39.5416 121.819 38.0308C118.512 37.5383 111.006 35.7846 107.435 32.7105C106.278 31.6924 103.427 29.7745 101.285 30.2474C99.8957 30.0503 97.0586 30.2671 96.8204 32.7105C95.6301 36.2246 92.7929 43.8045 90.9676 46.0115C89.4898 47.7983 87.4294 51.0317 86.2149 53.3024L86.9003 55.2729C87.1978 55.043 87.9915 54.327 88.7851 53.3024C89.3807 52.5335 90.5098 51.5202 91.6824 50.468C92.4631 49.7673 93.2631 49.0494 93.9375 48.375C95.4145 46.898 97.875 43.3125 97.9117 39.0161C97.9262 37.3128 97.8981 36.3202 97.8824 35.7715C97.8684 35.2765 97.8647 35.1425 97.9117 35.1737L100.987 39.2132C100.987 41.8734 98.11 49.0658 96.8204 51.1349C94.7042 54.0906 92.7532 55.3714 91.5627 55.7656C90.2136 56.0808 86.7681 55.8969 85.2139 55.7656H70.2345H63.588C61.4386 54.0906 56.8423 49.716 55.6519 45.6174C54.4615 41.5187 54.4946 39.7059 54.6599 39.3118C55.0567 38.3922 56.0487 36.356 56.8423 35.5678C56.7101 37.6368 56.8423 42.3267 58.4296 44.5336C60.4136 47.2923 63.2904 49.9525 63.8856 50.2481C64.3618 50.4846 66.5971 53.171 67.6553 54.4847L68.4488 55.2729L69.4972 54.1516C68.3208 51.6972 66.218 47.736 63.588 43.9424C62.1662 40.9538 59.1438 34.287 58.4296 31.5282C57.2391 30.543 53.9655 29.0847 50.3943 31.1342C49.2771 31.7752 48.5452 32.3298 47.8581 32.8506C45.799 34.4109 44.1413 35.667 33.7284 38.0308C34.2906 39.4759 35.2164 43.2134 34.4229 46.6027C34.1913 47.2594 33.8673 48.7702 34.4229 49.5584C35.1173 50.5437 39.5813 54.7803 42.855 55.7656H36.4069C36.1754 55.7983 35.3157 55.4306 33.7284 53.6965C32.4388 53.2038 29.3834 51.7259 27.4788 49.7555C26.305 48.5411 25.8747 48.0376 25.7792 47.8763C23.8451 47.7624 19.7881 48.0415 18.1538 50.051C19.2781 51.3975 22.0029 54.2285 23.9075 54.7803C25.8121 55.332 26.0238 55.667 25.8915 55.7656H18.9475L12.6978 47.4894L18.9475 44.435L18.5507 38.622L12.4993 43.4499C11.9703 43.9097 10.4757 44.7897 8.72971 44.6321C6.98376 44.4745 5.68754 43.7783 5.25767 43.4499V35.9619C4.89393 35.5021 3.53157 34.6811 0.992013 35.0751C1.42189 34.1227 2.53955 32.1785 3.57124 32.0209C4.86087 31.8238 8.1345 31.8238 8.43211 33.0062C8.6702 33.9519 7.9361 36.6188 7.5393 37.8339L6.24968 41.2822C6.21662 41.6107 6.34888 42.366 7.14249 42.7601C7.9361 43.1542 8.92811 43.1871 9.32492 43.1542C9.7548 43.1542 10.7534 43.0755 11.3089 42.7601C11.8645 42.4449 16.3682 37.8339 18.5507 35.5678C19.6418 34.484 22.4989 32.2179 25.1971 31.8238L26.7843 31.3311C26.7843 30.5758 26.7248 29.065 26.4868 29.065C26.4503 29.065 26.356 29.0769 26.2051 29.0958C25.121 29.2313 21.1124 29.7327 14.5826 28.8681C8.63051 28.0798 2.38083 26.7661 0 26.2078L9.02731 21.9713C10.6476 21.3144 14.7016 19.4687 17.9554 17.3405C22.0227 14.6804 28.7721 12.7013 29.8595 12.6113C30.0633 12.5944 30.2582 12.5747 30.4524 12.555C31.3932 12.4597 32.3163 12.3663 34.1252 12.6113C33.9599 14.2206 33.8078 17.6558 34.5221 18.5228C35.2362 19.3898 36.9359 20.986 37.6965 21.6756C37.2666 18.9826 36.4267 13.301 36.506 12.1186C36.5854 10.9364 36.6052 7.88205 36.6052 6.50269ZM84.6185 37.5382C84.6185 39.9869 81.4651 41.9718 77.5752 41.9718C73.6853 41.9718 70.5319 39.9869 70.5319 37.5382C70.5319 35.0895 73.6853 33.1046 77.5752 33.1046C81.4651 33.1046 84.6185 35.0895 84.6185 37.5382ZM71.7226 7.58647H84.222L83.9243 28.1783H71.7226V7.58647Z" fill="#333333"/>
</g>
</g>
<defs>
<clipPath id="clip0_7477_1369">
<rect width="156" height="90" fill="white"/>
</clipPath>
</defs>
</svg>
