<svg width="180" height="36" viewBox="0 0 180 36" fill="none" xmlns="http://www.w3.org/2000/svg">
<g clip-path="url(#clip0_7477_1344)">
<path d="M149.35 19.1349C147.836 19.1349 146.601 18.5244 145.594 17.9272C145.3 17.7585 145.01 17.6825 144.657 17.6825C144.112 17.6825 143.683 17.8598 143.617 17.8887C143.531 17.9441 143.4 18.0136 143.238 18.0545C143.085 18.1202 142.916 18.1533 142.737 18.1533C142.485 18.1533 142.224 18.0863 141.981 17.9594C141.795 17.8817 141.632 17.7552 141.509 17.5932L141.507 17.5912C141.42 17.4796 141.289 17.3118 141.207 17.0729C141.11 16.8567 141.09 16.6244 141.09 16.4665C141.09 16.1255 141.198 15.7907 141.393 15.5138C140.527 14.9852 139.763 14.2656 139.171 13.4187C138.231 12.0746 137.734 10.4801 137.734 8.80782C137.734 4.57505 140.983 1.11395 144.978 1.09287C148.981 1.11436 152.237 4.57505 152.237 8.80782C152.237 11.6812 150.715 14.314 148.321 15.6527C148.694 15.7986 149.026 15.8697 149.327 15.8697C149.821 15.8697 150.327 15.6552 150.92 15.1947L150.936 15.1824C151.229 14.9678 151.567 14.855 151.917 14.855C152.403 14.855 152.859 15.0749 153.167 15.458L153.186 15.4808L153.202 15.5047C153.414 15.8085 153.526 16.1561 153.526 16.5095C153.526 16.9865 153.329 17.4386 152.985 17.7503L152.961 17.7722L152.935 17.7924C151.782 18.6831 150.575 19.1349 149.35 19.1349ZM144.985 4.39402C142.774 4.39402 140.976 6.3738 140.976 8.80741C140.976 11.253 142.774 13.2427 144.985 13.2427C147.196 13.2427 148.996 11.253 148.996 8.80741C148.996 6.3738 147.196 4.39402 144.985 4.39402ZM171.896 16.4905L171.866 16.4884C170.928 16.4206 170.273 15.7544 170.273 14.8678V2.89865C170.273 2.00382 170.991 1.27555 171.873 1.27555H178.394C179.289 1.27555 179.992 1.98852 179.992 2.89865C179.992 3.82117 179.29 4.54364 178.394 4.54364H173.493V7.25954H177.63C178.513 7.25954 179.232 7.99565 179.232 8.90082C179.232 9.79647 178.513 10.5255 177.63 10.5255H173.493V13.2249H178.394C179.289 13.2249 179.992 13.9465 179.992 14.8674C179.992 15.7775 179.29 16.4905 178.394 16.4905H171.896ZM161.363 16.4905C157.903 16.4905 155.088 13.6295 155.088 10.1127V2.89865C155.088 2.01911 155.822 1.27555 156.69 1.27555C157.583 1.27555 158.309 2.00382 158.309 2.89865V10.1122C158.309 11.8138 159.68 13.21 161.365 13.2245C163.064 13.21 164.45 11.8138 164.45 10.1122V2.89865C164.45 2.01911 165.183 1.27555 166.05 1.27555C166.945 1.27555 167.673 2.00382 167.673 2.89865V10.1122C167.673 13.6291 164.843 16.4905 161.363 16.4905ZM133.267 16.4905C132.382 16.4905 131.663 15.7622 131.663 14.8674V2.89865C131.663 2.01911 132.397 1.27555 133.267 1.27555C134.159 1.27555 134.886 2.00382 134.886 2.89865V14.867C134.886 15.7622 134.159 16.4905 133.267 16.4905ZM123.318 16.4905C122.434 16.4905 121.714 15.7622 121.714 14.8674V4.54406H119.062C118.18 4.54406 117.462 3.80587 117.462 2.89906C117.462 2.01952 118.195 1.27597 119.062 1.27597H127.572C128.441 1.27597 129.175 2.01911 129.175 2.89906C129.175 3.80629 128.456 4.54406 127.572 4.54406H124.919V14.8674C124.919 15.7622 124.201 16.4905 123.318 16.4905ZM109.167 16.4905C105.709 16.4905 102.895 13.6295 102.895 10.1127V2.89865C102.895 2.01911 103.628 1.27555 104.495 1.27555C105.388 1.27555 106.115 2.00382 106.115 2.89865V10.1122C106.115 11.8138 107.486 13.21 109.172 13.2245C110.871 13.21 112.256 11.8138 112.256 10.1122V2.89865C112.256 2.01911 112.99 1.27555 113.858 1.27555C114.752 1.27555 115.478 2.00382 115.478 2.89865V10.1122C115.478 13.6291 112.647 16.4905 109.167 16.4905ZM93.6584 16.4905C89.5925 16.4905 86.3918 13.1116 86.3718 8.79831V8.78798C86.3918 4.47214 89.5925 1.09204 93.6584 1.09204C97.693 1.09204 100.87 4.47172 100.89 8.78674C100.869 13.1075 97.693 16.4905 93.6584 16.4905ZM93.6584 4.37666C91.3788 4.37666 89.5933 6.31635 89.5933 8.79253C89.5933 11.2364 91.4171 13.2245 93.6584 13.2245C95.8463 13.2245 97.6371 11.2339 97.651 8.78757C97.6371 6.35686 95.8463 4.37666 93.6584 4.37666ZM76.4688 16.4905C75.5392 16.4905 74.811 15.7775 74.811 14.8674V2.89865C74.811 2.01911 75.5457 1.27555 76.415 1.27555H79.2373C81.6193 1.27555 83.5573 3.24666 83.5573 5.66951C83.5573 6.42547 83.3587 7.16737 82.9811 7.82909C84.1383 8.74293 84.8229 10.1503 84.8229 11.6361C84.8229 14.3127 82.6745 16.4901 80.034 16.4901L76.4688 16.4905ZM80.0349 13.2249C80.8956 13.2249 81.583 12.5276 81.6018 11.6365C81.583 10.7611 80.8809 10.0494 80.0349 10.0494H78.0345V13.2249H80.0349ZM79.2377 6.76315C79.8432 6.76315 80.3362 6.27254 80.3362 5.66951C80.3362 5.04871 79.8436 4.54364 79.2377 4.54364H78.0345V6.76315H79.2377ZM56.6856 16.4905C55.802 16.4905 55.0828 15.7622 55.0828 14.8674V2.89865C55.0828 2.05631 55.7298 1.3454 56.5559 1.27969L56.5881 1.27721L60.2671 1.27555C62.899 1.27555 65.04 3.4529 65.04 6.12871C65.04 7.36659 64.5638 8.57016 63.7263 9.46706C64.267 10.0713 64.8394 11.0351 64.8394 12.4069C64.8394 12.8033 64.8623 13.0703 64.8863 13.2422C65.2215 13.4344 65.4743 13.7337 65.6039 14.0953C65.6671 14.2726 65.6879 14.5458 65.6879 14.6198C65.6879 15.3274 65.2737 15.9441 64.6323 16.1913L64.5683 16.2161L64.501 16.2297C64.3139 16.2677 64.1724 16.2896 63.9999 16.2896C63.4095 16.2896 62.5614 15.966 62.1121 15.0546C61.7839 14.4243 61.6371 13.6076 61.6371 12.4069C61.6371 12.0031 61.476 11.7159 61.0813 11.415C60.7071 11.1488 60.2227 11.0037 60.1256 10.9888L60.0967 10.9843L60.0681 10.9777C60.0294 10.9686 59.9854 10.9558 59.9364 10.9388L58.3022 10.9545V14.867C58.3031 15.7622 57.5777 16.4905 56.6856 16.4905ZM60.1656 7.71791C61.1193 7.69311 61.8381 7.01031 61.8381 6.12912C61.8381 5.25496 61.1335 4.54406 60.2679 4.54406H58.3031V7.71791H60.1656ZM45.974 16.4905C42.5144 16.4905 39.7002 13.6295 39.7002 10.1127V2.89865C39.7002 2.01911 40.4341 1.27555 41.303 1.27555C42.1964 1.27555 42.9233 2.00382 42.9233 2.89865V10.1122C42.9233 11.8138 44.2937 13.21 45.9777 13.2245C47.6767 13.21 49.0622 11.8138 49.0622 10.1122V2.89865C49.0622 2.01911 49.7961 1.27555 50.665 1.27555C51.5567 1.27555 52.2825 2.00382 52.2825 2.89865V10.1122C52.2821 13.6291 49.4524 16.4905 45.974 16.4905ZM31.462 16.4905C30.58 16.4905 29.8624 15.7622 29.8624 14.8674V4.54406H27.2093C26.3265 4.54406 25.6081 3.80587 25.6081 2.89906C25.6081 2.00423 26.3265 1.27597 27.2093 1.27597H35.7195C36.6022 1.27597 37.3207 2.00423 37.3207 2.89906C37.3207 3.80629 36.6022 4.54406 35.7195 4.54406H33.0648V14.8674C33.0648 15.7622 32.3455 16.4905 31.462 16.4905ZM24.9737 16.4905C24.3205 16.4905 23.7175 16.073 23.4736 15.4514L22.6288 13.1687H18.4683L17.6227 15.4444C17.3739 16.0801 16.7844 16.4905 16.1206 16.4905C16.0415 16.4905 15.7153 16.4603 15.5342 16.3905L15.5212 16.3851C14.9145 16.1363 14.5084 15.5213 14.5084 14.8533C14.5084 14.7178 14.5536 14.4421 14.6144 14.2759L19.0171 2.351L19.0277 2.32662C19.296 1.72152 19.8888 1.33053 20.5384 1.33053C21.2393 1.33053 21.8562 1.76037 22.0747 2.40019L26.5638 14.5545L26.5353 14.5595C26.5577 14.6748 26.5728 14.7922 26.5728 14.8674C26.5728 15.5316 26.1704 16.1417 25.5714 16.3851L25.5335 16.4004L25.4944 16.412C25.4177 16.4347 25.0927 16.4905 24.9737 16.4905ZM21.4256 9.90269L20.5522 7.54307L19.6736 9.90269H21.4256ZM10.1175 16.4905C9.65269 16.4905 9.24169 16.307 8.92814 15.9602C8.8205 15.8585 8.74548 15.7498 8.70756 15.6895L3.26309 8.01839V14.8674C3.26309 15.7622 2.54344 16.4905 1.65866 16.4905C0.777548 16.4905 0.0607525 15.7622 0.0607525 14.8674V3.78686H0.0395508V2.94535C0.0395508 2.85773 0.0464818 2.7701 0.0607525 2.68414V2.5279L0.0986714 2.51137C0.192042 2.17617 0.392648 1.87486 0.672761 1.65291L0.702933 1.62894L0.735144 1.60827C1.01607 1.42559 1.3341 1.32887 1.65499 1.32887C1.77242 1.32887 1.88944 1.34168 2.0036 1.36731L2.0138 1.36979C2.42031 1.46692 2.76199 1.70499 2.97809 2.04184L8.51633 9.82788V3.02843C8.51633 2.1336 9.23435 1.40534 10.1175 1.40534C11.0113 1.40534 11.7382 2.1336 11.7382 3.02843V14.8674C11.7378 15.7622 11.0108 16.4905 10.1175 16.4905Z" fill="#99A1A6"/>
<path d="M8.47964 35.0898C7.72126 35.0898 7.10436 34.4653 7.10436 33.6978V30.1098H2.80276V33.6978C2.80276 34.4653 2.18015 35.0898 1.41484 35.0898C0.656452 35.0898 0.0395508 34.4653 0.0395508 33.6978V23.7207C0.0395508 22.9664 0.669092 22.3287 1.41484 22.3287C2.18015 22.3287 2.80276 22.9532 2.80276 23.7207V27.3087H7.10476V23.7207C7.10476 22.9664 7.7343 22.3287 8.48005 22.3287C9.24537 22.3287 9.86797 22.9532 9.86797 23.7207V33.6978C9.86797 34.4653 9.24537 35.0898 8.47964 35.0898Z" fill="#454D52"/>
<path d="M28.2572 35.0897C27.5008 35.0897 26.8856 34.4652 26.8856 33.6977V25.1313H24.7124C23.9552 25.1313 23.3391 24.4985 23.3391 23.7211C23.3391 22.9536 23.9552 22.329 24.7124 22.329H31.8065C32.5637 22.329 33.1797 22.9536 33.1797 23.7211C33.1797 24.499 32.5637 25.1313 31.8065 25.1313H29.6317V33.6977C29.6312 34.4652 29.0148 35.0897 28.2572 35.0897Z" fill="#454D52"/>
<path d="M21.1879 35.0439C20.6277 35.0439 20.1107 34.686 19.9015 34.1532L19.2063 32.2747H15.7915L15.0976 34.1433C14.8827 34.6917 14.3771 35.0439 13.8083 35.0439C13.7313 35.0439 13.4597 35.0174 13.3056 34.9579L13.2938 34.9534C12.7735 34.7401 12.4253 34.2127 12.4253 33.6407C12.4253 33.5245 12.464 33.2881 12.5162 33.1459L16.1866 23.204L16.196 23.1826C16.4256 22.6643 16.9336 22.3295 17.4902 22.3295C18.0908 22.3295 18.6196 22.6981 18.8071 23.247L22.467 33.1559C22.5138 33.2865 22.5591 33.5316 22.5591 33.6523C22.5591 34.2218 22.2138 34.7446 21.7004 34.9534L21.667 34.967L21.6323 34.9773C21.5655 34.9968 21.2923 35.0439 21.1879 35.0439ZM18.1747 29.4745L17.502 27.6571L16.8251 29.4745H18.1747Z" fill="#454D52"/>
<path d="M48.0327 35.0897C47.2747 35.0897 46.6582 34.4652 46.6582 33.6977V23.7207C46.6582 22.9986 47.2131 22.3886 47.9218 22.3323L47.9499 22.3303L51.0185 22.329C53.2338 22.329 55.0355 24.1613 55.0355 26.4138C55.0355 27.5211 54.5825 28.5961 53.7928 29.3628L53.7879 29.3678L53.7826 29.3724C53.5241 29.5955 53.1746 29.7737 52.3971 30.0791C51.5779 30.4007 51.0605 30.4461 50.6402 30.4635C50.3808 30.4743 49.7709 30.4767 49.419 30.4776V33.6985C49.419 34.4652 48.7972 35.0897 48.0327 35.0897ZM50.9329 27.6988C51.7064 27.6786 52.289 27.1264 52.289 26.4134C52.289 25.7062 51.719 25.1309 51.0185 25.1309H49.4194V27.6988H50.9329Z" fill="#454D52"/>
<path d="M66.8955 35.0898C66.8869 35.0898 66.8788 35.0894 66.8702 35.089C66.8629 35.0894 66.8551 35.0898 66.847 35.0898C66.2623 35.0898 65.7416 34.712 65.5508 34.1495L65.5491 34.145C65.5451 34.1346 65.5414 34.1247 65.5381 34.114C65.5332 34.0987 65.5296 34.083 65.5255 34.0673L65.5222 34.054L65.5186 34.04C65.5129 34.0197 65.5076 33.9991 65.5035 33.9784C65.501 33.9668 65.4994 33.9548 65.4978 33.9424L65.4953 33.9271C65.4908 33.9015 65.4859 33.8722 65.4827 33.8399C65.4778 33.7928 65.4753 33.7449 65.4753 33.6978V23.7207C65.4753 23.0222 66.0009 22.432 66.6737 22.3419L66.6794 22.3303L66.825 22.3287H72.1577C72.9149 22.3287 73.531 22.9532 73.531 23.7207C73.531 24.4986 72.9149 25.131 72.1577 25.131H68.2219V26.9028H69.2041C70.1794 26.9169 70.3205 26.9529 70.9149 27.1045L71.0634 27.1426C71.7512 27.317 72.1402 27.6332 72.2144 27.6981C73.3275 28.504 73.9554 29.8076 73.8947 31.1885C73.8482 32.2462 73.3981 33.2311 72.627 33.9627C71.8613 34.6893 70.8615 35.0894 69.812 35.0894L66.8955 35.0898ZM69.8679 32.2896C70.5639 32.2896 71.12 31.7254 71.1355 31.0046C71.1196 30.2962 70.5521 29.7208 69.8679 29.7208H68.239V32.29L69.8679 32.2896Z" fill="#454D52"/>
<path d="M91.7617 35.0897C91.0054 35.0897 90.3901 34.4652 90.3901 33.6977V25.1313H88.2169C87.4597 25.1313 86.8438 24.4985 86.8438 23.7211C86.8438 22.9536 87.4597 22.329 88.2169 22.329H95.3111C96.0682 22.329 96.6843 22.9536 96.6843 23.7211C96.6843 24.499 96.0682 25.1313 95.3111 25.1313H93.1367V33.6977C93.1363 34.4652 92.5197 35.0897 91.7617 35.0897Z" fill="#454D52"/>
<path d="M100.603 35.0898C99.8442 35.0898 99.2273 34.4653 99.2273 33.6978V23.7207C99.2273 22.9664 99.8568 22.3287 100.603 22.3287C101.368 22.3287 101.991 22.9532 101.991 23.7207V33.6978C101.991 34.4653 101.368 35.0898 100.603 35.0898Z" fill="#454D52"/>
<path d="M106.653 35.0902C105.973 35.0158 105.44 34.4297 105.427 33.7332C105.426 33.7246 105.426 33.7167 105.426 33.7089V23.7318C105.426 23.7223 105.427 23.7141 105.427 23.7058C105.438 23.0118 105.972 22.4241 106.653 22.3493L106.823 22.26L106.866 22.3414C107.6 22.3757 108.187 22.9862 108.187 23.7318V26.9549L109.505 26.9677C109.545 26.954 109.581 26.9437 109.612 26.9363L109.637 26.9305L109.662 26.9263C109.739 26.9144 110.141 26.7924 110.443 26.5775C110.772 26.3254 110.89 25.9096 110.89 25.6041C110.89 24.5973 111.013 23.9112 111.29 23.3797C111.672 22.6039 112.395 22.3286 112.898 22.3286C113.044 22.3286 113.169 22.348 113.323 22.3795L113.382 22.3914L113.439 22.4134C113.989 22.625 114.344 23.1536 114.344 23.7595C114.344 23.8327 114.323 24.0658 114.272 24.2096C114.162 24.5142 113.952 24.7672 113.673 24.9321C113.653 25.0743 113.636 25.29 113.636 25.6041C113.636 26.8705 113.059 27.903 112.564 28.4019L112.558 28.4085L112.551 28.4147C112.542 28.4225 112.383 28.5589 112.181 28.7197C112.383 28.8805 112.542 29.0169 112.551 29.0248L112.558 29.031L112.564 29.0376C112.816 29.2913 113.636 30.2391 113.636 31.7758C113.636 32.0899 113.653 32.3057 113.673 32.4478C113.952 32.6132 114.162 32.8653 114.272 33.1699C114.323 33.3146 114.344 33.5477 114.344 33.6204C114.344 34.2267 113.989 34.755 113.439 34.9666L113.382 34.9885L113.323 35.0005C113.169 35.0319 113.044 35.0509 112.898 35.0509C112.395 35.0509 111.672 34.7756 111.29 33.9998C111.013 33.4687 110.89 32.7822 110.89 31.7754C110.89 31.5613 110.832 31.1587 110.443 30.8615C110.141 30.647 109.739 30.5247 109.663 30.5131L109.637 30.509L109.612 30.5032C109.58 30.4957 109.545 30.4854 109.505 30.4718L108.187 30.4846V33.7076C108.187 34.4532 107.601 35.0637 106.866 35.098L106.823 35.1794L106.653 35.0902Z" fill="#454D52"/>
<path d="M38.8177 35.0439C38.8104 35.0439 38.801 35.0439 38.7904 35.0431C38.7823 35.0435 38.7741 35.0439 38.7659 35.0439C38.1641 35.0439 37.6345 34.674 37.4477 34.123L37.4449 34.1144L37.4428 34.1057C37.4392 34.092 37.4082 33.9643 37.4082 33.7449C37.4082 33.6258 37.4755 33.284 37.526 33.1451L38.1935 31.3377L35.5652 25.4868L35.0282 24.3551L35.0262 24.3506C34.7971 23.8125 34.9088 23.2012 35.3112 22.7932C35.3161 22.7883 35.323 22.7817 35.3308 22.7742C35.3365 22.768 35.3418 22.7618 35.3479 22.756C35.6162 22.4841 35.9803 22.3282 36.3469 22.3282C36.5491 22.3282 36.7428 22.3733 36.9222 22.4622L36.9283 22.4655L37.1077 22.5684L37.1301 22.5911C37.3862 22.8507 37.4893 23.0788 37.5448 23.2012L39.5492 27.6637L40.7488 24.4151L41.1581 23.2301L41.1597 23.2256C41.373 22.6808 41.8786 22.3287 42.4478 22.3287C42.4551 22.3287 42.4641 22.3287 42.4751 22.3295C42.4833 22.3291 42.4914 22.3287 42.5 22.3287C43.1018 22.3287 43.6314 22.6986 43.8182 23.2495L43.8206 23.2561L43.8757 23.4574V23.4893C43.8757 23.8563 43.7896 24.0915 43.7436 24.2179L40.5172 32.9571L40.1078 34.1421L40.1062 34.1466C40.0793 34.2156 40.0462 34.2838 40.0079 34.3495C39.7547 34.7843 39.3099 35.0439 38.8177 35.0439Z" fill="#454D52"/>
<path d="M79.8045 35.0439C79.7972 35.0439 79.7878 35.0439 79.7772 35.0431C79.7691 35.0435 79.7609 35.0439 79.7528 35.0439C79.1509 35.0439 78.6213 34.674 78.4346 34.123L78.4317 34.1144L78.4297 34.1057C78.426 34.092 78.395 33.9643 78.395 33.7449C78.395 33.6258 78.4623 33.284 78.5128 33.1451L79.1803 31.3377L76.552 25.4868L76.0151 24.3551L76.013 24.3506C75.7839 23.8125 75.8956 23.2012 76.298 22.7932C76.3033 22.7879 76.3098 22.7817 76.3176 22.7742C76.3233 22.768 76.3286 22.7618 76.3347 22.756C76.603 22.4841 76.9671 22.3282 77.3337 22.3282C77.5359 22.3282 77.7296 22.3733 77.909 22.4622L77.9151 22.4655L78.0945 22.5684L78.1169 22.5911C78.373 22.8507 78.4761 23.0784 78.5316 23.2012L80.536 27.6637L81.7356 24.4151L82.1449 23.2301L82.1466 23.2256C82.3598 22.6808 82.8654 22.3287 83.4346 22.3287C83.4419 22.3287 83.4509 22.3287 83.4619 22.3295C83.4701 22.3291 83.4782 22.3287 83.4868 22.3287C84.0886 22.3287 84.6183 22.6986 84.805 23.2495L84.8074 23.2561L84.8625 23.4574V23.4893C84.8625 23.8563 84.7764 24.0915 84.7304 24.2179L81.504 32.9571L81.0946 34.1421L81.093 34.1466C81.0661 34.2156 81.033 34.2838 80.9947 34.3499C80.7411 34.7843 80.2967 35.0439 79.8045 35.0439Z" fill="#454D52"/>
</g>
<defs>
<clipPath id="clip0_7477_1344">
<rect width="180" height="35" fill="white" transform="translate(0 0.5)"/>
</clipPath>
</defs>
</svg>
