<svg width="180" height="53" viewBox="0 0 180 53" fill="none" xmlns="http://www.w3.org/2000/svg">
<path d="M74.7458 24.2029C74.7458 23.2556 74.3916 22.5982 73.6825 22.2326C72.9734 21.8661 72.0273 21.6829 70.8461 21.6829H67.7833V26.9168H70.878C71.3076 26.9168 71.7531 26.8795 72.2155 26.8038C72.6779 26.7291 73.0968 26.5939 73.4731 26.4C73.8485 26.2061 74.1547 25.9312 74.3916 25.5754C74.6277 25.2214 74.7458 24.7633 74.7458 24.2029ZM74.0047 15.1245C74.0047 14.3489 73.7092 13.784 73.1181 13.4282C72.527 13.0733 71.6519 12.8954 70.4911 12.8954H67.7833V17.6125H70.7484C71.7806 17.6125 72.5802 17.4034 73.1509 16.9836C73.7198 16.562 74.0047 15.9446 74.0047 15.1245ZM80.2581 24.7197C80.2581 25.9695 80.0113 27.0191 79.517 27.8695C79.0218 28.7208 78.3668 29.4048 77.5503 29.9216C76.7338 30.4384 75.8046 30.8102 74.7626 31.0362C73.7198 31.2621 72.6512 31.3751 71.5552 31.3751H62.4653V8.50208H71.5552C72.4356 8.50208 73.3382 8.5928 74.263 8.77604C75.1869 8.95928 76.0247 9.27239 76.7764 9.71358C77.529 10.1548 78.1414 10.7525 78.6144 11.5069C79.0866 12.2603 79.3235 13.2183 79.3235 14.3818C79.3235 15.6529 78.9792 16.7025 78.2922 17.5315C77.6035 18.3606 76.7018 18.9592 75.5845 19.3248V19.3889C76.2288 19.4974 76.8358 19.6966 77.4056 19.9866C77.9745 20.2775 78.4688 20.6493 78.8878 21.1021C79.3075 21.5539 79.6404 22.0814 79.8871 22.6845C80.1338 23.2876 80.2581 23.9663 80.2581 24.7197Z" fill="#333333"/>
<path d="M96.6403 15.5131C96.6403 14.9741 96.5267 14.5382 96.2995 14.2037C96.0732 13.8702 95.7821 13.6122 95.4253 13.4281C95.0685 13.2457 94.67 13.1221 94.2271 13.0572C93.7843 12.9922 93.3574 12.9602 92.9474 12.9602H89.9999V18.2911H92.6234C93.0769 18.2911 93.5411 18.2537 94.0168 18.1781C94.4916 18.1025 94.9229 17.9673 95.3126 17.7751C95.7013 17.5803 96.019 17.3001 96.2675 16.9337C96.516 16.5672 96.6403 16.094 96.6403 15.5131ZM96.8657 31.3749L91.9107 22.2974H90.0319V31.3749H84.6492V8.50195H93.3521C94.4481 8.50195 95.5176 8.61492 96.5595 8.84174C97.6014 9.06679 98.5369 9.44928 99.364 9.98833C100.191 10.5265 100.851 11.2372 101.347 12.1196C101.84 13.0038 102.088 14.1023 102.088 15.4153C102.088 16.9657 101.669 18.2697 100.83 19.3247C99.9924 20.3796 98.8324 21.134 97.3494 21.5867L103.313 31.3749H96.8657Z" fill="#333333"/>
<path d="M119.001 14.6076L116.099 22.4584H121.837L119.001 14.6076ZM125.125 31.3749L123.352 26.8847H114.52L112.844 31.3749H106.848L116.421 8.50195H121.773L131.249 31.3749H125.125Z" fill="#333333"/>
<path d="M144.418 31.3749H138.906L130.267 8.50195H136.456L141.743 24.7196H141.872L147.126 8.50195H153.218L144.418 31.3749Z" fill="#333333"/>
<path d="M174.102 19.8415C174.102 18.8515 173.94 17.9246 173.618 17.0627C173.296 16.2034 172.85 15.4651 172.28 14.8496C171.712 14.2358 171.023 13.751 170.218 13.397C169.412 13.0403 168.525 12.8633 167.558 12.8633C166.592 12.8633 165.71 13.0403 164.915 13.397C164.12 13.751 163.433 14.2358 162.852 14.8496C162.272 15.4651 161.826 16.2034 161.514 17.0627C161.203 17.9246 161.047 18.8515 161.047 19.8415C161.047 20.876 161.209 21.8278 161.531 22.7004C161.852 23.573 162.299 24.3211 162.868 24.9464C163.437 25.5709 164.12 26.0601 164.915 26.4159C165.71 26.7708 166.592 26.9496 167.558 26.9496C168.525 26.9496 169.406 26.7708 170.201 26.4159C170.996 26.0601 171.684 25.5709 172.264 24.9464C172.845 24.3211 173.296 23.573 173.618 22.7004C173.94 21.8278 174.102 20.876 174.102 19.8415ZM180 19.8415C180 21.6508 179.689 23.3035 179.066 24.8006C178.442 26.2985 177.578 27.5785 176.471 28.645C175.365 29.7116 174.047 30.5353 172.523 31.117C170.996 31.6979 169.342 31.9887 167.558 31.9887C165.774 31.9887 164.125 31.6979 162.61 31.117C161.095 30.5353 159.784 29.7116 158.677 28.645C157.571 27.5785 156.706 26.2985 156.083 24.8006C155.46 23.3035 155.149 21.6508 155.149 19.8415C155.149 18.0109 155.46 16.3582 156.083 14.8825C156.706 13.4068 157.571 12.1526 158.677 11.1189C159.784 10.0853 161.095 9.28831 162.61 8.72881C164.125 8.16841 165.774 7.88733 167.558 7.88733C169.342 7.88733 170.996 8.16841 172.523 8.72881C174.047 9.28831 175.365 10.0853 176.471 11.1189C177.578 12.1526 178.442 13.4068 179.066 14.8825C179.689 16.3582 180 18.0109 180 19.8415Z" fill="#333333"/>
<path d="M107.973 41.6399H111.148L109.567 37.6521L107.973 41.6399ZM106.702 44.7747H105.384L109.063 36.2708H110.142L113.785 44.7747H112.443L111.58 42.6846H107.553L106.702 44.7747Z" fill="#333333"/>
<path d="M120.827 36.2708H119.64V44.7747H120.827V36.2708Z" fill="#333333"/>
<path d="M127.868 39.9943H129.234C129.514 39.9943 129.774 39.97 130.013 39.9221C130.253 39.8738 130.462 39.7958 130.642 39.688C130.822 39.5802 130.964 39.4399 131.068 39.2673C131.172 39.0956 131.224 38.8811 131.224 38.6248C131.224 38.3688 131.172 38.1545 131.068 37.9822C130.964 37.8102 130.826 37.672 130.655 37.5681C130.483 37.464 130.281 37.3899 130.049 37.3459C129.817 37.3019 129.574 37.2798 129.319 37.2798H127.868V39.9943ZM127.868 44.7747H126.681V36.2708H129.403C129.81 36.2708 130.197 36.3127 130.564 36.397C130.932 36.4807 131.254 36.6153 131.529 36.7991C131.805 36.9833 132.023 37.2255 132.183 37.5261C132.343 37.8261 132.423 38.1925 132.423 38.6248C132.423 39.2495 132.23 39.7542 131.847 40.1381C131.464 40.5224 130.968 40.7671 130.361 40.8713L132.734 44.7747H131.296L129.139 40.991H127.868V44.7747Z" fill="#333333"/>
<path d="M140.277 43.0451H140.301L142.29 36.2708H143.597L145.574 43.0451H145.598L147.468 36.2708H148.726L146.234 44.7747H144.999L142.937 37.9402H142.914L140.852 44.7747H139.618L137.125 36.2708H138.408L140.277 43.0451Z" fill="#333333"/>
<path d="M154.242 41.6399H157.418L155.836 37.6521L154.242 41.6399ZM152.972 44.7747H151.654L155.333 36.2708H156.411L160.054 44.7747H158.713L157.85 42.6846H153.823L152.972 44.7747Z" fill="#333333"/>
<path d="M167.355 44.7747H166.158V41.0992L162.982 36.2708H164.444L166.792 40.1143L169.154 36.2708H170.531L167.355 41.0992V44.7747Z" fill="#333333"/>
<path d="M178.996 37.8443C178.828 37.6118 178.601 37.4219 178.313 37.2735C178.025 37.1256 177.702 37.0512 177.342 37.0512C177.151 37.0512 176.957 37.0773 176.761 37.1293C176.566 37.1818 176.388 37.2659 176.228 37.3816C176.068 37.498 175.938 37.6419 175.839 37.8142C175.739 37.9865 175.688 38.1925 175.688 38.4329C175.688 38.6651 175.734 38.8596 175.826 39.0157C175.918 39.1711 176.042 39.3037 176.198 39.4115C176.353 39.5197 176.537 39.6116 176.749 39.688C176.961 39.7641 177.187 39.8424 177.426 39.9221C177.714 40.0101 178.005 40.1103 178.301 40.2224C178.597 40.3346 178.864 40.4827 179.104 40.6669C179.344 40.8511 179.54 41.0813 179.691 41.3578C179.843 41.6339 179.919 41.9842 179.919 42.4085C179.919 42.849 179.837 43.2316 179.673 43.5557C179.51 43.8801 179.291 44.148 179.02 44.3607C178.748 44.5723 178.435 44.7307 178.079 44.8346C177.723 44.9388 177.358 44.991 176.983 44.991C176.447 44.991 175.93 44.8868 175.43 44.6788C174.932 44.4705 174.518 44.1622 174.19 43.7538L175.113 42.973C175.313 43.2696 175.581 43.5094 175.916 43.694C176.252 43.8782 176.615 43.9698 177.007 43.9698C177.207 43.9698 177.407 43.942 177.606 43.8858C177.806 43.8299 177.987 43.7419 178.151 43.6215C178.315 43.5015 178.449 43.3517 178.553 43.1714C178.657 42.9912 178.708 42.7729 178.708 42.5163C178.708 42.2606 178.655 42.0463 178.547 41.874C178.439 41.7021 178.293 41.5556 178.109 41.4358C177.925 41.3158 177.712 41.2133 177.468 41.1293C177.224 41.0449 176.967 40.9593 176.695 40.8713C176.424 40.7913 176.156 40.693 175.892 40.5766C175.628 40.4609 175.392 40.3124 175.185 40.1325C174.977 39.9522 174.809 39.73 174.682 39.4661C174.554 39.2015 174.49 38.8738 174.49 38.4806C174.49 38.0563 174.576 37.6921 174.747 37.3879C174.919 37.0836 175.143 36.831 175.419 36.6309C175.695 36.4308 176.006 36.2846 176.353 36.1924C176.701 36.1004 177.051 36.0544 177.402 36.0544C177.898 36.0544 178.361 36.1424 178.793 36.3187C179.224 36.495 179.571 36.7311 179.835 37.0274L178.996 37.8443Z" fill="#333333"/>
<path d="M25.2483 51.7483C39.1926 51.7483 50.4966 40.4443 50.4966 26.5C50.4966 12.5558 39.1926 1.25171 25.2483 1.25171C11.304 1.25171 0 12.5558 0 26.5C0 40.4443 11.304 51.7483 25.2483 51.7483Z" fill="#C4CED3"/>
<path d="M48.6721 26.8661L46.8221 26.0602L26.9633 26.2143C26.9633 26.2143 19.6454 23.0816 15.417 21.2077C11.1855 19.3317 4.57064 16.8753 3.23266 17.9272C1.89309 18.9796 9.53614 23.3611 11.1115 24.2103C12.682 25.0563 27.1474 32.3373 27.1474 32.3373L27.1336 32.7011L20.8631 30.9841L19.1202 37.4923L20.2889 38.031L48.6721 26.8661Z" fill="#333333"/>
</svg>
