<svg width="180" height="35" viewBox="0 0 180 35" fill="none" xmlns="http://www.w3.org/2000/svg">
<g clip-path="url(#clip0_7477_1015)">
<path d="M117.625 32.99C117.85 33.9273 116.951 34.5 116.121 34.5H1.50447C0.674416 34.5 0 33.8231 0 32.99V24.746C0 23.913 0.674416 23.2361 1.50447 23.2361H112.991C113.821 23.2361 114.167 23.67 114.495 24.746L117.625 32.99Z" fill="#454D52"/>
<path d="M118.524 1.71484H115.809H115.792C115.775 1.71484 115.758 1.71484 115.74 1.71484C114.564 1.71484 113.613 2.66941 113.613 3.84961C113.613 4.24879 113.942 5.01244 113.976 5.06451L115.602 9.29933L118.524 1.71484Z" fill="#333333"/>
<path d="M121.585 9.61173L124.629 1.7322V1.71484H118.524V1.7322L121.585 9.61173Z" fill="#333333"/>
<path d="M127.689 9.61173L130.733 1.7322V1.71484H124.646L124.629 1.7322L127.689 9.61173Z" fill="#333333"/>
<path d="M133.794 9.61173L136.855 1.7322L136.837 1.71484H130.75L130.733 1.7322L133.794 9.61173Z" fill="#333333"/>
<path d="M139.898 9.61173L142.959 1.7322V1.71484H136.854V1.7322L139.898 9.61173Z" fill="#333333"/>
<path d="M149.063 1.7322V1.71484H142.959V1.7322L146.003 9.61173L149.063 1.7322Z" fill="#333333"/>
<path d="M152.124 9.61173L155.168 1.7322V1.71484H149.063V1.7322L152.124 9.61173Z" fill="#333333"/>
<path d="M118.524 1.7323L115.584 9.29943L118.628 17.1963L121.585 9.61183L118.524 1.7323Z" fill="#454D52"/>
<path d="M124.629 1.7323L121.585 9.61183L124.629 17.474L127.69 9.61183L124.629 1.7323Z" fill="#454D52"/>
<path d="M133.794 9.61183L130.733 1.7323L127.689 9.61183L130.733 17.474L133.794 9.61183Z" fill="#454D52"/>
<path d="M139.898 9.61183L136.855 1.7323L133.794 9.61183L136.855 17.474L139.898 9.61183Z" fill="#454D52"/>
<path d="M142.959 17.474L146.002 9.61183L142.959 1.7323L139.898 9.61183L142.959 17.474Z" fill="#454D52"/>
<path d="M152.124 9.61183L149.063 1.7323L146.002 9.61183L149.063 17.474L152.124 9.61183Z" fill="#454D52"/>
<path d="M158.228 9.61183L155.168 1.7323L152.124 9.61183L155.168 17.474L158.228 9.61183Z" fill="#454D52"/>
<path d="M124.629 17.474L121.672 25.0932L123.678 30.2826C124.075 31.376 124.352 32.1396 124.854 32.6256L127.672 25.3535L124.629 17.474Z" fill="#99A1A6"/>
<path d="M127.689 25.3535L130.733 33.2331L133.794 25.3535L130.733 17.474L127.689 25.3535Z" fill="#99A1A6"/>
<path d="M133.794 25.3535L136.855 33.2331L139.898 25.3535L136.855 17.474L133.794 25.3535Z" fill="#99A1A6"/>
<path d="M139.898 25.3535L142.959 33.2331L146.002 25.3535L142.959 17.474L139.898 25.3535Z" fill="#99A1A6"/>
<path d="M146.002 25.3535L149.063 33.2331L152.124 25.3535L149.063 17.474L146.002 25.3535Z" fill="#99A1A6"/>
<path d="M152.124 25.3535L155.168 33.2331L158.228 25.3535L155.168 17.474L152.124 25.3535Z" fill="#99A1A6"/>
<path d="M121.585 9.61182L118.628 17.1963L121.689 25.0932L124.629 17.474L121.585 9.61182Z" fill="#646E73"/>
<path d="M127.689 9.61182L124.629 17.474L127.689 25.3535L130.733 17.474L127.689 9.61182Z" fill="#646E73"/>
<path d="M133.794 9.61182L130.733 17.474L133.794 25.3535L136.855 17.474L133.794 9.61182Z" fill="#646E73"/>
<path d="M139.898 9.61182L136.854 17.474L139.898 25.3535L142.959 17.474L139.898 9.61182Z" fill="#646E73"/>
<path d="M146.003 9.61182L142.959 17.474L146.003 25.3535L149.063 17.474L146.003 9.61182Z" fill="#646E73"/>
<path d="M155.168 17.474L152.124 9.61182L149.063 17.474L152.124 25.3535L155.168 17.474Z" fill="#646E73"/>
<path d="M127.689 25.3535L124.871 32.6256C125.303 33.0248 125.908 33.233 126.928 33.233H130.733L127.689 25.3535Z" fill="#C4CED3"/>
<path d="M133.794 25.3535L130.733 33.233H130.75H136.855L133.794 25.3535Z" fill="#C4CED3"/>
<path d="M139.898 25.3535L136.854 33.233H142.959L139.898 25.3535Z" fill="#C4CED3"/>
<path d="M146.003 25.3535L142.959 33.233H149.063L146.003 25.3535Z" fill="#C4CED3"/>
<path d="M155.168 33.233L152.124 25.3535L149.063 33.233H155.168Z" fill="#C4CED3"/>
<path d="M155.167 1.7322L158.228 9.61173L161.272 1.7322V1.71484H155.167V1.7322Z" fill="#333333"/>
<path d="M167.376 1.7322V1.71484H161.272V1.7322L164.333 9.61173L167.376 1.7322Z" fill="#333333"/>
<path d="M173.498 1.7322L173.481 1.71484H167.394V1.7322H167.376L170.437 9.61173L173.498 1.7322Z" fill="#333333"/>
<path d="M175.815 1.71484H173.498L176.559 9.57702L178.703 4.05788C178.409 2.73884 177.233 1.71484 175.815 1.71484Z" fill="#333333"/>
<path d="M158.229 9.61183L161.272 17.474L164.333 9.61183L161.272 1.7323L158.229 9.61183Z" fill="#454D52"/>
<path d="M167.376 17.474L170.437 9.61183L167.376 1.7323L164.333 9.61183L167.376 17.474Z" fill="#454D52"/>
<path d="M173.498 17.474L176.541 9.61183V9.59448L173.498 1.7323L170.437 9.61183L173.498 17.474Z" fill="#454D52"/>
<path d="M158.229 25.3535L161.272 33.2331L164.333 25.3535L161.272 17.474L158.229 25.3535Z" fill="#99A1A6"/>
<path d="M164.333 25.3535L167.376 33.2331L170.437 25.3535L167.376 17.474L164.333 25.3535Z" fill="#99A1A6"/>
<path d="M176.541 25.3535L173.498 17.474L170.437 25.3535L173.498 33.2331L176.541 25.3535Z" fill="#99A1A6"/>
<path d="M176.542 9.61182L178.738 15.2872V4.66541C178.738 4.45714 178.72 4.26623 178.686 4.07532L176.542 9.61182Z" fill="#454D52"/>
<path d="M176.542 25.3534L178.686 30.8726C178.72 30.6817 178.738 30.4908 178.738 30.2825V19.6781L176.542 25.3534Z" fill="#99A1A6"/>
<path d="M158.228 9.61182L155.167 17.474L158.228 25.3535L161.272 17.474L158.228 9.61182Z" fill="#646E73"/>
<path d="M164.333 9.61182L161.272 17.474L164.333 25.3535L167.376 17.474L164.333 9.61182Z" fill="#646E73"/>
<path d="M170.437 9.61182L167.376 17.474L170.437 25.3535L173.498 17.474L170.437 9.61182Z" fill="#646E73"/>
<path d="M176.542 9.61182L173.498 17.474L176.542 25.3535L178.738 19.6782V15.2698L176.542 9.61182Z" fill="#646E73"/>
<path d="M158.228 25.3535L155.167 33.233H161.272L158.228 25.3535Z" fill="#C4CED3"/>
<path d="M164.333 25.3535L161.272 33.233H167.376L164.333 25.3535Z" fill="#C4CED3"/>
<path d="M170.437 25.3535L167.376 33.233H167.394H173.498L170.437 25.3535Z" fill="#C4CED3"/>
<path d="M176.541 25.3535L173.48 33.233H175.798C177.216 33.233 178.409 32.2264 178.668 30.8727L176.541 25.3535Z" fill="#C4CED3"/>
<path d="M126.41 23.4444H127.257C127.81 23.4444 128.035 23.3403 128.035 22.8022C128.035 22.3857 127.897 22.1601 126.98 22.1601C126.254 22.1601 125.96 22.2815 125.96 22.8543H124.248V22.5766C124.248 21.084 125.251 20.6848 127.015 20.6848C128.779 20.6848 129.851 21.0666 129.851 22.4898C129.851 23.3576 129.678 23.913 128.796 24.0518V24.1213C129.678 24.208 129.972 24.7287 129.972 25.5618C129.972 27.1238 129.505 27.6271 127.049 27.6271C125.147 27.6271 124.196 27.2974 124.196 25.3709H125.925C125.925 26.0825 126.185 26.1519 127.049 26.1519C127.897 26.1519 128.173 25.9957 128.173 25.4403C128.173 24.9543 127.966 24.7461 127.378 24.7461H126.41V23.4444Z" fill="white"/>
<path d="M137.183 20.7369V25.961H137.753V29.0851H136.041V27.5231H132.514V29.0851H130.802V25.961H131.338C131.805 25.3189 132.012 24.5899 132.012 23.1147V20.7369H137.183ZM133.707 22.299V23.2362C133.707 24.5726 133.517 25.3015 133.154 25.9784H135.402V22.299H133.707Z" fill="white"/>
<path d="M138.584 25.0932V23.1667C138.584 21.084 139.88 20.6848 141.713 20.6848C143.547 20.6848 144.843 21.084 144.843 23.1667V25.0932C144.843 27.1759 143.547 27.6098 141.713 27.6098C139.88 27.6098 138.584 27.1759 138.584 25.0932ZM142.976 24.8849V23.3576C142.976 22.351 142.647 22.2468 141.713 22.2468C140.78 22.2468 140.451 22.351 140.451 23.3576V24.8849C140.451 25.8916 140.78 26.0304 141.713 26.0304C142.647 26.0304 142.976 25.8916 142.976 24.8849Z" fill="white"/>
<path d="M147.853 27.5231H146.054V20.7369H149.444C151.121 20.7369 151.743 21.3617 151.743 23.132C151.743 25.0412 151.311 25.6313 149.444 25.6313H147.853V27.5231ZM147.853 24.156H149.08C149.772 24.156 149.893 24.0345 149.893 23.1494C149.893 22.4378 149.789 22.2122 149.08 22.2122H147.853V24.156Z" fill="white"/>
<path d="M152.781 25.0932V23.1667C152.781 21.084 154.078 20.6848 155.911 20.6848C157.744 20.6848 159.041 21.084 159.041 23.1667V25.0932C159.041 27.1759 157.744 27.6098 155.911 27.6098C154.078 27.6098 152.781 27.1759 152.781 25.0932ZM157.173 24.8849V23.3576C157.173 22.351 156.845 22.2468 155.911 22.2468C154.977 22.2468 154.649 22.351 154.649 23.3576V24.8849C154.649 25.8916 154.977 26.0304 155.911 26.0304C156.845 26.0304 157.173 25.8916 157.173 24.8849Z" fill="white"/>
<path d="M160.251 20.7369H163.796C165.128 20.7369 165.923 20.9973 165.923 22.4725C165.923 23.3403 165.75 23.8957 164.851 24.0345V24.104C165.854 24.1734 166.027 24.7808 166.027 25.6313C166.027 27.2974 165.249 27.5231 163.813 27.5231H160.234V20.7369H160.251ZM162.05 23.4444H163.347C163.986 23.4444 164.125 23.3403 164.125 22.8023C164.125 22.3857 164.038 22.2295 163.554 22.2295H162.032V23.4444H162.05ZM162.05 26.0305H163.416C164.004 26.0305 164.246 25.8916 164.246 25.3362C164.246 24.7808 164.038 24.6941 163.45 24.6941H162.05V26.0305Z" fill="white"/>
<path d="M168.638 20.7369V22.2295C168.638 23.1667 168.327 23.5139 167.082 23.5139V22.837C167.601 22.837 167.722 22.6808 167.722 22.2295H167.168V20.7369H168.638Z" fill="white"/>
<path d="M173.515 25.1279H172.668L171.474 27.523H169.417L170.886 24.9197C170.022 24.5378 169.676 23.9825 169.676 22.889C169.676 21.4485 170.247 20.7543 171.855 20.7543H175.313V27.5404H173.515V25.1279ZM173.515 22.2295H172.166C171.665 22.2295 171.492 22.3684 171.492 22.9585C171.492 23.4791 171.803 23.6527 172.304 23.6527H173.515V22.2295Z" fill="white"/>
<path d="M125.908 8.77874H122.778V9.99366H124.456C125.839 9.99366 126.531 10.549 126.531 12.0763C126.531 13.6037 125.804 14.159 124.456 14.159H120.98V7.37292H125.908V8.77874ZM122.778 12.7359H124.023C124.542 12.7359 124.715 12.597 124.715 12.0763C124.715 11.521 124.525 11.3821 124.023 11.3821H122.778V12.7359Z" fill="white"/>
<path d="M129.419 12.9787L129.09 14.1416H127.222L129.246 7.35547H131.978L134.036 14.1416H132.203L131.857 12.9787H129.419ZM130.646 8.72658H130.629L129.816 11.6597H131.476L130.646 8.72658Z" fill="white"/>
<path d="M140.987 9.92423L142.475 7.37292H144.532L142.492 10.6532L144.826 14.159H142.596L140.97 11.5036H140.434V14.159H138.722V11.5036H138.186L136.56 14.159H134.364L136.716 10.6532L134.676 7.37292H136.733L138.221 9.92423H138.757V7.37292H140.469V9.92423H140.987Z" fill="white"/>
<path d="M147.317 12.9787L146.988 14.1416H145.121L147.144 7.35547H149.876L151.934 14.1416H150.101L149.755 12.9787H147.317ZM148.545 8.72658H148.527L147.715 11.6597H149.375L148.545 8.72658Z" fill="white"/>
<path d="M158.54 11.7292V12.1631C158.54 14.0375 157.225 14.2458 155.79 14.2458C153.957 14.2458 152.608 14.1069 152.608 11.6424V9.88946C152.608 7.7547 153.732 7.3208 155.704 7.3208C157.502 7.3208 158.54 7.80676 158.54 9.54234V9.62912H156.689V9.45556C156.689 8.91753 156.292 8.79604 155.583 8.79604C154.649 8.79604 154.458 9.05638 154.458 10.0977H156.101V11.3473H154.458C154.458 12.3366 154.51 12.7705 155.583 12.7705C156.326 12.7705 156.689 12.7185 156.689 11.9374V11.7292H158.54Z" fill="white"/>
<path d="M162.534 7.37292L163.814 11.6251H163.865L165.093 7.37292H168.016V14.159H166.217L166.39 8.96966L166.304 8.9523L164.609 14.159H163.053L161.358 8.9523L161.289 8.96966L161.462 14.159H159.663V7.37292H162.534Z" fill="white"/>
<path d="M169.244 11.7292V9.80268C169.244 7.71998 170.541 7.3208 172.374 7.3208C174.207 7.3208 175.504 7.71998 175.504 9.80268V11.7292C175.504 13.8119 174.207 14.2458 172.374 14.2458C170.541 14.2458 169.244 13.8119 169.244 11.7292ZM173.636 11.5209V9.99359C173.636 8.98696 173.308 8.88282 172.374 8.88282C171.44 8.88282 171.112 8.98696 171.112 9.99359V11.5209C171.112 12.5275 171.44 12.6664 172.374 12.6664C173.308 12.6664 173.636 12.5275 173.636 11.5209Z" fill="white"/>
<path d="M175.659 7.44237H175.504V6.67871H175.884C176.092 6.67871 176.126 6.81756 176.126 6.88698C176.126 6.97376 176.092 7.04318 176.005 7.07789C176.057 7.09525 176.092 7.12996 176.092 7.25145C176.092 7.37294 176.092 7.3903 176.126 7.40765V7.44237H175.953C175.953 7.40765 175.936 7.37294 175.936 7.28616C175.936 7.18203 175.936 7.14732 175.815 7.14732H175.659V7.44237ZM175.659 7.02583H175.85C175.936 7.02583 175.971 6.99111 175.971 6.92169C175.971 6.88698 175.953 6.83491 175.85 6.83491H175.659V7.02583Z" fill="white"/>
<path d="M175.798 7.80679C175.59 7.80679 175.417 7.72001 175.279 7.58116C175.14 7.44231 175.071 7.26876 175.071 7.06049C175.071 6.85222 175.158 6.6613 175.279 6.53981C175.417 6.40097 175.59 6.33154 175.798 6.33154C176.005 6.33154 176.178 6.40097 176.316 6.53981C176.455 6.6613 176.541 6.85222 176.541 7.06049C176.541 7.26876 176.455 7.45967 176.316 7.58116C176.178 7.72001 175.988 7.80679 175.798 7.80679ZM175.365 6.62659C175.262 6.73073 175.192 6.88693 175.192 7.06049C175.192 7.23404 175.262 7.39025 175.365 7.49438C175.469 7.59852 175.625 7.66794 175.798 7.66794C175.971 7.66794 176.126 7.59852 176.23 7.49438C176.334 7.39025 176.403 7.23404 176.403 7.06049C176.403 6.88693 176.334 6.73073 176.23 6.62659C176.126 6.52246 175.971 6.45303 175.798 6.45303C175.625 6.45303 175.469 6.52246 175.365 6.62659Z" fill="white"/>
<path d="M175.815 1.71491C177.441 1.71491 178.755 3.03395 178.755 4.66539V30.2825C178.755 31.914 177.441 33.233 175.815 33.233H126.911C124.715 33.233 124.439 32.3132 123.678 30.2825L113.959 5.06457C113.942 5.01251 113.596 4.24885 113.596 3.84967C113.596 2.66947 114.547 1.71491 115.723 1.71491C115.74 1.71491 115.74 1.71491 115.758 1.71491H115.775H115.792H175.815ZM175.815 0.5H115.81C115.792 0.5 115.792 0.5 115.775 0.5H115.758C113.907 0.5 112.403 2.00995 112.403 3.84967C112.403 4.37034 112.645 5.04722 112.852 5.53318L122.571 30.7164L122.64 30.89C123.349 32.7991 123.972 34.4479 126.946 34.4479H175.85C178.132 34.4479 180 32.5735 180 30.2825V4.66539C179.966 2.37443 178.098 0.5 175.815 0.5Z" fill="white"/>
<path fill-rule="evenodd" clip-rule="evenodd" d="M24.7458 21.379H21.4601C21.097 21.379 20.8203 21.0839 20.8203 20.7368V2.53059C20.8203 2.16612 21.1143 1.88843 21.4601 1.88843H36.6432C37.0063 1.88843 37.283 2.18348 37.283 2.53059V20.7195C37.283 21.0839 36.989 21.3616 36.6432 21.3616H33.3575C32.9944 21.3616 32.7177 21.0666 32.7177 20.7195V6.31416C32.7177 5.94968 32.4237 5.67199 32.0779 5.67199H26.0427C25.6796 5.67199 25.4029 5.96704 25.4029 6.31416V20.7195C25.4029 21.0839 25.1089 21.379 24.7458 21.379Z" fill="#333333"/>
<path fill-rule="evenodd" clip-rule="evenodd" d="M39.3062 5.01247V2.53059C39.3062 2.16612 39.6001 1.88843 39.946 1.88843H54.9561C55.3192 1.88843 55.5959 2.18348 55.5959 2.53059V5.01247C55.5959 5.37694 55.3019 5.65464 54.9561 5.65464H50.3908C50.0276 5.65464 49.751 5.94968 49.751 6.2968V20.7021C49.751 21.0666 49.457 21.3443 49.1111 21.3443H45.8255C45.4624 21.3443 45.1857 21.0492 45.1857 20.7021V6.2968C45.1857 5.93233 44.8917 5.65464 44.5459 5.65464H39.9633C39.6001 5.67199 39.3062 5.37694 39.3062 5.01247Z" fill="#333333"/>
<path fill-rule="evenodd" clip-rule="evenodd" d="M87.6913 1.85368L91.3401 1.81897C91.5995 1.81897 91.8243 1.95782 91.928 2.2008C92.0318 2.44378 91.9972 2.70412 91.8243 2.89503L85.3914 10.3754C85.1839 10.6184 85.1839 10.9655 85.3741 11.2085L92.5333 20.2508C92.6889 20.4591 92.7235 20.7021 92.6025 20.9277C92.4987 21.1533 92.2739 21.2922 92.0318 21.2922L88.0891 21.3269C87.8815 21.3269 87.6913 21.2401 87.5703 21.0666L81.6734 13.0308C81.587 12.944 81.4659 12.9093 81.3276 12.9093C81.0336 12.9093 80.7915 13.1697 80.7742 13.5168L80.8261 20.7541C80.8261 21.1186 80.5321 21.4137 80.1863 21.4137L76.9007 21.4484C76.5375 21.4484 76.2435 21.1533 76.2435 20.8062L76.0879 2.59998C76.0879 2.23551 76.3819 1.94046 76.7277 1.94046L80.0133 1.90575C80.3765 1.90575 80.6705 2.2008 80.6705 2.54791L80.7223 8.13648C80.7223 8.15384 80.7223 8.15384 80.7223 8.17119C80.7223 8.62244 81.0336 8.96956 81.4141 8.96956C81.5697 8.96956 81.708 8.91749 81.8118 8.81336L87.1898 2.07931C87.3109 1.94046 87.4838 1.85368 87.6913 1.85368Z" fill="#333333"/>
<path fill-rule="evenodd" clip-rule="evenodd" d="M71.8857 10.2713V12.5622C71.8857 12.9267 71.5917 13.2044 71.2459 13.2044H63.0491C62.686 13.2044 62.4093 13.4995 62.4093 13.8466V16.9185C62.4093 17.283 62.7033 17.5607 63.0491 17.5607H72.8022C73.1654 17.5607 73.442 17.8558 73.442 18.2029V20.6848C73.442 21.0492 73.1481 21.3269 72.8022 21.3269H58.4838C58.1207 21.3269 57.844 21.0319 57.844 20.6848V2.53059C57.844 2.16612 58.138 1.88843 58.4838 1.88843H72.5255C72.8887 1.88843 73.1654 2.18348 73.1654 2.53059V5.01247C73.1654 5.37694 72.8714 5.65464 72.5255 5.65464H63.0491C62.686 5.65464 62.4093 5.94968 62.4093 6.2968V8.95224C62.4093 9.31671 62.7033 9.5944 63.0491 9.5944H71.2459C71.5917 9.62911 71.8857 9.90681 71.8857 10.2713Z" fill="#333333"/>
<path fill-rule="evenodd" clip-rule="evenodd" d="M99.554 17.8211H106.471L107.526 20.9625C107.63 21.2749 107.906 21.4658 108.235 21.4658H111.659C111.901 21.4658 112.126 21.3443 112.264 21.1534C112.402 20.9451 112.437 20.7021 112.351 20.4765L105.555 2.27026C105.451 1.97522 105.174 1.7843 104.863 1.7843H101.128C100.816 1.7843 100.54 1.97522 100.436 2.27026L93.6226 20.4591C93.5361 20.6848 93.5707 20.9451 93.709 21.136C93.8474 21.3443 94.0722 21.4484 94.3143 21.4484H97.7728C98.1014 21.4484 98.3781 21.2575 98.4818 20.9451L99.554 17.8211ZM100.609 14.3152L102.978 7.26873L105.399 14.3152H100.609Z" fill="#333333"/>
<path fill-rule="evenodd" clip-rule="evenodd" d="M5.98318 17.8211H12.9003L13.9551 20.9625C14.0589 21.2749 14.3356 21.4658 14.6641 21.4658H18.0881C18.3302 21.4658 18.555 21.3443 18.6933 21.1534C18.8317 20.9451 18.8663 20.7021 18.7798 20.4765L11.9838 2.27026C11.88 1.97522 11.6033 1.7843 11.292 1.7843H7.55682C7.24555 1.7843 6.96887 1.97522 6.86511 2.27026L0.051778 20.4591C-0.0346856 20.6848 -0.000100195 20.9451 0.138242 21.136C0.276583 21.3443 0.501389 21.4484 0.743487 21.4484H4.20203C4.53059 21.4484 4.80728 21.2575 4.91103 20.9451L5.98318 17.8211ZM7.03804 14.3152L9.40714 7.26873L11.8281 14.3152H7.03804Z" fill="#333333"/>
<path d="M3.94284 28.7553L5.06687 27.28H6.22548L4.80748 28.9809L6.34653 30.8727H5.15333L3.96013 29.328H3.94284V30.8727H3.00903V27.2974H3.94284V28.7553Z" fill="white"/>
<path d="M7.62614 27.28L8.55995 28.9983L9.28625 27.28H10.2546L8.61183 30.8553H7.66073L8.09305 29.9528L6.57129 27.28H7.62614Z" fill="white"/>
<path d="M13.9379 27.28V30.8553H13.0041V28.009H11.6552V30.8553H10.7214V27.28H13.9379Z" fill="white"/>
<path d="M15.4598 27.28L16.3937 28.9983L17.1199 27.28H18.0883L16.4455 30.8553H15.4944L15.9267 29.9528L14.3877 27.28H15.4598Z" fill="white"/>
<path d="M19.4892 29.4668L20.8381 27.28H21.7719V30.8553H20.8381V28.6684H20.8208L19.4892 30.8553H18.5554V27.28H19.4892V29.4668ZM19.8005 26.3601C19.8351 26.5684 19.9907 26.6725 20.1809 26.6725C20.3884 26.6725 20.5441 26.551 20.5787 26.3601L21.0802 26.499C21.011 26.8808 20.6824 27.1585 20.1809 27.1585C19.6794 27.1585 19.3509 26.8808 19.2817 26.499L19.8005 26.3601Z" fill="white"/>
<path d="M24.3137 27.28H25.6279C26.2678 27.28 26.6828 27.523 26.6828 28.2172C26.6828 28.547 26.579 28.8073 26.2851 28.9462V28.9635C26.8038 29.033 27.0113 29.3801 27.0113 29.866C27.0113 30.6123 26.3715 30.8727 25.7144 30.8727H24.2964V27.28H24.3137ZM25.2475 28.6858H25.3512C25.5933 28.6858 25.8527 28.6338 25.8527 28.3387C25.8527 28.009 25.5588 27.9916 25.3167 27.9916H25.2475V28.6858ZM25.2475 30.1437H25.3685C25.7663 30.1437 26.1121 30.109 26.1121 29.7619C26.1121 29.3974 25.749 29.3801 25.3512 29.3801H25.2475V30.1437Z" fill="white"/>
<path d="M28.5676 29.4669L29.9164 27.28H30.8502V30.8553H29.9164V28.6685H29.8991L28.5676 30.8553H27.6338V27.28H28.5676V29.4669Z" fill="white"/>
<path d="M33.5998 27.28V28.061H32.4758V30.8553H31.542V27.28H33.5998Z" fill="white"/>
<path d="M35.0007 30.8553H34.0669V27.28H35.0007V30.8553Z" fill="white"/>
<path d="M38.8396 27.28V30.1264H39.1854V31.5148H38.3035V30.8727H36.4359V31.5148H35.554V30.1264C36.0382 30.0396 36.1938 29.6231 36.1938 28.1825V27.28H38.8396ZM37.0411 28.061C37.0411 29.5536 36.972 29.9528 36.7299 30.1264H37.9231V28.061H37.0411Z" fill="white"/>
<path d="M40.6899 28.6685H42.0387V27.28H42.9725V30.8553H42.0214V29.3974H40.6726V30.8553H39.7388V27.28H40.6726V28.6685H40.6899Z" fill="white"/>
<path d="M45.4975 30.9594C44.3562 30.9594 43.5261 30.1611 43.5261 29.0156C43.5261 27.9395 44.4772 27.1932 45.4975 27.1932C46.5178 27.1932 47.4689 27.9222 47.4689 29.0156C47.4689 30.1611 46.6388 30.9594 45.4975 30.9594ZM45.4975 30.0569C46.0509 30.0569 46.5005 29.623 46.5005 29.0156C46.5005 28.5123 46.0509 28.0957 45.4975 28.0957C44.9441 28.0957 44.4945 28.5296 44.4945 29.0156C44.4945 29.623 44.9441 30.0569 45.4975 30.0569Z" fill="white"/>
<path d="M49.1978 30.4041C49.1978 30.6991 48.9557 30.9595 48.6444 30.9595C48.3332 30.9595 48.0911 30.6991 48.0911 30.4041C48.0911 30.0917 48.3332 29.8487 48.6444 29.8487C48.9557 29.8487 49.1978 30.0917 49.1978 30.4041ZM48.2121 27.28H49.1113V29.6404H48.2121V27.28Z" fill="white"/>
<path d="M51.9476 28.3908C51.9476 27.6271 52.4837 27.28 53.1927 27.28H54.5761V30.8553H53.6423V29.4842H53.625L52.7431 30.8553H51.5845L52.7085 29.3974C52.2243 29.3107 51.9476 28.8768 51.9476 28.3908ZM53.6423 27.9916H53.5558C53.2446 27.9916 52.916 28.0437 52.916 28.4429C52.916 28.8247 53.2446 28.8941 53.5558 28.8941H53.6423V27.9916Z" fill="white"/>
<path d="M56.2363 28.7553L57.3603 27.28H58.5016L57.0836 28.9809L58.6227 30.8727H57.4295L56.2363 29.328H56.219V30.8727H55.2852V27.2974H56.219V28.7553H56.2363Z" fill="white"/>
<path d="M60.0405 30.8553H59.1067V27.28H60.0405V30.8553Z" fill="white"/>
<path d="M63.3436 28.4775C63.1534 28.2172 62.8421 28.0783 62.5308 28.0783C61.9602 28.0783 61.5797 28.5122 61.5797 29.0676C61.5797 29.6403 61.9602 30.0395 62.5481 30.0395C62.8421 30.0395 63.1534 29.8833 63.3436 29.6577V30.7685C63.0496 30.8726 62.8075 30.9247 62.5308 30.9247C61.4414 30.9247 60.6113 30.0916 60.6113 29.0502C60.6113 28.0262 61.4241 27.1584 62.4962 27.1584C62.7902 27.1584 63.0669 27.2279 63.3436 27.332V28.4775Z" fill="white"/>
<path d="M64.5709 30.8553V28.061H63.8101V27.28H66.2656V28.061H65.5048V30.8553H64.5709Z" fill="white"/>
<path d="M67.6838 27.2799V28.4601H68.2026C69.0153 28.4601 69.465 28.8246 69.465 29.6577C69.465 30.4734 68.9289 30.8379 68.168 30.8379H66.75V27.2626H67.6838V27.2799ZM67.6838 30.1089H67.8394C68.2026 30.1089 68.5139 30.1089 68.5139 29.6577C68.5139 29.2411 68.2199 29.2238 67.8394 29.2238H67.6838V30.1089Z" fill="white"/>
<path d="M73.9091 27.28V28.061H72.7851V30.8553H71.8513V27.28H73.9091Z" fill="white"/>
<path d="M76.019 27.28L77.3678 30.8553H76.3822L76.1573 30.2305H74.8777L74.6356 30.8553H73.6499L75.016 27.28H76.019ZM75.5002 28.3908L75.1198 29.5363H75.8807L75.5002 28.3908Z" fill="white"/>
<path d="M77.8171 27.28H79.2351C79.996 27.28 80.5321 27.6445 80.5321 28.4602C80.5321 29.3107 80.0825 29.6751 79.2697 29.6751H78.7509V30.8553H77.8171V27.28ZM78.7336 28.9288H78.8893C79.2178 28.9288 79.5464 28.9115 79.5464 28.4949C79.5464 28.0437 79.2351 28.0437 78.8893 28.0437H78.7336V28.9288Z" fill="white"/>
<path d="M82.9013 27.28L84.2502 30.8553H83.2645L83.0397 30.2305H81.76L81.5179 30.8553H80.5322L81.8984 27.28H82.9013ZM82.3825 28.3908L82.0021 29.5363H82.763L82.3825 28.3908Z" fill="white"/>
<path d="M85.6164 28.6685H86.9653V27.28H87.8991V30.8553H86.9653V29.3974H85.6164V30.8553H84.6826V27.28H85.6164V28.6685Z" fill="white"/>
<path d="M89.1442 30.8553V28.061H88.3833V27.28H90.8389V28.061H90.078V30.8553H89.1442Z" fill="white"/>
<path d="M93.1388 30.9594C91.9975 30.9594 91.1675 30.1611 91.1675 29.0156C91.1675 27.9395 92.1186 27.1932 93.1388 27.1932C94.1591 27.1932 95.1102 27.9222 95.1102 29.0156C95.1102 30.1611 94.2801 30.9594 93.1388 30.9594ZM93.1388 30.0569C93.6922 30.0569 94.1418 29.623 94.1418 29.0156C94.1418 28.5123 93.6922 28.0957 93.1388 28.0957C92.5855 28.0957 92.1359 28.5296 92.1359 29.0156C92.1359 29.623 92.5855 30.0569 93.1388 30.0569Z" fill="white"/>
<path d="M95.6809 27.28H96.9951C97.635 27.28 98.05 27.523 98.05 28.2172C98.05 28.547 97.9462 28.8073 97.6523 28.9462V28.9635C98.171 29.033 98.3786 29.3801 98.3786 29.866C98.3786 30.6123 97.7387 30.8727 97.0816 30.8727H95.6636V27.28H95.6809ZM96.6147 28.6858H96.7184C96.9605 28.6858 97.2199 28.6338 97.2199 28.3387C97.2199 28.009 96.9259 27.9916 96.6838 27.9916H96.6147V28.6858ZM96.6147 30.1437H96.7357C97.1335 30.1437 97.4793 30.109 97.4793 29.7619C97.4793 29.3974 97.1162 29.3801 96.7184 29.3801H96.632V30.1437H96.6147Z" fill="white"/>
<path d="M101.111 27.28L102.459 30.8553H101.474L101.249 30.2305H99.9519L99.7098 30.8553H98.7241L100.09 27.28H101.111ZM100.592 28.3908L100.211 29.5363H100.972L100.592 28.3908Z" fill="white"/>
<path d="M103.826 28.6685H105.174V27.28H106.108V30.8553H105.174V29.3974H103.826V30.8553H102.892V27.28H103.826V28.6685Z" fill="white"/>
<path d="M108.633 30.9594C107.492 30.9594 106.662 30.1611 106.662 29.0156C106.662 27.9395 107.613 27.1932 108.633 27.1932C109.653 27.1932 110.604 27.9222 110.604 29.0156C110.604 30.1611 109.774 30.9594 108.633 30.9594ZM108.633 30.0569C109.186 30.0569 109.636 29.623 109.636 29.0156C109.636 28.5123 109.186 28.0957 108.633 28.0957C108.08 28.0957 107.63 28.5296 107.63 29.0156C107.63 29.623 108.08 30.0569 108.633 30.0569Z" fill="white"/>
<path d="M112.351 30.4041C112.351 30.6991 112.109 30.9595 111.798 30.9595C111.486 30.9595 111.244 30.6991 111.244 30.4041C111.244 30.0917 111.486 29.8487 111.798 29.8487C112.109 29.8487 112.351 30.0917 112.351 30.4041ZM111.348 27.28H112.247V29.6404H111.348V27.28Z" fill="white"/>
</g>
<defs>
<clipPath id="clip0_7477_1015">
<rect width="180" height="34" fill="white" transform="translate(0 0.5)"/>
</clipPath>
</defs>
</svg>
