<svg width="134" height="69" viewBox="0 0 134 69" fill="none" xmlns="http://www.w3.org/2000/svg">
<path d="M17.7209 29.202C17.6389 28.6349 18.4363 28.4212 18.6488 28.9533L20.4312 33.4171C22.7327 39.181 28.684 42.6169 34.8264 41.7282L39.5833 41.0399C40.1504 40.9579 40.3641 41.7553 39.8319 41.9678L35.3682 43.7502C29.6043 46.0517 26.1684 52.003 27.0571 58.1454L27.7454 62.9023C27.8274 63.4694 27.03 63.683 26.8174 63.1509L25.0351 58.6872C22.7336 52.9233 16.7823 49.4874 10.6399 50.3761L5.88298 51.0644C5.31593 51.1464 5.10226 50.349 5.63433 50.1365L10.0981 48.3541C15.862 46.0526 19.2979 40.1013 18.4092 33.9589L17.7209 29.202Z" fill="#FFE88C"/>
<path d="M62.1535 17.2962C62.0715 16.7292 62.8689 16.5155 63.0815 17.0476L64.8638 21.5113C67.1653 27.2752 73.1166 30.7112 79.259 29.8224L84.0159 29.1341C84.583 29.0521 84.7967 29.8495 84.2645 30.0621L79.8008 31.8444C74.0369 34.1459 70.601 40.0972 71.4897 46.2396L72.178 50.9965C72.2601 51.5636 71.4626 51.7773 71.2501 51.2451L69.4677 46.7814C67.1662 41.0176 61.2149 37.5816 55.0725 38.4704L50.3156 39.1587C49.7486 39.2407 49.5349 38.4432 50.0669 38.2307L54.5307 36.4483C60.2946 34.1468 63.7306 28.1955 62.8418 22.0531L62.1535 17.2962Z" fill="#FFE88C"/>
<path d="M106.586 5.39069C106.504 4.82364 107.301 4.60997 107.514 5.14204L109.296 9.60578C111.598 15.3697 117.549 18.8056 123.691 17.9169L128.448 17.2286C129.015 17.1466 129.229 17.944 128.697 18.1566L124.233 19.9389C118.469 22.2404 115.033 28.1917 115.922 34.3341L116.611 39.091C116.693 39.6581 115.895 39.8718 115.683 39.3396L113.9 34.8759C111.599 29.112 105.647 25.6761 99.505 26.5649L94.7481 27.2532C94.181 27.3351 93.9674 26.5377 94.4994 26.3252L98.9632 24.5428C104.727 22.2413 108.163 16.29 107.274 10.1476L106.586 5.39069Z" fill="#FFE88C"/>
</svg>
