<svg width="101" height="81" viewBox="0 0 101 81" fill="none" xmlns="http://www.w3.org/2000/svg">
<path fill-rule="evenodd" clip-rule="evenodd" d="M29.2936 76.6439C25.5362 76.433 21.8173 76.2574 18.068 75.9371C17.2611 75.8711 16.6664 75.1675 16.7345 74.3661C16.8004 73.5592 17.5095 72.9622 18.3109 73.0303C22.0397 73.346 25.7271 73.5211 29.4585 73.7295C30.2646 73.777 30.8792 74.4669 30.8351 75.2654C30.7875 76.0714 30.0997 76.6914 29.2936 76.6439Z" fill="#F2D126"/>
<path fill-rule="evenodd" clip-rule="evenodd" d="M46.3218 50.5916C37.8027 42.2948 29.7082 33.5727 21.3716 25.0997C20.8064 24.5221 20.8155 23.5995 21.3876 23.0364C21.9651 22.4712 22.8856 22.4749 23.4562 23.0503C31.7756 31.5112 39.8528 40.2211 48.3581 48.4982C48.9376 49.064 48.9471 49.9858 48.3867 50.5631C47.8209 51.1426 46.8992 51.1519 46.3218 50.5916Z" fill="#F2D126"/>
<path fill-rule="evenodd" clip-rule="evenodd" d="M85.2661 32.6666C83.2028 22.8276 81.4117 12.9156 79.2385 3.09993C79.0689 2.31457 79.5649 1.53685 80.3481 1.36175C81.1369 1.18457 81.9167 1.686 82.0918 2.46927C84.2636 12.2979 86.059 22.2208 88.121 32.0728C88.2852 32.8603 87.7817 33.6348 86.9942 33.7989C86.2013 33.9652 85.4324 33.4595 85.2661 32.6666Z" fill="#F2D126"/>
</svg>
