<svg width="101" height="82" viewBox="0 0 101 82" fill="none" xmlns="http://www.w3.org/2000/svg">
<path fill-rule="evenodd" clip-rule="evenodd" d="M29.2938 5.03381C25.5363 5.2447 21.8174 5.42033 18.0681 5.74062C17.2613 5.80659 16.6665 6.51024 16.7346 7.31166C16.8006 8.11853 17.5096 8.71549 18.311 8.64742C22.0398 8.33177 25.7272 8.15661 29.4586 7.94826C30.2647 7.90074 30.8794 7.21085 30.8352 6.41233C30.7877 5.60628 30.0998 4.98628 29.2938 5.03381Z" fill="#3BBAFF"/>
<path fill-rule="evenodd" clip-rule="evenodd" d="M46.322 31.0861C37.8028 39.3829 29.7083 48.105 21.3717 56.5781C20.8065 57.1556 20.8157 58.0783 21.3877 58.6414C21.9652 59.2066 22.8857 59.2029 23.4563 58.6274C31.7757 50.1666 39.8529 41.4566 48.3582 33.1796C48.9377 32.6138 48.9472 31.692 48.3869 31.1146C47.8211 30.5351 46.8993 30.5258 46.322 31.0861Z" fill="#3BBAFF"/>
<path fill-rule="evenodd" clip-rule="evenodd" d="M85.2663 49.0112C83.2031 58.8501 81.4119 68.7621 79.2388 78.5778C79.0691 79.3631 79.5651 80.1409 80.3484 80.316C81.1371 80.4931 81.9169 79.9917 82.092 79.2084C84.2639 69.3798 86.0592 59.4569 88.1212 49.6049C88.2854 48.8174 87.7819 48.043 86.9945 47.8788C86.2016 47.7125 85.4326 48.2183 85.2663 49.0112Z" fill="#3BBAFF"/>
</svg>
